<svg width="255" height="226" viewBox="0 0 255 226" fill="none" xmlns="http://www.w3.org/2000/svg">
<rect width="255" height="226" fill="white"/>
<path d="M57.2965 183.276L55.7215 179.195C55.6748 179.074 55.6258 178.934 55.5745 178.775C55.5231 178.612 55.4741 178.439 55.4275 178.257C55.3295 178.635 55.2291 178.95 55.1265 179.202L53.5515 183.276H57.2965ZM60.1245 187H59.0745C58.9531 187 58.8551 186.97 58.7805 186.909C58.7058 186.848 58.6498 186.771 58.6125 186.678L57.6745 184.256H53.1735L52.2355 186.678C52.2075 186.762 52.1538 186.837 52.0745 186.902C51.9951 186.967 51.8971 187 51.7805 187H50.7305L54.7415 176.969H56.1135L60.1245 187ZM65.8937 181.169C65.8563 181.22 65.819 181.26 65.7817 181.288C65.7443 181.316 65.693 181.33 65.6277 181.33C65.5577 181.33 65.4807 181.302 65.3967 181.246C65.3127 181.185 65.2077 181.12 65.0817 181.05C64.9603 180.98 64.8087 180.917 64.6267 180.861C64.4493 180.8 64.23 180.77 63.9687 180.77C63.6187 180.77 63.3107 180.833 63.0447 180.959C62.7787 181.08 62.5547 181.258 62.3727 181.491C62.1953 181.724 62.06 182.007 61.9667 182.338C61.878 182.669 61.8337 183.04 61.8337 183.451C61.8337 183.88 61.8827 184.263 61.9807 184.599C62.0787 184.93 62.2163 185.21 62.3937 185.439C62.5757 185.663 62.7927 185.836 63.0447 185.957C63.3013 186.074 63.5883 186.132 63.9057 186.132C64.209 186.132 64.4587 186.097 64.6547 186.027C64.8507 185.952 65.0117 185.871 65.1377 185.782C65.2683 185.693 65.3757 185.614 65.4597 185.544C65.5483 185.469 65.6347 185.432 65.7187 185.432C65.8213 185.432 65.9007 185.472 65.9567 185.551L66.3067 186.006C66.1527 186.197 65.9777 186.361 65.7817 186.496C65.5857 186.631 65.3733 186.746 65.1447 186.839C64.9207 186.928 64.685 186.993 64.4377 187.035C64.1903 187.077 63.9383 187.098 63.6817 187.098C63.2383 187.098 62.8253 187.016 62.4427 186.853C62.0647 186.69 61.7357 186.454 61.4557 186.146C61.1757 185.833 60.9563 185.451 60.7977 184.998C60.639 184.545 60.5597 184.03 60.5597 183.451C60.5597 182.924 60.632 182.436 60.7767 181.988C60.926 181.54 61.1407 181.155 61.4207 180.833C61.7053 180.506 62.053 180.252 62.4637 180.07C62.879 179.888 63.355 179.797 63.8917 179.797C64.391 179.797 64.8297 179.879 65.2077 180.042C65.5903 180.201 65.9287 180.427 66.2227 180.721L65.8937 181.169ZM72.4562 181.169C72.4188 181.22 72.3815 181.26 72.3442 181.288C72.3068 181.316 72.2555 181.33 72.1902 181.33C72.1202 181.33 72.0432 181.302 71.9592 181.246C71.8752 181.185 71.7702 181.12 71.6442 181.05C71.5228 180.98 71.3712 180.917 71.1892 180.861C71.0118 180.8 70.7925 180.77 70.5312 180.77C70.1812 180.77 69.8732 180.833 69.6072 180.959C69.3412 181.08 69.1172 181.258 68.9352 181.491C68.7578 181.724 68.6225 182.007 68.5292 182.338C68.4405 182.669 68.3962 183.04 68.3962 183.451C68.3962 183.88 68.4452 184.263 68.5432 184.599C68.6412 184.93 68.7788 185.21 68.9562 185.439C69.1382 185.663 69.3552 185.836 69.6072 185.957C69.8638 186.074 70.1508 186.132 70.4682 186.132C70.7715 186.132 71.0212 186.097 71.2172 186.027C71.4132 185.952 71.5742 185.871 71.7002 185.782C71.8308 185.693 71.9382 185.614 72.0222 185.544C72.1108 185.469 72.1972 185.432 72.2812 185.432C72.3838 185.432 72.4632 185.472 72.5192 185.551L72.8692 186.006C72.7152 186.197 72.5402 186.361 72.3442 186.496C72.1482 186.631 71.9358 186.746 71.7072 186.839C71.4832 186.928 71.2475 186.993 71.0002 187.035C70.7528 187.077 70.5008 187.098 70.2442 187.098C69.8008 187.098 69.3878 187.016 69.0052 186.853C68.6272 186.69 68.2982 186.454 68.0182 186.146C67.7382 185.833 67.5188 185.451 67.3602 184.998C67.2015 184.545 67.1222 184.03 67.1222 183.451C67.1222 182.924 67.1945 182.436 67.3392 181.988C67.4885 181.54 67.7032 181.155 67.9832 180.833C68.2678 180.506 68.6155 180.252 69.0262 180.07C69.4415 179.888 69.9175 179.797 70.4542 179.797C70.9535 179.797 71.3922 179.879 71.7702 180.042C72.1528 180.201 72.4912 180.427 72.7852 180.721L72.4562 181.169ZM78.8297 182.681C78.8297 182.392 78.7877 182.128 78.7037 181.89C78.6243 181.647 78.5053 181.44 78.3467 181.267C78.1927 181.09 78.0037 180.954 77.7797 180.861C77.5557 180.763 77.3013 180.714 77.0167 180.714C76.4193 180.714 75.9457 180.889 75.5957 181.239C75.2503 181.584 75.0357 182.065 74.9517 182.681H78.8297ZM79.8377 186.006C79.6837 186.193 79.4993 186.356 79.2847 186.496C79.07 186.631 78.839 186.743 78.5917 186.832C78.349 186.921 78.097 186.986 77.8357 187.028C77.5743 187.075 77.3153 187.098 77.0587 187.098C76.5687 187.098 76.116 187.016 75.7007 186.853C75.29 186.685 74.933 186.442 74.6297 186.125C74.331 185.803 74.0977 185.406 73.9297 184.935C73.7617 184.464 73.6777 183.922 73.6777 183.311C73.6777 182.816 73.7523 182.354 73.9017 181.925C74.0557 181.496 74.275 181.125 74.5597 180.812C74.8443 180.495 75.192 180.247 75.6027 180.07C76.0133 179.888 76.4753 179.797 76.9887 179.797C77.4133 179.797 77.8053 179.869 78.1647 180.014C78.5287 180.154 78.8413 180.359 79.1027 180.63C79.3687 180.896 79.5763 181.227 79.7257 181.624C79.875 182.016 79.9497 182.464 79.9497 182.968C79.9497 183.164 79.9287 183.295 79.8867 183.36C79.8447 183.425 79.7653 183.458 79.6487 183.458H74.9097C74.9237 183.906 74.9843 184.296 75.0917 184.627C75.2037 184.958 75.3577 185.236 75.5537 185.46C75.7497 185.679 75.983 185.845 76.2537 185.957C76.5243 186.064 76.8277 186.118 77.1637 186.118C77.4763 186.118 77.7447 186.083 77.9687 186.013C78.1973 185.938 78.3933 185.859 78.5567 185.775C78.72 185.691 78.8553 185.614 78.9627 185.544C79.0747 185.469 79.1703 185.432 79.2497 185.432C79.3523 185.432 79.4317 185.472 79.4877 185.551L79.8377 186.006ZM85.6102 181.078C85.5542 181.181 85.4678 181.232 85.3512 181.232C85.2812 181.232 85.2018 181.206 85.1132 181.155C85.0245 181.104 84.9148 181.048 84.7842 180.987C84.6582 180.922 84.5065 180.863 84.3292 180.812C84.1518 180.756 83.9418 180.728 83.6992 180.728C83.4892 180.728 83.3002 180.756 83.1322 180.812C82.9642 180.863 82.8195 180.936 82.6982 181.029C82.5815 181.122 82.4905 181.232 82.4252 181.358C82.3645 181.479 82.3342 181.612 82.3342 181.757C82.3342 181.939 82.3855 182.091 82.4882 182.212C82.5955 182.333 82.7355 182.438 82.9082 182.527C83.0808 182.616 83.2768 182.695 83.4962 182.765C83.7155 182.83 83.9395 182.903 84.1682 182.982C84.4015 183.057 84.6278 183.141 84.8472 183.234C85.0665 183.327 85.2625 183.444 85.4352 183.584C85.6078 183.724 85.7455 183.897 85.8482 184.102C85.9555 184.303 86.0092 184.545 86.0092 184.83C86.0092 185.157 85.9508 185.46 85.8342 185.74C85.7175 186.015 85.5448 186.256 85.3162 186.461C85.0875 186.662 84.8075 186.82 84.4762 186.937C84.1448 187.054 83.7622 187.112 83.3282 187.112C82.8335 187.112 82.3855 187.033 81.9842 186.874C81.5828 186.711 81.2422 186.503 80.9622 186.251L81.2562 185.775C81.2935 185.714 81.3378 185.668 81.3892 185.635C81.4405 185.602 81.5058 185.586 81.5852 185.586C81.6692 185.586 81.7578 185.619 81.8512 185.684C81.9445 185.749 82.0565 185.822 82.1872 185.901C82.3225 185.98 82.4858 186.053 82.6772 186.118C82.8685 186.183 83.1065 186.216 83.3912 186.216C83.6338 186.216 83.8462 186.186 84.0282 186.125C84.2102 186.06 84.3618 185.973 84.4832 185.866C84.6045 185.759 84.6932 185.635 84.7492 185.495C84.8098 185.355 84.8402 185.206 84.8402 185.047C84.8402 184.851 84.7865 184.69 84.6792 184.564C84.5765 184.433 84.4388 184.324 84.2662 184.235C84.0935 184.142 83.8952 184.062 83.6712 183.997C83.4518 183.927 83.2255 183.855 82.9922 183.78C82.7635 183.705 82.5372 183.621 82.3132 183.528C82.0938 183.43 81.8978 183.309 81.7252 183.164C81.5525 183.019 81.4125 182.842 81.3052 182.632C81.2025 182.417 81.1512 182.158 81.1512 181.855C81.1512 181.584 81.2072 181.325 81.3192 181.078C81.4312 180.826 81.5945 180.607 81.8092 180.42C82.0238 180.229 82.2875 180.077 82.6002 179.965C82.9128 179.853 83.2698 179.797 83.6712 179.797C84.1378 179.797 84.5555 179.872 84.9242 180.021C85.2975 180.166 85.6195 180.366 85.8902 180.623L85.6102 181.078ZM91.6668 181.078C91.6108 181.181 91.5245 181.232 91.4078 181.232C91.3378 181.232 91.2585 181.206 91.1698 181.155C91.0811 181.104 90.9715 181.048 90.8408 180.987C90.7148 180.922 90.5631 180.863 90.3858 180.812C90.2085 180.756 89.9985 180.728 89.7558 180.728C89.5458 180.728 89.3568 180.756 89.1888 180.812C89.0208 180.863 88.8761 180.936 88.7548 181.029C88.6381 181.122 88.5471 181.232 88.4818 181.358C88.4211 181.479 88.3908 181.612 88.3908 181.757C88.3908 181.939 88.4421 182.091 88.5448 182.212C88.6521 182.333 88.7921 182.438 88.9648 182.527C89.1375 182.616 89.3335 182.695 89.5528 182.765C89.7721 182.83 89.9961 182.903 90.2248 182.982C90.4581 183.057 90.6845 183.141 90.9038 183.234C91.1231 183.327 91.3191 183.444 91.4918 183.584C91.6645 183.724 91.8021 183.897 91.9048 184.102C92.0121 184.303 92.0658 184.545 92.0658 184.83C92.0658 185.157 92.0075 185.46 91.8908 185.74C91.7741 186.015 91.6015 186.256 91.3728 186.461C91.1441 186.662 90.8641 186.82 90.5328 186.937C90.2015 187.054 89.8188 187.112 89.3848 187.112C88.8901 187.112 88.4421 187.033 88.0408 186.874C87.6395 186.711 87.2988 186.503 87.0188 186.251L87.3128 185.775C87.3501 185.714 87.3945 185.668 87.4458 185.635C87.4971 185.602 87.5625 185.586 87.6418 185.586C87.7258 185.586 87.8145 185.619 87.9078 185.684C88.0011 185.749 88.1131 185.822 88.2438 185.901C88.3791 185.98 88.5425 186.053 88.7338 186.118C88.9251 186.183 89.1631 186.216 89.4478 186.216C89.6905 186.216 89.9028 186.186 90.0848 186.125C90.2668 186.06 90.4185 185.973 90.5398 185.866C90.6611 185.759 90.7498 185.635 90.8058 185.495C90.8665 185.355 90.8968 185.206 90.8968 185.047C90.8968 184.851 90.8431 184.69 90.7358 184.564C90.6331 184.433 90.4955 184.324 90.3228 184.235C90.1501 184.142 89.9518 184.062 89.7278 183.997C89.5085 183.927 89.2821 183.855 89.0488 183.78C88.8201 183.705 88.5938 183.621 88.3698 183.528C88.1505 183.43 87.9545 183.309 87.7818 183.164C87.6091 183.019 87.4691 182.842 87.3618 182.632C87.2591 182.417 87.2078 182.158 87.2078 181.855C87.2078 181.584 87.2638 181.325 87.3758 181.078C87.4878 180.826 87.6511 180.607 87.8658 180.42C88.0805 180.229 88.3441 180.077 88.6568 179.965C88.9695 179.853 89.3265 179.797 89.7278 179.797C90.1945 179.797 90.6121 179.872 90.9808 180.021C91.3541 180.166 91.6761 180.366 91.9468 180.623L91.6668 181.078ZM102.938 179.909L98.983 189.093C98.941 189.186 98.8873 189.261 98.822 189.317C98.7613 189.373 98.6657 189.401 98.535 189.401H97.611L98.906 186.587L95.98 179.909H97.058C97.1653 179.909 97.2493 179.937 97.31 179.993C97.3753 180.044 97.4197 180.103 97.443 180.168L99.34 184.634C99.4147 184.83 99.4777 185.035 99.529 185.25C99.5943 185.031 99.6643 184.823 99.739 184.627L101.58 180.168C101.608 180.093 101.655 180.033 101.72 179.986C101.79 179.935 101.867 179.909 101.951 179.909H102.938ZM106.836 179.797C107.354 179.797 107.821 179.883 108.236 180.056C108.652 180.229 109.006 180.474 109.3 180.791C109.594 181.108 109.818 181.493 109.972 181.946C110.131 182.394 110.21 182.896 110.21 183.451C110.21 184.011 110.131 184.515 109.972 184.963C109.818 185.411 109.594 185.794 109.3 186.111C109.006 186.428 108.652 186.673 108.236 186.846C107.821 187.014 107.354 187.098 106.836 187.098C106.314 187.098 105.842 187.014 105.422 186.846C105.007 186.673 104.652 186.428 104.358 186.111C104.064 185.794 103.838 185.411 103.679 184.963C103.525 184.515 103.448 184.011 103.448 183.451C103.448 182.896 103.525 182.394 103.679 181.946C103.838 181.493 104.064 181.108 104.358 180.791C104.652 180.474 105.007 180.229 105.422 180.056C105.842 179.883 106.314 179.797 106.836 179.797ZM106.836 186.125C107.536 186.125 108.059 185.892 108.404 185.425C108.75 184.954 108.922 184.298 108.922 183.458C108.922 182.613 108.75 181.955 108.404 181.484C108.059 181.013 107.536 180.777 106.836 180.777C106.482 180.777 106.171 180.838 105.905 180.959C105.644 181.08 105.425 181.255 105.247 181.484C105.075 181.713 104.944 181.995 104.855 182.331C104.771 182.662 104.729 183.038 104.729 183.458C104.729 184.298 104.902 184.954 105.247 185.425C105.597 185.892 106.127 186.125 106.836 186.125ZM117.622 179.909V187H116.88C116.702 187 116.59 186.914 116.544 186.741L116.446 185.978C116.138 186.319 115.792 186.594 115.41 186.804C115.027 187.009 114.588 187.112 114.094 187.112C113.706 187.112 113.363 187.049 113.065 186.923C112.771 186.792 112.523 186.61 112.323 186.377C112.122 186.144 111.97 185.861 111.868 185.53C111.77 185.199 111.721 184.832 111.721 184.431V179.909H112.967V184.431C112.967 184.968 113.088 185.383 113.331 185.677C113.578 185.971 113.954 186.118 114.458 186.118C114.826 186.118 115.169 186.032 115.487 185.859C115.809 185.682 116.105 185.439 116.376 185.131V179.909H117.622ZM120.78 181.33C121.004 180.845 121.28 180.467 121.606 180.196C121.933 179.921 122.332 179.783 122.803 179.783C122.953 179.783 123.095 179.799 123.23 179.832C123.37 179.865 123.494 179.916 123.601 179.986L123.51 180.917C123.482 181.034 123.412 181.092 123.3 181.092C123.235 181.092 123.139 181.078 123.013 181.05C122.887 181.022 122.745 181.008 122.586 181.008C122.362 181.008 122.162 181.041 121.984 181.106C121.812 181.171 121.655 181.269 121.515 181.4C121.38 181.526 121.256 181.685 121.144 181.876C121.037 182.063 120.939 182.277 120.85 182.52V187H119.597V179.909H120.311C120.447 179.909 120.54 179.935 120.591 179.986C120.643 180.037 120.678 180.126 120.696 180.252L120.78 181.33ZM131.821 183.808C131.247 183.827 130.757 183.873 130.351 183.948C129.95 184.018 129.621 184.111 129.364 184.228C129.112 184.345 128.928 184.482 128.811 184.641C128.699 184.8 128.643 184.977 128.643 185.173C128.643 185.36 128.674 185.521 128.734 185.656C128.795 185.791 128.877 185.903 128.979 185.992C129.087 186.076 129.21 186.139 129.35 186.181C129.495 186.218 129.649 186.237 129.812 186.237C130.032 186.237 130.232 186.216 130.414 186.174C130.596 186.127 130.767 186.062 130.925 185.978C131.089 185.894 131.243 185.794 131.387 185.677C131.537 185.56 131.681 185.427 131.821 185.278V183.808ZM127.796 180.91C128.188 180.532 128.611 180.25 129.063 180.063C129.516 179.876 130.018 179.783 130.568 179.783C130.965 179.783 131.317 179.848 131.625 179.979C131.933 180.11 132.192 180.292 132.402 180.525C132.612 180.758 132.771 181.041 132.878 181.372C132.986 181.703 133.039 182.067 133.039 182.464V187H132.486C132.365 187 132.272 186.981 132.206 186.944C132.141 186.902 132.09 186.823 132.052 186.706L131.912 186.034C131.726 186.207 131.544 186.361 131.366 186.496C131.189 186.627 131.002 186.739 130.806 186.832C130.61 186.921 130.4 186.988 130.176 187.035C129.957 187.086 129.712 187.112 129.441 187.112C129.166 187.112 128.907 187.075 128.664 187C128.422 186.921 128.209 186.804 128.027 186.65C127.85 186.496 127.708 186.302 127.6 186.069C127.498 185.831 127.446 185.551 127.446 185.229C127.446 184.949 127.523 184.681 127.677 184.424C127.831 184.163 128.081 183.932 128.426 183.731C128.772 183.53 129.222 183.367 129.777 183.241C130.333 183.11 131.014 183.036 131.821 183.017V182.464C131.821 181.913 131.702 181.498 131.464 181.218C131.226 180.933 130.879 180.791 130.421 180.791C130.113 180.791 129.854 180.831 129.644 180.91C129.439 180.985 129.259 181.071 129.105 181.169C128.956 181.262 128.825 181.349 128.713 181.428C128.606 181.503 128.499 181.54 128.391 181.54C128.307 181.54 128.235 181.519 128.174 181.477C128.114 181.43 128.062 181.374 128.02 181.309L127.796 180.91ZM139.872 181.169C139.835 181.22 139.798 181.26 139.76 181.288C139.723 181.316 139.672 181.33 139.606 181.33C139.536 181.33 139.459 181.302 139.375 181.246C139.291 181.185 139.186 181.12 139.06 181.05C138.939 180.98 138.787 180.917 138.605 180.861C138.428 180.8 138.209 180.77 137.947 180.77C137.597 180.77 137.289 180.833 137.023 180.959C136.757 181.08 136.533 181.258 136.351 181.491C136.174 181.724 136.039 182.007 135.945 182.338C135.857 182.669 135.812 183.04 135.812 183.451C135.812 183.88 135.861 184.263 135.959 184.599C136.057 184.93 136.195 185.21 136.372 185.439C136.554 185.663 136.771 185.836 137.023 185.957C137.28 186.074 137.567 186.132 137.884 186.132C138.188 186.132 138.437 186.097 138.633 186.027C138.829 185.952 138.99 185.871 139.116 185.782C139.247 185.693 139.354 185.614 139.438 185.544C139.527 185.469 139.613 185.432 139.697 185.432C139.8 185.432 139.879 185.472 139.935 185.551L140.285 186.006C140.131 186.197 139.956 186.361 139.76 186.496C139.564 186.631 139.352 186.746 139.123 186.839C138.899 186.928 138.664 186.993 138.416 187.035C138.169 187.077 137.917 187.098 137.66 187.098C137.217 187.098 136.804 187.016 136.421 186.853C136.043 186.69 135.714 186.454 135.434 186.146C135.154 185.833 134.935 185.451 134.776 184.998C134.618 184.545 134.538 184.03 134.538 183.451C134.538 182.924 134.611 182.436 134.755 181.988C134.905 181.54 135.119 181.155 135.399 180.833C135.684 180.506 136.032 180.252 136.442 180.07C136.858 179.888 137.334 179.797 137.87 179.797C138.37 179.797 138.808 179.879 139.186 180.042C139.569 180.201 139.907 180.427 140.201 180.721L139.872 181.169ZM146.435 181.169C146.397 181.22 146.36 181.26 146.323 181.288C146.285 181.316 146.234 181.33 146.169 181.33C146.099 181.33 146.022 181.302 145.938 181.246C145.854 181.185 145.749 181.12 145.623 181.05C145.501 180.98 145.35 180.917 145.168 180.861C144.99 180.8 144.771 180.77 144.51 180.77C144.16 180.77 143.852 180.833 143.586 180.959C143.32 181.08 143.096 181.258 142.914 181.491C142.736 181.724 142.601 182.007 142.508 182.338C142.419 182.669 142.375 183.04 142.375 183.451C142.375 183.88 142.424 184.263 142.522 184.599C142.62 184.93 142.757 185.21 142.935 185.439C143.117 185.663 143.334 185.836 143.586 185.957C143.842 186.074 144.129 186.132 144.447 186.132C144.75 186.132 145 186.097 145.196 186.027C145.392 185.952 145.553 185.871 145.679 185.782C145.809 185.693 145.917 185.614 146.001 185.544C146.089 185.469 146.176 185.432 146.26 185.432C146.362 185.432 146.442 185.472 146.498 185.551L146.848 186.006C146.694 186.197 146.519 186.361 146.323 186.496C146.127 186.631 145.914 186.746 145.686 186.839C145.462 186.928 145.226 186.993 144.979 187.035C144.731 187.077 144.479 187.098 144.223 187.098C143.779 187.098 143.366 187.016 142.984 186.853C142.606 186.69 142.277 186.454 141.997 186.146C141.717 185.833 141.497 185.451 141.339 184.998C141.18 184.545 141.101 184.03 141.101 183.451C141.101 182.924 141.173 182.436 141.318 181.988C141.467 181.54 141.682 181.155 141.962 180.833C142.246 180.506 142.594 180.252 143.005 180.07C143.42 179.888 143.896 179.797 144.433 179.797C144.932 179.797 145.371 179.879 145.749 180.042C146.131 180.201 146.47 180.427 146.764 180.721L146.435 181.169ZM151.051 179.797C151.569 179.797 152.036 179.883 152.451 180.056C152.867 180.229 153.221 180.474 153.515 180.791C153.809 181.108 154.033 181.493 154.187 181.946C154.346 182.394 154.425 182.896 154.425 183.451C154.425 184.011 154.346 184.515 154.187 184.963C154.033 185.411 153.809 185.794 153.515 186.111C153.221 186.428 152.867 186.673 152.451 186.846C152.036 187.014 151.569 187.098 151.051 187.098C150.529 187.098 150.057 187.014 149.637 186.846C149.222 186.673 148.867 186.428 148.573 186.111C148.279 185.794 148.053 185.411 147.894 184.963C147.74 184.515 147.663 184.011 147.663 183.451C147.663 182.896 147.74 182.394 147.894 181.946C148.053 181.493 148.279 181.108 148.573 180.791C148.867 180.474 149.222 180.229 149.637 180.056C150.057 179.883 150.529 179.797 151.051 179.797ZM151.051 186.125C151.751 186.125 152.274 185.892 152.619 185.425C152.965 184.954 153.137 184.298 153.137 183.458C153.137 182.613 152.965 181.955 152.619 181.484C152.274 181.013 151.751 180.777 151.051 180.777C150.697 180.777 150.386 180.838 150.12 180.959C149.859 181.08 149.64 181.255 149.462 181.484C149.29 181.713 149.159 181.995 149.07 182.331C148.986 182.662 148.944 183.038 148.944 183.458C148.944 184.298 149.117 184.954 149.462 185.425C149.812 185.892 150.342 186.125 151.051 186.125ZM161.837 179.909V187H161.095C160.917 187 160.805 186.914 160.759 186.741L160.661 185.978C160.353 186.319 160.007 186.594 159.625 186.804C159.242 187.009 158.803 187.112 158.309 187.112C157.921 187.112 157.578 187.049 157.28 186.923C156.986 186.792 156.738 186.61 156.538 186.377C156.337 186.144 156.185 185.861 156.083 185.53C155.985 185.199 155.936 184.832 155.936 184.431V179.909H157.182V184.431C157.182 184.968 157.303 185.383 157.546 185.677C157.793 185.971 158.169 186.118 158.673 186.118C159.041 186.118 159.384 186.032 159.702 185.859C160.024 185.682 160.32 185.439 160.591 185.131V179.909H161.837ZM164.988 180.938C165.142 180.765 165.306 180.609 165.478 180.469C165.651 180.329 165.833 180.21 166.024 180.112C166.22 180.009 166.426 179.932 166.64 179.881C166.86 179.825 167.095 179.797 167.347 179.797C167.735 179.797 168.075 179.862 168.369 179.993C168.668 180.119 168.915 180.301 169.111 180.539C169.312 180.772 169.464 181.055 169.566 181.386C169.669 181.717 169.72 182.084 169.72 182.485V187H168.467V182.485C168.467 181.948 168.344 181.533 168.096 181.239C167.854 180.94 167.483 180.791 166.983 180.791C166.615 180.791 166.269 180.88 165.947 181.057C165.63 181.234 165.336 181.475 165.065 181.778V187H163.812V179.909H164.561C164.739 179.909 164.848 179.995 164.89 180.168L164.988 180.938ZM173.7 187.112C173.14 187.112 172.708 186.956 172.405 186.643C172.106 186.33 171.957 185.88 171.957 185.292V180.952H171.103C171.028 180.952 170.965 180.931 170.914 180.889C170.863 180.842 170.837 180.772 170.837 180.679V180.182L171.999 180.035L172.286 177.844C172.3 177.774 172.33 177.718 172.377 177.676C172.428 177.629 172.494 177.606 172.573 177.606H173.203V180.049H175.254V180.952H173.203V185.208C173.203 185.507 173.275 185.728 173.42 185.873C173.565 186.018 173.751 186.09 173.98 186.09C174.111 186.09 174.223 186.074 174.316 186.041C174.414 186.004 174.498 185.964 174.568 185.922C174.638 185.88 174.696 185.843 174.743 185.81C174.794 185.773 174.839 185.754 174.876 185.754C174.941 185.754 175 185.794 175.051 185.873L175.415 186.468C175.2 186.669 174.941 186.827 174.638 186.944C174.335 187.056 174.022 187.112 173.7 187.112ZM180.585 187V180.973L179.801 180.882C179.703 180.859 179.621 180.824 179.556 180.777C179.495 180.726 179.465 180.653 179.465 180.56V180.049H180.585V179.363C180.585 178.957 180.641 178.598 180.753 178.285C180.869 177.968 181.033 177.702 181.243 177.487C181.457 177.268 181.714 177.102 182.013 176.99C182.311 176.878 182.647 176.822 183.021 176.822C183.338 176.822 183.63 176.869 183.896 176.962L183.868 177.585C183.858 177.697 183.795 177.758 183.679 177.767C183.567 177.776 183.415 177.781 183.224 177.781C183.009 177.781 182.813 177.809 182.636 177.865C182.463 177.921 182.314 178.012 182.188 178.138C182.062 178.264 181.964 178.43 181.894 178.635C181.828 178.84 181.796 179.095 181.796 179.398V180.049H183.84V180.952H181.838V187H180.585ZM186.214 181.33C186.438 180.845 186.713 180.467 187.04 180.196C187.367 179.921 187.766 179.783 188.237 179.783C188.386 179.783 188.529 179.799 188.664 179.832C188.804 179.865 188.928 179.916 189.035 179.986L188.944 180.917C188.916 181.034 188.846 181.092 188.734 181.092C188.669 181.092 188.573 181.078 188.447 181.05C188.321 181.022 188.179 181.008 188.02 181.008C187.796 181.008 187.595 181.041 187.418 181.106C187.245 181.171 187.089 181.269 186.949 181.4C186.814 181.526 186.69 181.685 186.578 181.876C186.471 182.063 186.373 182.277 186.284 182.52V187H185.031V179.909H185.745C185.88 179.909 185.974 179.935 186.025 179.986C186.076 180.037 186.111 180.126 186.13 180.252L186.214 181.33ZM192.832 179.797C193.35 179.797 193.817 179.883 194.232 180.056C194.648 180.229 195.002 180.474 195.296 180.791C195.59 181.108 195.814 181.493 195.968 181.946C196.127 182.394 196.206 182.896 196.206 183.451C196.206 184.011 196.127 184.515 195.968 184.963C195.814 185.411 195.59 185.794 195.296 186.111C195.002 186.428 194.648 186.673 194.232 186.846C193.817 187.014 193.35 187.098 192.832 187.098C192.31 187.098 191.838 187.014 191.418 186.846C191.003 186.673 190.648 186.428 190.354 186.111C190.06 185.794 189.834 185.411 189.675 184.963C189.521 184.515 189.444 184.011 189.444 183.451C189.444 182.896 189.521 182.394 189.675 181.946C189.834 181.493 190.06 181.108 190.354 180.791C190.648 180.474 191.003 180.229 191.418 180.056C191.838 179.883 192.31 179.797 192.832 179.797ZM192.832 186.125C193.532 186.125 194.055 185.892 194.4 185.425C194.746 184.954 194.918 184.298 194.918 183.458C194.918 182.613 194.746 181.955 194.4 181.484C194.055 181.013 193.532 180.777 192.832 180.777C192.478 180.777 192.167 180.838 191.901 180.959C191.64 181.08 191.421 181.255 191.243 181.484C191.071 181.713 190.94 181.995 190.851 182.331C190.767 182.662 190.725 183.038 190.725 183.458C190.725 184.298 190.898 184.954 191.243 185.425C191.593 185.892 192.123 186.125 192.832 186.125ZM197.787 187V179.909H198.536C198.713 179.909 198.823 179.995 198.865 180.168L198.956 180.896C199.217 180.574 199.511 180.31 199.838 180.105C200.164 179.9 200.542 179.797 200.972 179.797C201.448 179.797 201.833 179.93 202.127 180.196C202.425 180.462 202.64 180.821 202.771 181.274C202.873 181.017 203.004 180.796 203.163 180.609C203.326 180.422 203.508 180.268 203.709 180.147C203.909 180.026 204.122 179.937 204.346 179.881C204.574 179.825 204.805 179.797 205.039 179.797C205.412 179.797 205.743 179.858 206.033 179.979C206.327 180.096 206.574 180.268 206.775 180.497C206.98 180.726 207.136 181.008 207.244 181.344C207.351 181.675 207.405 182.056 207.405 182.485V187H206.152V182.485C206.152 181.93 206.03 181.51 205.788 181.225C205.545 180.936 205.195 180.791 204.738 180.791C204.532 180.791 204.336 180.828 204.15 180.903C203.968 180.973 203.807 181.078 203.667 181.218C203.527 181.358 203.415 181.535 203.331 181.75C203.251 181.96 203.212 182.205 203.212 182.485V187H201.959V182.485C201.959 181.916 201.844 181.491 201.616 181.211C201.387 180.931 201.053 180.791 200.615 180.791C200.307 180.791 200.022 180.875 199.761 181.043C199.499 181.206 199.259 181.43 199.04 181.715V187H197.787ZM43.5693 200.808C42.9953 200.827 42.5053 200.873 42.0993 200.948C41.6979 201.018 41.3689 201.111 41.1123 201.228C40.8603 201.345 40.6759 201.482 40.5593 201.641C40.4473 201.8 40.3913 201.977 40.3913 202.173C40.3913 202.36 40.4216 202.521 40.4823 202.656C40.5429 202.791 40.6246 202.903 40.7273 202.992C40.8346 203.076 40.9583 203.139 41.0983 203.181C41.2429 203.218 41.3969 203.237 41.5603 203.237C41.7796 203.237 41.9803 203.216 42.1623 203.174C42.3443 203.127 42.5146 203.062 42.6733 202.978C42.8366 202.894 42.9906 202.794 43.1353 202.677C43.2846 202.56 43.4293 202.427 43.5693 202.278V200.808ZM39.5443 197.91C39.9363 197.532 40.3586 197.25 40.8113 197.063C41.2639 196.876 41.7656 196.783 42.3163 196.783C42.7129 196.783 43.0653 196.848 43.3733 196.979C43.6813 197.11 43.9403 197.292 44.1503 197.525C44.3603 197.758 44.5189 198.041 44.6263 198.372C44.7336 198.703 44.7873 199.067 44.7873 199.464V204H44.2343C44.1129 204 44.0196 203.981 43.9543 203.944C43.8889 203.902 43.8376 203.823 43.8003 203.706L43.6603 203.034C43.4736 203.207 43.2916 203.361 43.1143 203.496C42.9369 203.627 42.7503 203.739 42.5543 203.832C42.3583 203.921 42.1483 203.988 41.9243 204.035C41.7049 204.086 41.4599 204.112 41.1893 204.112C40.9139 204.112 40.6549 204.075 40.4123 204C40.1696 203.921 39.9573 203.804 39.7753 203.65C39.5979 203.496 39.4556 203.302 39.3483 203.069C39.2456 202.831 39.1943 202.551 39.1943 202.229C39.1943 201.949 39.2713 201.681 39.4253 201.424C39.5793 201.163 39.8289 200.932 40.1743 200.731C40.5196 200.53 40.9699 200.367 41.5253 200.241C42.0806 200.11 42.7619 200.036 43.5693 200.017V199.464C43.5693 198.913 43.4503 198.498 43.2123 198.218C42.9743 197.933 42.6266 197.791 42.1693 197.791C41.8613 197.791 41.6023 197.831 41.3923 197.91C41.1869 197.985 41.0073 198.071 40.8533 198.169C40.7039 198.262 40.5733 198.349 40.4613 198.428C40.3539 198.503 40.2466 198.54 40.1393 198.54C40.0553 198.54 39.9829 198.519 39.9223 198.477C39.8616 198.43 39.8103 198.374 39.7683 198.309L39.5443 197.91ZM47.8612 197.938C48.0152 197.765 48.1786 197.609 48.3512 197.469C48.5239 197.329 48.7059 197.21 48.8972 197.112C49.0932 197.009 49.2986 196.932 49.5132 196.881C49.7326 196.825 49.9682 196.797 50.2202 196.797C50.6076 196.797 50.9482 196.862 51.2422 196.993C51.5409 197.119 51.7882 197.301 51.9842 197.539C52.1849 197.772 52.3366 198.055 52.4392 198.386C52.5419 198.717 52.5932 199.084 52.5932 199.485V204H51.3402V199.485C51.3402 198.948 51.2166 198.533 50.9692 198.239C50.7266 197.94 50.3556 197.791 49.8562 197.791C49.4876 197.791 49.1422 197.88 48.8202 198.057C48.5029 198.234 48.2089 198.475 47.9382 198.778V204H46.6852V196.909H47.4342C47.6116 196.909 47.7212 196.995 47.7632 197.168L47.8612 197.938ZM60.4321 196.909L56.4771 206.093C56.4351 206.186 56.3815 206.261 56.3161 206.317C56.2555 206.373 56.1598 206.401 56.0291 206.401H55.1051L56.4001 203.587L53.4741 196.909H54.5521C54.6595 196.909 54.7435 196.937 54.8041 196.993C54.8695 197.044 54.9138 197.103 54.9371 197.168L56.8341 201.634C56.9088 201.83 56.9718 202.035 57.0231 202.25C57.0885 202.031 57.1585 201.823 57.2331 201.627L59.0741 197.168C59.1021 197.093 59.1488 197.033 59.2141 196.986C59.2841 196.935 59.3611 196.909 59.4451 196.909H60.4321ZM71.3119 196.909L69.0159 204H68.0289C67.9076 204 67.8236 203.921 67.7769 203.762L66.2089 198.953C66.1716 198.846 66.1412 198.738 66.1179 198.631C66.0946 198.519 66.0712 198.409 66.0479 198.302C66.0246 198.409 66.0012 198.519 65.9779 198.631C65.9546 198.738 65.9242 198.848 65.8869 198.96L64.2909 203.762C64.2489 203.921 64.1556 204 64.0109 204H63.0729L60.7769 196.909H61.7569C61.8549 196.909 61.9366 196.935 62.0019 196.986C62.0719 197.037 62.1186 197.098 62.1419 197.168L63.4999 201.732C63.5792 202.068 63.6422 202.385 63.6889 202.684C63.7309 202.53 63.7729 202.374 63.8149 202.215C63.8616 202.056 63.9106 201.895 63.9619 201.732L65.4599 197.14C65.4832 197.07 65.5229 197.012 65.5789 196.965C65.6396 196.918 65.7119 196.895 65.7959 196.895H66.3419C66.4352 196.895 66.5122 196.918 66.5729 196.965C66.6336 197.012 66.6756 197.07 66.6989 197.14L68.1619 201.732C68.2132 201.895 68.2599 202.056 68.3019 202.215C68.3439 202.374 68.3836 202.53 68.4209 202.684C68.4442 202.53 68.4722 202.376 68.5049 202.222C68.5422 202.063 68.5819 201.9 68.6239 201.732L70.0099 197.168C70.0332 197.093 70.0776 197.033 70.1429 196.986C70.2082 196.935 70.2852 196.909 70.3739 196.909H71.3119ZM73.7781 197.854C74.0814 197.532 74.4174 197.275 74.7861 197.084C75.1548 196.893 75.5794 196.797 76.0601 196.797C76.4474 196.797 76.7881 196.862 77.0821 196.993C77.3808 197.119 77.6281 197.301 77.8241 197.539C78.0248 197.772 78.1764 198.055 78.2791 198.386C78.3818 198.717 78.4331 199.084 78.4331 199.485V204H77.1801V199.485C77.1801 198.948 77.0564 198.533 76.8091 198.239C76.5664 197.94 76.1954 197.791 75.6961 197.791C75.3274 197.791 74.9821 197.88 74.6601 198.057C74.3428 198.234 74.0488 198.475 73.7781 198.778V204H72.5251V193.689H73.7781V197.854ZM85.0777 199.681C85.0777 199.392 85.0357 199.128 84.9517 198.89C84.8724 198.647 84.7534 198.44 84.5947 198.267C84.4407 198.09 84.2517 197.954 84.0277 197.861C83.8037 197.763 83.5494 197.714 83.2647 197.714C82.6674 197.714 82.1937 197.889 81.8437 198.239C81.4984 198.584 81.2837 199.065 81.1997 199.681H85.0777ZM86.0857 203.006C85.9317 203.193 85.7474 203.356 85.5327 203.496C85.3181 203.631 85.0871 203.743 84.8397 203.832C84.5971 203.921 84.3451 203.986 84.0837 204.028C83.8224 204.075 83.5634 204.098 83.3067 204.098C82.8167 204.098 82.3641 204.016 81.9487 203.853C81.5381 203.685 81.1811 203.442 80.8777 203.125C80.5791 202.803 80.3457 202.406 80.1777 201.935C80.0097 201.464 79.9257 200.922 79.9257 200.311C79.9257 199.816 80.0004 199.354 80.1497 198.925C80.3037 198.496 80.5231 198.125 80.8077 197.812C81.0924 197.495 81.4401 197.247 81.8507 197.07C82.2614 196.888 82.7234 196.797 83.2367 196.797C83.6614 196.797 84.0534 196.869 84.4127 197.014C84.7767 197.154 85.0894 197.359 85.3507 197.63C85.6167 197.896 85.8244 198.227 85.9737 198.624C86.1231 199.016 86.1977 199.464 86.1977 199.968C86.1977 200.164 86.1767 200.295 86.1347 200.36C86.0927 200.425 86.0134 200.458 85.8967 200.458H81.1577C81.1717 200.906 81.2324 201.296 81.3397 201.627C81.4517 201.958 81.6057 202.236 81.8017 202.46C81.9977 202.679 82.2311 202.845 82.5017 202.957C82.7724 203.064 83.0757 203.118 83.4117 203.118C83.7244 203.118 83.9927 203.083 84.2167 203.013C84.4454 202.938 84.6414 202.859 84.8047 202.775C84.9681 202.691 85.1034 202.614 85.2107 202.544C85.3227 202.469 85.4184 202.432 85.4977 202.432C85.6004 202.432 85.6797 202.472 85.7357 202.551L86.0857 203.006ZM88.9112 198.33C89.1352 197.845 89.4105 197.467 89.7372 197.196C90.0639 196.921 90.4629 196.783 90.9342 196.783C91.0835 196.783 91.2259 196.799 91.3612 196.832C91.5012 196.865 91.6249 196.916 91.7322 196.986L91.6412 197.917C91.6132 198.034 91.5432 198.092 91.4312 198.092C91.3659 198.092 91.2702 198.078 91.1442 198.05C91.0182 198.022 90.8759 198.008 90.7172 198.008C90.4932 198.008 90.2925 198.041 90.1152 198.106C89.9425 198.171 89.7862 198.269 89.6462 198.4C89.5109 198.526 89.3872 198.685 89.2752 198.876C89.1679 199.063 89.0699 199.277 88.9812 199.52V204H87.7282V196.909H88.4422C88.5775 196.909 88.6709 196.935 88.7222 196.986C88.7735 197.037 88.8085 197.126 88.8272 197.252L88.9112 198.33ZM97.2867 199.681C97.2867 199.392 97.2447 199.128 97.1607 198.89C97.0814 198.647 96.9624 198.44 96.8037 198.267C96.6497 198.09 96.4607 197.954 96.2367 197.861C96.0127 197.763 95.7584 197.714 95.4737 197.714C94.8764 197.714 94.4027 197.889 94.0527 198.239C93.7074 198.584 93.4927 199.065 93.4087 199.681H97.2867ZM98.2947 203.006C98.1407 203.193 97.9564 203.356 97.7417 203.496C97.527 203.631 97.296 203.743 97.0487 203.832C96.806 203.921 96.554 203.986 96.2927 204.028C96.0314 204.075 95.7724 204.098 95.5157 204.098C95.0257 204.098 94.573 204.016 94.1577 203.853C93.747 203.685 93.39 203.442 93.0867 203.125C92.788 202.803 92.5547 202.406 92.3867 201.935C92.2187 201.464 92.1347 200.922 92.1347 200.311C92.1347 199.816 92.2094 199.354 92.3587 198.925C92.5127 198.496 92.732 198.125 93.0167 197.812C93.3014 197.495 93.649 197.247 94.0597 197.07C94.4704 196.888 94.9324 196.797 95.4457 196.797C95.8704 196.797 96.2624 196.869 96.6217 197.014C96.9857 197.154 97.2984 197.359 97.5597 197.63C97.8257 197.896 98.0334 198.227 98.1827 198.624C98.332 199.016 98.4067 199.464 98.4067 199.968C98.4067 200.164 98.3857 200.295 98.3437 200.36C98.3017 200.425 98.2224 200.458 98.1057 200.458H93.3667C93.3807 200.906 93.4414 201.296 93.5487 201.627C93.6607 201.958 93.8147 202.236 94.0107 202.46C94.2067 202.679 94.44 202.845 94.7107 202.957C94.9814 203.064 95.2847 203.118 95.6207 203.118C95.9334 203.118 96.2017 203.083 96.4257 203.013C96.6544 202.938 96.8504 202.859 97.0137 202.775C97.177 202.691 97.3124 202.614 97.4197 202.544C97.5317 202.469 97.6274 202.432 97.7067 202.432C97.8094 202.432 97.8887 202.472 97.9447 202.551L98.2947 203.006ZM104.835 196.909V204H103.589V196.909H104.835ZM105.101 194.683C105.101 194.804 105.076 194.919 105.024 195.026C104.978 195.129 104.912 195.222 104.828 195.306C104.749 195.385 104.653 195.448 104.541 195.495C104.434 195.542 104.32 195.565 104.198 195.565C104.077 195.565 103.963 195.542 103.855 195.495C103.753 195.448 103.662 195.385 103.582 195.306C103.503 195.222 103.44 195.129 103.393 195.026C103.347 194.919 103.323 194.804 103.323 194.683C103.323 194.562 103.347 194.447 103.393 194.34C103.44 194.228 103.503 194.132 103.582 194.053C103.662 193.969 103.753 193.904 103.855 193.857C103.963 193.81 104.077 193.787 104.198 193.787C104.32 193.787 104.434 193.81 104.541 193.857C104.653 193.904 104.749 193.969 104.828 194.053C104.912 194.132 104.978 194.228 105.024 194.34C105.076 194.447 105.101 194.562 105.101 194.683ZM108.059 197.938C108.213 197.765 108.376 197.609 108.549 197.469C108.721 197.329 108.903 197.21 109.095 197.112C109.291 197.009 109.496 196.932 109.711 196.881C109.93 196.825 110.166 196.797 110.418 196.797C110.805 196.797 111.146 196.862 111.44 196.993C111.738 197.119 111.986 197.301 112.182 197.539C112.382 197.772 112.534 198.055 112.637 198.386C112.739 198.717 112.791 199.084 112.791 199.485V204H111.538V199.485C111.538 198.948 111.414 198.533 111.167 198.239C110.924 197.94 110.553 197.791 110.054 197.791C109.685 197.791 109.34 197.88 109.018 198.057C108.7 198.234 108.406 198.475 108.136 198.778V204H106.883V196.909H107.632C107.809 196.909 107.919 196.995 107.961 197.168L108.059 197.938ZM120.448 204.112C119.888 204.112 119.457 203.956 119.153 203.643C118.855 203.33 118.705 202.88 118.705 202.292V197.952H117.851C117.777 197.952 117.714 197.931 117.662 197.889C117.611 197.842 117.585 197.772 117.585 197.679V197.182L118.747 197.035L119.034 194.844C119.048 194.774 119.079 194.718 119.125 194.676C119.177 194.629 119.242 194.606 119.321 194.606H119.951V197.049H122.002V197.952H119.951V202.208C119.951 202.507 120.024 202.728 120.168 202.873C120.313 203.018 120.5 203.09 120.728 203.09C120.859 203.09 120.971 203.074 121.064 203.041C121.162 203.004 121.246 202.964 121.316 202.922C121.386 202.88 121.445 202.843 121.491 202.81C121.543 202.773 121.587 202.754 121.624 202.754C121.69 202.754 121.748 202.794 121.799 202.873L122.163 203.468C121.949 203.669 121.69 203.827 121.386 203.944C121.083 204.056 120.77 204.112 120.448 204.112ZM124.542 197.854C124.845 197.532 125.181 197.275 125.55 197.084C125.918 196.893 126.343 196.797 126.824 196.797C127.211 196.797 127.552 196.862 127.846 196.993C128.144 197.119 128.392 197.301 128.588 197.539C128.788 197.772 128.94 198.055 129.043 198.386C129.145 198.717 129.197 199.084 129.197 199.485V204H127.944V199.485C127.944 198.948 127.82 198.533 127.573 198.239C127.33 197.94 126.959 197.791 126.46 197.791C126.091 197.791 125.746 197.88 125.424 198.057C125.106 198.234 124.812 198.475 124.542 198.778V204H123.289V193.689H124.542V197.854ZM135.841 199.681C135.841 199.392 135.799 199.128 135.715 198.89C135.636 198.647 135.517 198.44 135.358 198.267C135.204 198.09 135.015 197.954 134.791 197.861C134.567 197.763 134.313 197.714 134.028 197.714C133.431 197.714 132.957 197.889 132.607 198.239C132.262 198.584 132.047 199.065 131.963 199.681H135.841ZM136.849 203.006C136.695 203.193 136.511 203.356 136.296 203.496C136.082 203.631 135.851 203.743 135.603 203.832C135.361 203.921 135.109 203.986 134.847 204.028C134.586 204.075 134.327 204.098 134.07 204.098C133.58 204.098 133.128 204.016 132.712 203.853C132.302 203.685 131.945 203.442 131.641 203.125C131.343 202.803 131.109 202.406 130.941 201.935C130.773 201.464 130.689 200.922 130.689 200.311C130.689 199.816 130.764 199.354 130.913 198.925C131.067 198.496 131.287 198.125 131.571 197.812C131.856 197.495 132.204 197.247 132.614 197.07C133.025 196.888 133.487 196.797 134 196.797C134.425 196.797 134.817 196.869 135.176 197.014C135.54 197.154 135.853 197.359 136.114 197.63C136.38 197.896 136.588 198.227 136.737 198.624C136.887 199.016 136.961 199.464 136.961 199.968C136.961 200.164 136.94 200.295 136.898 200.36C136.856 200.425 136.777 200.458 136.66 200.458H131.921C131.935 200.906 131.996 201.296 132.103 201.627C132.215 201.958 132.369 202.236 132.565 202.46C132.761 202.679 132.995 202.845 133.265 202.957C133.536 203.064 133.839 203.118 134.175 203.118C134.488 203.118 134.756 203.083 134.98 203.013C135.209 202.938 135.405 202.859 135.568 202.775C135.732 202.691 135.867 202.614 135.974 202.544C136.086 202.469 136.182 202.432 136.261 202.432C136.364 202.432 136.443 202.472 136.499 202.551L136.849 203.006ZM151.566 196.909L149.27 204H148.283C148.161 204 148.077 203.921 148.031 203.762L146.463 198.953C146.425 198.846 146.395 198.738 146.372 198.631C146.348 198.519 146.325 198.409 146.302 198.302C146.278 198.409 146.255 198.519 146.232 198.631C146.208 198.738 146.178 198.848 146.141 198.96L144.545 203.762C144.503 203.921 144.409 204 144.265 204H143.327L141.031 196.909H142.011C142.109 196.909 142.19 196.935 142.256 196.986C142.326 197.037 142.372 197.098 142.396 197.168L143.754 201.732C143.833 202.068 143.896 202.385 143.943 202.684C143.985 202.53 144.027 202.374 144.069 202.215C144.115 202.056 144.164 201.895 144.216 201.732L145.714 197.14C145.737 197.07 145.777 197.012 145.833 196.965C145.893 196.918 145.966 196.895 146.05 196.895H146.596C146.689 196.895 146.766 196.918 146.827 196.965C146.887 197.012 146.929 197.07 146.953 197.14L148.416 201.732C148.467 201.895 148.514 202.056 148.556 202.215C148.598 202.374 148.637 202.53 148.675 202.684C148.698 202.53 148.726 202.376 148.759 202.222C148.796 202.063 148.836 201.9 148.878 201.732L150.264 197.168C150.287 197.093 150.331 197.033 150.397 196.986C150.462 196.935 150.539 196.909 150.628 196.909H151.566ZM155.672 196.797C156.19 196.797 156.657 196.883 157.072 197.056C157.488 197.229 157.842 197.474 158.136 197.791C158.43 198.108 158.654 198.493 158.808 198.946C158.967 199.394 159.046 199.896 159.046 200.451C159.046 201.011 158.967 201.515 158.808 201.963C158.654 202.411 158.43 202.794 158.136 203.111C157.842 203.428 157.488 203.673 157.072 203.846C156.657 204.014 156.19 204.098 155.672 204.098C155.15 204.098 154.678 204.014 154.258 203.846C153.843 203.673 153.488 203.428 153.194 203.111C152.9 202.794 152.674 202.411 152.515 201.963C152.361 201.515 152.284 201.011 152.284 200.451C152.284 199.896 152.361 199.394 152.515 198.946C152.674 198.493 152.9 198.108 153.194 197.791C153.488 197.474 153.843 197.229 154.258 197.056C154.678 196.883 155.15 196.797 155.672 196.797ZM155.672 203.125C156.372 203.125 156.895 202.892 157.24 202.425C157.586 201.954 157.758 201.298 157.758 200.458C157.758 199.613 157.586 198.955 157.24 198.484C156.895 198.013 156.372 197.777 155.672 197.777C155.318 197.777 155.007 197.838 154.741 197.959C154.48 198.08 154.261 198.255 154.083 198.484C153.911 198.713 153.78 198.995 153.691 199.331C153.607 199.662 153.565 200.038 153.565 200.458C153.565 201.298 153.738 201.954 154.083 202.425C154.433 202.892 154.963 203.125 155.672 203.125ZM161.81 198.33C162.034 197.845 162.309 197.467 162.636 197.196C162.962 196.921 163.361 196.783 163.833 196.783C163.982 196.783 164.124 196.799 164.26 196.832C164.4 196.865 164.523 196.916 164.631 196.986L164.54 197.917C164.512 198.034 164.442 198.092 164.33 198.092C164.264 198.092 164.169 198.078 164.043 198.05C163.917 198.022 163.774 198.008 163.616 198.008C163.392 198.008 163.191 198.041 163.014 198.106C162.841 198.171 162.685 198.269 162.545 198.4C162.409 198.526 162.286 198.685 162.174 198.876C162.066 199.063 161.968 199.277 161.88 199.52V204H160.627V196.909H161.341C161.476 196.909 161.569 196.935 161.621 196.986C161.672 197.037 161.707 197.126 161.726 197.252L161.81 198.33ZM167.014 193.689V204H165.768V193.689H167.014ZM173.655 198.596C173.422 198.283 173.17 198.066 172.899 197.945C172.628 197.819 172.325 197.756 171.989 197.756C171.331 197.756 170.825 197.992 170.47 198.463C170.115 198.934 169.938 199.606 169.938 200.479C169.938 200.941 169.978 201.338 170.057 201.669C170.136 201.996 170.253 202.266 170.407 202.481C170.561 202.691 170.75 202.845 170.974 202.943C171.198 203.041 171.452 203.09 171.737 203.09C172.148 203.09 172.505 202.997 172.808 202.81C173.116 202.623 173.398 202.36 173.655 202.019V198.596ZM174.901 193.689V204H174.159C173.982 204 173.87 203.914 173.823 203.741L173.711 202.88C173.408 203.244 173.062 203.538 172.675 203.762C172.288 203.986 171.84 204.098 171.331 204.098C170.925 204.098 170.556 204.021 170.225 203.867C169.894 203.708 169.611 203.477 169.378 203.174C169.145 202.871 168.965 202.493 168.839 202.04C168.713 201.587 168.65 201.067 168.65 200.479C168.65 199.956 168.72 199.471 168.86 199.023C169 198.57 169.201 198.178 169.462 197.847C169.723 197.516 170.043 197.257 170.421 197.07C170.804 196.879 171.233 196.783 171.709 196.783C172.143 196.783 172.514 196.858 172.822 197.007C173.135 197.152 173.412 197.355 173.655 197.616V193.689H174.901ZM183.44 196.797C183.958 196.797 184.425 196.883 184.84 197.056C185.255 197.229 185.61 197.474 185.904 197.791C186.198 198.108 186.422 198.493 186.576 198.946C186.735 199.394 186.814 199.896 186.814 200.451C186.814 201.011 186.735 201.515 186.576 201.963C186.422 202.411 186.198 202.794 185.904 203.111C185.61 203.428 185.255 203.673 184.84 203.846C184.425 204.014 183.958 204.098 183.44 204.098C182.917 204.098 182.446 204.014 182.026 203.846C181.611 203.673 181.256 203.428 180.962 203.111C180.668 202.794 180.442 202.411 180.283 201.963C180.129 201.515 180.052 201.011 180.052 200.451C180.052 199.896 180.129 199.394 180.283 198.946C180.442 198.493 180.668 198.108 180.962 197.791C181.256 197.474 181.611 197.229 182.026 197.056C182.446 196.883 182.917 196.797 183.44 196.797ZM183.44 203.125C184.14 203.125 184.663 202.892 185.008 202.425C185.353 201.954 185.526 201.298 185.526 200.458C185.526 199.613 185.353 198.955 185.008 198.484C184.663 198.013 184.14 197.777 183.44 197.777C183.085 197.777 182.775 197.838 182.509 197.959C182.248 198.08 182.028 198.255 181.851 198.484C181.678 198.713 181.548 198.995 181.459 199.331C181.375 199.662 181.333 200.038 181.333 200.458C181.333 201.298 181.506 201.954 181.851 202.425C182.201 202.892 182.731 203.125 183.44 203.125ZM189.57 197.938C189.724 197.765 189.888 197.609 190.06 197.469C190.233 197.329 190.415 197.21 190.606 197.112C190.802 197.009 191.008 196.932 191.222 196.881C191.442 196.825 191.677 196.797 191.929 196.797C192.317 196.797 192.657 196.862 192.951 196.993C193.25 197.119 193.497 197.301 193.693 197.539C193.894 197.772 194.046 198.055 194.148 198.386C194.251 198.717 194.302 199.084 194.302 199.485V204H193.049V199.485C193.049 198.948 192.926 198.533 192.678 198.239C192.436 197.94 192.065 197.791 191.565 197.791C191.197 197.791 190.851 197.88 190.529 198.057C190.212 198.234 189.918 198.475 189.647 198.778V204H188.394V196.909H189.143C189.321 196.909 189.43 196.995 189.472 197.168L189.57 197.938ZM203.626 200.808C203.052 200.827 202.562 200.873 202.156 200.948C201.755 201.018 201.426 201.111 201.169 201.228C200.917 201.345 200.733 201.482 200.616 201.641C200.504 201.8 200.448 201.977 200.448 202.173C200.448 202.36 200.478 202.521 200.539 202.656C200.6 202.791 200.681 202.903 200.784 202.992C200.891 203.076 201.015 203.139 201.155 203.181C201.3 203.218 201.454 203.237 201.617 203.237C201.836 203.237 202.037 203.216 202.219 203.174C202.401 203.127 202.571 203.062 202.73 202.978C202.893 202.894 203.047 202.794 203.192 202.677C203.341 202.56 203.486 202.427 203.626 202.278V200.808ZM199.601 197.91C199.993 197.532 200.415 197.25 200.868 197.063C201.321 196.876 201.822 196.783 202.373 196.783C202.77 196.783 203.122 196.848 203.43 196.979C203.738 197.11 203.997 197.292 204.207 197.525C204.417 197.758 204.576 198.041 204.683 198.372C204.79 198.703 204.844 199.067 204.844 199.464V204H204.291C204.17 204 204.076 203.981 204.011 203.944C203.946 203.902 203.894 203.823 203.857 203.706L203.717 203.034C203.53 203.207 203.348 203.361 203.171 203.496C202.994 203.627 202.807 203.739 202.611 203.832C202.415 203.921 202.205 203.988 201.981 204.035C201.762 204.086 201.517 204.112 201.246 204.112C200.971 204.112 200.712 204.075 200.469 204C200.226 203.921 200.014 203.804 199.832 203.65C199.655 203.496 199.512 203.302 199.405 203.069C199.302 202.831 199.251 202.551 199.251 202.229C199.251 201.949 199.328 201.681 199.482 201.424C199.636 201.163 199.886 200.932 200.231 200.731C200.576 200.53 201.027 200.367 201.582 200.241C202.137 200.11 202.819 200.036 203.626 200.017V199.464C203.626 198.913 203.507 198.498 203.269 198.218C203.031 197.933 202.683 197.791 202.226 197.791C201.918 197.791 201.659 197.831 201.449 197.91C201.244 197.985 201.064 198.071 200.91 198.169C200.761 198.262 200.63 198.349 200.518 198.428C200.411 198.503 200.303 198.54 200.196 198.54C200.112 198.54 200.04 198.519 199.979 198.477C199.918 198.43 199.867 198.374 199.825 198.309L199.601 197.91ZM207.918 197.938C208.072 197.765 208.235 197.609 208.408 197.469C208.581 197.329 208.763 197.21 208.954 197.112C209.15 197.009 209.355 196.932 209.57 196.881C209.789 196.825 210.025 196.797 210.277 196.797C210.664 196.797 211.005 196.862 211.299 196.993C211.598 197.119 211.845 197.301 212.041 197.539C212.242 197.772 212.393 198.055 212.496 198.386C212.599 198.717 212.65 199.084 212.65 199.485V204H211.397V199.485C211.397 198.948 211.273 198.533 211.026 198.239C210.783 197.94 210.412 197.791 209.913 197.791C209.544 197.791 209.199 197.88 208.877 198.057C208.56 198.234 208.266 198.475 207.995 198.778V204H206.742V196.909H207.491C207.668 196.909 207.778 196.995 207.82 197.168L207.918 197.938ZM220.489 196.909L216.534 206.093C216.492 206.186 216.438 206.261 216.373 206.317C216.312 206.373 216.216 206.401 216.086 206.401H215.162L216.457 203.587L213.531 196.909H214.609C214.716 196.909 214.8 196.937 214.861 196.993C214.926 197.044 214.97 197.103 214.994 197.168L216.891 201.634C216.965 201.83 217.028 202.035 217.08 202.25C217.145 202.031 217.215 201.823 217.29 201.627L219.131 197.168C219.159 197.093 219.205 197.033 219.271 196.986C219.341 196.935 219.418 196.909 219.502 196.909H220.489ZM115.296 215.596C115.063 215.283 114.811 215.066 114.54 214.945C114.27 214.819 113.966 214.756 113.63 214.756C112.972 214.756 112.466 214.992 112.111 215.463C111.757 215.934 111.579 216.606 111.579 217.479C111.579 217.941 111.619 218.338 111.698 218.669C111.778 218.996 111.894 219.266 112.048 219.481C112.202 219.691 112.391 219.845 112.615 219.943C112.839 220.041 113.094 220.09 113.378 220.09C113.789 220.09 114.146 219.997 114.449 219.81C114.757 219.623 115.04 219.36 115.296 219.019V215.596ZM116.542 210.689V221H115.8C115.623 221 115.511 220.914 115.464 220.741L115.352 219.88C115.049 220.244 114.704 220.538 114.316 220.762C113.929 220.986 113.481 221.098 112.972 221.098C112.566 221.098 112.198 221.021 111.866 220.867C111.535 220.708 111.253 220.477 111.019 220.174C110.786 219.871 110.606 219.493 110.48 219.04C110.354 218.587 110.291 218.067 110.291 217.479C110.291 216.956 110.361 216.471 110.501 216.023C110.641 215.57 110.842 215.178 111.103 214.847C111.365 214.516 111.684 214.257 112.062 214.07C112.445 213.879 112.874 213.783 113.35 213.783C113.784 213.783 114.155 213.858 114.463 214.007C114.776 214.152 115.054 214.355 115.296 214.616V210.689H116.542ZM123.256 216.681C123.256 216.392 123.214 216.128 123.13 215.89C123.051 215.647 122.932 215.44 122.773 215.267C122.619 215.09 122.43 214.954 122.206 214.861C121.982 214.763 121.728 214.714 121.443 214.714C120.846 214.714 120.372 214.889 120.022 215.239C119.677 215.584 119.462 216.065 119.378 216.681H123.256ZM124.264 220.006C124.11 220.193 123.926 220.356 123.711 220.496C123.497 220.631 123.266 220.743 123.018 220.832C122.776 220.921 122.524 220.986 122.262 221.028C122.001 221.075 121.742 221.098 121.485 221.098C120.995 221.098 120.543 221.016 120.127 220.853C119.717 220.685 119.36 220.442 119.056 220.125C118.758 219.803 118.524 219.406 118.356 218.935C118.188 218.464 118.104 217.922 118.104 217.311C118.104 216.816 118.179 216.354 118.328 215.925C118.482 215.496 118.702 215.125 118.986 214.812C119.271 214.495 119.619 214.247 120.029 214.07C120.44 213.888 120.902 213.797 121.415 213.797C121.84 213.797 122.232 213.869 122.591 214.014C122.955 214.154 123.268 214.359 123.529 214.63C123.795 214.896 124.003 215.227 124.152 215.624C124.302 216.016 124.376 216.464 124.376 216.968C124.376 217.164 124.355 217.295 124.313 217.36C124.271 217.425 124.192 217.458 124.075 217.458H119.336C119.35 217.906 119.411 218.296 119.518 218.627C119.63 218.958 119.784 219.236 119.98 219.46C120.176 219.679 120.41 219.845 120.68 219.957C120.951 220.064 121.254 220.118 121.59 220.118C121.903 220.118 122.171 220.083 122.395 220.013C122.624 219.938 122.82 219.859 122.983 219.775C123.147 219.691 123.282 219.614 123.389 219.544C123.501 219.469 123.597 219.432 123.676 219.432C123.779 219.432 123.858 219.472 123.914 219.551L124.264 220.006ZM131.833 213.909L128.942 221H127.822L124.931 213.909H125.946C126.048 213.909 126.132 213.935 126.198 213.986C126.263 214.037 126.307 214.098 126.331 214.168L128.13 218.732C128.186 218.905 128.235 219.073 128.277 219.236C128.319 219.399 128.358 219.563 128.396 219.726C128.433 219.563 128.473 219.399 128.515 219.236C128.557 219.073 128.608 218.905 128.669 218.732L130.489 214.168C130.517 214.093 130.563 214.033 130.629 213.986C130.694 213.935 130.771 213.909 130.86 213.909H131.833ZM134.291 213.909V221H133.045V213.909H134.291ZM134.557 211.683C134.557 211.804 134.532 211.919 134.48 212.026C134.434 212.129 134.368 212.222 134.284 212.306C134.205 212.385 134.109 212.448 133.997 212.495C133.89 212.542 133.776 212.565 133.654 212.565C133.533 212.565 133.419 212.542 133.311 212.495C133.209 212.448 133.118 212.385 133.038 212.306C132.959 212.222 132.896 212.129 132.849 212.026C132.803 211.919 132.779 211.804 132.779 211.683C132.779 211.562 132.803 211.447 132.849 211.34C132.896 211.228 132.959 211.132 133.038 211.053C133.118 210.969 133.209 210.904 133.311 210.857C133.419 210.81 133.533 210.787 133.654 210.787C133.776 210.787 133.89 210.81 133.997 210.857C134.109 210.904 134.205 210.969 134.284 211.053C134.368 211.132 134.434 211.228 134.48 211.34C134.532 211.447 134.557 211.562 134.557 211.683ZM141.274 215.169C141.236 215.22 141.199 215.26 141.162 215.288C141.124 215.316 141.073 215.33 141.008 215.33C140.938 215.33 140.861 215.302 140.777 215.246C140.693 215.185 140.588 215.12 140.462 215.05C140.34 214.98 140.189 214.917 140.007 214.861C139.829 214.8 139.61 214.77 139.349 214.77C138.999 214.77 138.691 214.833 138.425 214.959C138.159 215.08 137.935 215.258 137.753 215.491C137.575 215.724 137.44 216.007 137.347 216.338C137.258 216.669 137.214 217.04 137.214 217.451C137.214 217.88 137.263 218.263 137.361 218.599C137.459 218.93 137.596 219.21 137.774 219.439C137.956 219.663 138.173 219.836 138.425 219.957C138.681 220.074 138.968 220.132 139.286 220.132C139.589 220.132 139.839 220.097 140.035 220.027C140.231 219.952 140.392 219.871 140.518 219.782C140.648 219.693 140.756 219.614 140.84 219.544C140.928 219.469 141.015 219.432 141.099 219.432C141.201 219.432 141.281 219.472 141.337 219.551L141.687 220.006C141.533 220.197 141.358 220.361 141.162 220.496C140.966 220.631 140.753 220.746 140.525 220.839C140.301 220.928 140.065 220.993 139.818 221.035C139.57 221.077 139.318 221.098 139.062 221.098C138.618 221.098 138.205 221.016 137.823 220.853C137.445 220.69 137.116 220.454 136.836 220.146C136.556 219.833 136.336 219.451 136.178 218.998C136.019 218.545 135.94 218.03 135.94 217.451C135.94 216.924 136.012 216.436 136.157 215.988C136.306 215.54 136.521 215.155 136.801 214.833C137.085 214.506 137.433 214.252 137.844 214.07C138.259 213.888 138.735 213.797 139.272 213.797C139.771 213.797 140.21 213.879 140.588 214.042C140.97 214.201 141.309 214.427 141.603 214.721L141.274 215.169ZM147.647 216.681C147.647 216.392 147.605 216.128 147.521 215.89C147.442 215.647 147.323 215.44 147.164 215.267C147.01 215.09 146.821 214.954 146.597 214.861C146.373 214.763 146.119 214.714 145.834 214.714C145.237 214.714 144.763 214.889 144.413 215.239C144.068 215.584 143.853 216.065 143.769 216.681H147.647ZM148.655 220.006C148.501 220.193 148.317 220.356 148.102 220.496C147.887 220.631 147.656 220.743 147.409 220.832C147.166 220.921 146.914 220.986 146.653 221.028C146.392 221.075 146.133 221.098 145.876 221.098C145.386 221.098 144.933 221.016 144.518 220.853C144.107 220.685 143.75 220.442 143.447 220.125C143.148 219.803 142.915 219.406 142.747 218.935C142.579 218.464 142.495 217.922 142.495 217.311C142.495 216.816 142.57 216.354 142.719 215.925C142.873 215.496 143.092 215.125 143.377 214.812C143.662 214.495 144.009 214.247 144.42 214.07C144.831 213.888 145.293 213.797 145.806 213.797C146.231 213.797 146.623 213.869 146.982 214.014C147.346 214.154 147.659 214.359 147.92 214.63C148.186 214.896 148.394 215.227 148.543 215.624C148.692 216.016 148.767 216.464 148.767 216.968C148.767 217.164 148.746 217.295 148.704 217.36C148.662 217.425 148.583 217.458 148.466 217.458H143.727C143.741 217.906 143.802 218.296 143.909 218.627C144.021 218.958 144.175 219.236 144.371 219.46C144.567 219.679 144.8 219.845 145.071 219.957C145.342 220.064 145.645 220.118 145.981 220.118C146.294 220.118 146.562 220.083 146.786 220.013C147.015 219.938 147.211 219.859 147.374 219.775C147.537 219.691 147.673 219.614 147.78 219.544C147.892 219.469 147.988 219.432 148.067 219.432C148.17 219.432 148.249 219.472 148.305 219.551L148.655 220.006Z" fill="black"/>
<path d="M81.5921 155.931C81.7241 155.931 81.8411 155.982 81.9431 156.084L82.8971 157.119C82.3691 157.773 81.7181 158.274 80.9441 158.622C80.1761 158.97 79.2521 159.144 78.1721 159.144C77.2061 159.144 76.3361 158.979 75.5621 158.649C74.7941 158.319 74.1371 157.86 73.5911 157.272C73.0451 156.684 72.6251 155.982 72.3311 155.166C72.0431 154.35 71.8991 153.459 71.8991 152.493C71.8991 151.515 72.0551 150.621 72.3671 149.811C72.6791 148.995 73.1171 148.293 73.6811 147.705C74.2511 147.117 74.9291 146.661 75.7151 146.337C76.5011 146.007 77.3711 145.842 78.3251 145.842C79.2731 145.842 80.1131 145.998 80.8451 146.31C81.5831 146.622 82.2101 147.03 82.7261 147.534L81.9161 148.659C81.8681 148.731 81.8051 148.794 81.7271 148.848C81.6551 148.902 81.5531 148.929 81.4211 148.929C81.3311 148.929 81.2381 148.905 81.1421 148.857C81.0461 148.803 80.9411 148.74 80.8271 148.668C80.7131 148.59 80.5811 148.506 80.4311 148.416C80.2811 148.326 80.1071 148.245 79.9091 148.173C79.7111 148.095 79.4801 148.032 79.2161 147.984C78.9581 147.93 78.6581 147.903 78.3161 147.903C77.7341 147.903 77.2001 148.008 76.7141 148.218C76.2341 148.422 75.8201 148.722 75.4721 149.118C75.1241 149.508 74.8541 149.988 74.6621 150.558C74.4701 151.122 74.3741 151.767 74.3741 152.493C74.3741 153.225 74.4761 153.876 74.6801 154.446C74.8901 155.016 75.1721 155.496 75.5261 155.886C75.8801 156.276 76.2971 156.576 76.7771 156.786C77.2571 156.99 77.7731 157.092 78.3251 157.092C78.6551 157.092 78.9521 157.074 79.2161 157.038C79.4861 157.002 79.7321 156.945 79.9541 156.867C80.1821 156.789 80.3951 156.69 80.5931 156.57C80.7971 156.444 80.9981 156.291 81.1961 156.111C81.2561 156.057 81.3191 156.015 81.3851 155.985C81.4511 155.949 81.5201 155.931 81.5921 155.931ZM86.4544 145.626V159H84.2314V145.626H86.4544ZM92.7553 149.622C93.4393 149.622 94.0603 149.733 94.6183 149.955C95.1823 150.177 95.6623 150.492 96.0583 150.9C96.4603 151.308 96.7693 151.806 96.9853 152.394C97.2013 152.982 97.3093 153.639 97.3093 154.365C97.3093 155.097 97.2013 155.757 96.9853 156.345C96.7693 156.933 96.4603 157.434 96.0583 157.848C95.6623 158.262 95.1823 158.58 94.6183 158.802C94.0603 159.024 93.4393 159.135 92.7553 159.135C92.0653 159.135 91.4383 159.024 90.8743 158.802C90.3103 158.58 89.8273 158.262 89.4253 157.848C89.0293 157.434 88.7203 156.933 88.4983 156.345C88.2823 155.757 88.1743 155.097 88.1743 154.365C88.1743 153.639 88.2823 152.982 88.4983 152.394C88.7203 151.806 89.0293 151.308 89.4253 150.9C89.8273 150.492 90.3103 150.177 90.8743 149.955C91.4383 149.733 92.0653 149.622 92.7553 149.622ZM92.7553 157.425C93.5233 157.425 94.0903 157.167 94.4563 156.651C94.8283 156.135 95.0143 155.379 95.0143 154.383C95.0143 153.387 94.8283 152.628 94.4563 152.106C94.0903 151.584 93.5233 151.323 92.7553 151.323C91.9753 151.323 91.3963 151.587 91.0183 152.115C90.6463 152.637 90.4603 153.393 90.4603 154.383C90.4603 155.373 90.6463 156.129 91.0183 156.651C91.3963 157.167 91.9753 157.425 92.7553 157.425ZM106.961 149.766V159H105.602C105.308 159 105.122 158.865 105.044 158.595L104.891 157.857C104.513 158.241 104.096 158.553 103.64 158.793C103.184 159.027 102.647 159.144 102.029 159.144C101.525 159.144 101.078 159.06 100.688 158.892C100.304 158.718 99.9802 158.475 99.7162 158.163C99.4522 157.851 99.2512 157.482 99.1132 157.056C98.9812 156.624 98.9152 156.15 98.9152 155.634V149.766H101.138V155.634C101.138 156.198 101.267 156.636 101.525 156.948C101.789 157.254 102.182 157.407 102.704 157.407C103.088 157.407 103.448 157.323 103.784 157.155C104.12 156.981 104.438 156.744 104.738 156.444V149.766H106.961ZM114.961 152.124C114.709 151.818 114.433 151.602 114.133 151.476C113.839 151.35 113.521 151.287 113.179 151.287C112.843 151.287 112.54 151.35 112.27 151.476C112 151.602 111.769 151.794 111.577 152.052C111.385 152.304 111.238 152.628 111.136 153.024C111.034 153.414 110.983 153.876 110.983 154.41C110.983 154.95 111.025 155.409 111.109 155.787C111.199 156.159 111.325 156.465 111.487 156.705C111.649 156.939 111.847 157.11 112.081 157.218C112.315 157.32 112.576 157.371 112.864 157.371C113.326 157.371 113.719 157.275 114.043 157.083C114.367 156.891 114.673 156.618 114.961 156.264V152.124ZM117.184 145.626V159H115.825C115.531 159 115.345 158.865 115.267 158.595L115.078 157.704C114.706 158.13 114.277 158.475 113.791 158.739C113.311 159.003 112.75 159.135 112.108 159.135C111.604 159.135 111.142 159.03 110.722 158.82C110.302 158.61 109.939 158.307 109.633 157.911C109.333 157.509 109.099 157.014 108.931 156.426C108.769 155.838 108.688 155.166 108.688 154.41C108.688 153.726 108.781 153.09 108.967 152.502C109.153 151.914 109.42 151.404 109.768 150.972C110.116 150.54 110.533 150.204 111.019 149.964C111.505 149.718 112.051 149.595 112.657 149.595C113.173 149.595 113.614 149.676 113.98 149.838C114.346 150 114.673 150.219 114.961 150.495V145.626H117.184ZM131.036 148.353C130.964 148.479 130.886 148.572 130.802 148.632C130.724 148.686 130.625 148.713 130.505 148.713C130.379 148.713 130.241 148.668 130.091 148.578C129.947 148.482 129.773 148.377 129.569 148.263C129.365 148.149 129.125 148.047 128.849 147.957C128.579 147.861 128.258 147.813 127.886 147.813C127.55 147.813 127.256 147.855 127.004 147.939C126.752 148.017 126.539 148.128 126.365 148.272C126.197 148.416 126.071 148.59 125.987 148.794C125.903 148.992 125.861 149.211 125.861 149.451C125.861 149.757 125.945 150.012 126.113 150.216C126.287 150.42 126.515 150.594 126.797 150.738C127.079 150.882 127.4 151.011 127.76 151.125C128.12 151.239 128.489 151.362 128.867 151.494C129.245 151.62 129.614 151.77 129.974 151.944C130.334 152.112 130.655 152.328 130.937 152.592C131.219 152.85 131.444 153.168 131.612 153.546C131.786 153.924 131.873 154.383 131.873 154.923C131.873 155.511 131.771 156.063 131.567 156.579C131.369 157.089 131.075 157.536 130.685 157.92C130.301 158.298 129.83 158.598 129.272 158.82C128.714 159.036 128.075 159.144 127.355 159.144C126.941 159.144 126.533 159.102 126.131 159.018C125.729 158.94 125.342 158.826 124.97 158.676C124.604 158.526 124.259 158.346 123.935 158.136C123.611 157.926 123.323 157.692 123.071 157.434L123.782 156.273C123.842 156.189 123.92 156.12 124.016 156.066C124.112 156.006 124.214 155.976 124.322 155.976C124.472 155.976 124.634 156.039 124.808 156.165C124.982 156.285 125.189 156.42 125.429 156.57C125.669 156.72 125.948 156.858 126.266 156.984C126.59 157.104 126.977 157.164 127.427 157.164C128.117 157.164 128.651 157.002 129.029 156.678C129.407 156.348 129.596 155.877 129.596 155.265C129.596 154.923 129.509 154.644 129.335 154.428C129.167 154.212 128.942 154.032 128.66 153.888C128.378 153.738 128.057 153.612 127.697 153.51C127.337 153.408 126.971 153.297 126.599 153.177C126.227 153.057 125.861 152.913 125.501 152.745C125.141 152.577 124.82 152.358 124.538 152.088C124.256 151.818 124.028 151.482 123.854 151.08C123.686 150.672 123.602 150.171 123.602 149.577C123.602 149.103 123.695 148.641 123.881 148.191C124.073 147.741 124.349 147.342 124.709 146.994C125.069 146.646 125.513 146.367 126.041 146.157C126.569 145.947 127.175 145.842 127.859 145.842C128.627 145.842 129.335 145.962 129.983 146.202C130.631 146.442 131.183 146.778 131.639 147.21L131.036 148.353ZM136.308 159.144C135.504 159.144 134.886 158.919 134.454 158.469C134.028 158.013 133.815 157.386 133.815 156.588V151.431H132.87C132.75 151.431 132.648 151.392 132.564 151.314C132.48 151.236 132.438 151.119 132.438 150.963V150.081L133.923 149.838L134.391 147.318C134.421 147.198 134.478 147.105 134.562 147.039C134.646 146.973 134.754 146.94 134.886 146.94H136.038V149.847H138.504V151.431H136.038V156.435C136.038 156.723 136.107 156.948 136.245 157.11C136.389 157.272 136.584 157.353 136.83 157.353C136.968 157.353 137.082 157.338 137.172 157.308C137.268 157.272 137.349 157.236 137.415 157.2C137.487 157.164 137.55 157.131 137.604 157.101C137.658 157.065 137.712 157.047 137.766 157.047C137.832 157.047 137.886 157.065 137.928 157.101C137.97 157.131 138.015 157.179 138.063 157.245L138.729 158.325C138.405 158.595 138.033 158.799 137.613 158.937C137.193 159.075 136.758 159.144 136.308 159.144ZM143.943 149.622C144.627 149.622 145.248 149.733 145.806 149.955C146.37 150.177 146.85 150.492 147.246 150.9C147.648 151.308 147.957 151.806 148.173 152.394C148.389 152.982 148.497 153.639 148.497 154.365C148.497 155.097 148.389 155.757 148.173 156.345C147.957 156.933 147.648 157.434 147.246 157.848C146.85 158.262 146.37 158.58 145.806 158.802C145.248 159.024 144.627 159.135 143.943 159.135C143.253 159.135 142.626 159.024 142.062 158.802C141.498 158.58 141.015 158.262 140.613 157.848C140.217 157.434 139.908 156.933 139.686 156.345C139.47 155.757 139.362 155.097 139.362 154.365C139.362 153.639 139.47 152.982 139.686 152.394C139.908 151.806 140.217 151.308 140.613 150.9C141.015 150.492 141.498 150.177 142.062 149.955C142.626 149.733 143.253 149.622 143.943 149.622ZM143.943 157.425C144.711 157.425 145.278 157.167 145.644 156.651C146.016 156.135 146.202 155.379 146.202 154.383C146.202 153.387 146.016 152.628 145.644 152.106C145.278 151.584 144.711 151.323 143.943 151.323C143.163 151.323 142.584 151.587 142.206 152.115C141.834 152.637 141.648 153.393 141.648 154.383C141.648 155.373 141.834 156.129 142.206 156.651C142.584 157.167 143.163 157.425 143.943 157.425ZM152.29 151.368C152.578 150.816 152.92 150.384 153.316 150.072C153.712 149.754 154.18 149.595 154.72 149.595C155.146 149.595 155.488 149.688 155.746 149.874L155.602 151.539C155.572 151.647 155.527 151.725 155.467 151.773C155.413 151.815 155.338 151.836 155.242 151.836C155.152 151.836 155.017 151.821 154.837 151.791C154.663 151.761 154.492 151.746 154.324 151.746C154.078 151.746 153.859 151.782 153.667 151.854C153.475 151.926 153.301 152.031 153.145 152.169C152.995 152.301 152.86 152.463 152.74 152.655C152.626 152.847 152.518 153.066 152.416 153.312V159H150.193V149.766H151.498C151.726 149.766 151.885 149.808 151.975 149.892C152.065 149.97 152.125 150.114 152.155 150.324L152.29 151.368ZM161.663 155.058C161.021 155.088 160.481 155.145 160.043 155.229C159.605 155.307 159.254 155.409 158.99 155.535C158.726 155.661 158.537 155.808 158.423 155.976C158.309 156.144 158.252 156.327 158.252 156.525C158.252 156.915 158.366 157.194 158.594 157.362C158.828 157.53 159.131 157.614 159.503 157.614C159.959 157.614 160.352 157.533 160.682 157.371C161.018 157.203 161.345 156.951 161.663 156.615V155.058ZM156.569 151.053C157.631 150.081 158.909 149.595 160.403 149.595C160.943 149.595 161.426 149.685 161.852 149.865C162.278 150.039 162.638 150.285 162.932 150.603C163.226 150.915 163.448 151.29 163.598 151.728C163.754 152.166 163.832 152.646 163.832 153.168V159H162.824C162.614 159 162.452 158.97 162.338 158.91C162.224 158.844 162.134 158.715 162.068 158.523L161.87 157.857C161.636 158.067 161.408 158.253 161.186 158.415C160.964 158.571 160.733 158.703 160.493 158.811C160.253 158.919 159.995 159 159.719 159.054C159.449 159.114 159.149 159.144 158.819 159.144C158.429 159.144 158.069 159.093 157.739 158.991C157.409 158.883 157.124 158.724 156.884 158.514C156.644 158.304 156.458 158.043 156.326 157.731C156.194 157.419 156.128 157.056 156.128 156.642C156.128 156.408 156.167 156.177 156.245 155.949C156.323 155.715 156.449 155.493 156.623 155.283C156.803 155.073 157.034 154.875 157.316 154.689C157.598 154.503 157.943 154.341 158.351 154.203C158.765 154.065 159.245 153.954 159.791 153.87C160.337 153.78 160.961 153.726 161.663 153.708V153.168C161.663 152.55 161.531 152.094 161.267 151.8C161.003 151.5 160.622 151.35 160.124 151.35C159.764 151.35 159.464 151.392 159.224 151.476C158.99 151.56 158.783 151.656 158.603 151.764C158.423 151.866 158.258 151.959 158.108 152.043C157.964 152.127 157.802 152.169 157.622 152.169C157.466 152.169 157.334 152.13 157.226 152.052C157.118 151.968 157.031 151.872 156.965 151.764L156.569 151.053ZM169.3 154.158C169.576 154.158 169.816 154.122 170.02 154.05C170.224 153.972 170.392 153.867 170.524 153.735C170.662 153.603 170.764 153.444 170.83 153.258C170.902 153.072 170.938 152.868 170.938 152.646C170.938 152.19 170.8 151.83 170.524 151.566C170.254 151.296 169.846 151.161 169.3 151.161C168.754 151.161 168.343 151.296 168.067 151.566C167.797 151.83 167.662 152.19 167.662 152.646C167.662 152.862 167.695 153.063 167.761 153.249C167.833 153.435 167.935 153.597 168.067 153.735C168.205 153.867 168.376 153.972 168.58 154.05C168.79 154.122 169.03 154.158 169.3 154.158ZM171.811 159.414C171.811 159.234 171.757 159.087 171.649 158.973C171.541 158.859 171.394 158.772 171.208 158.712C171.022 158.646 170.803 158.598 170.551 158.568C170.305 158.538 170.041 158.517 169.759 158.505C169.483 158.487 169.195 158.472 168.895 158.46C168.601 158.448 168.313 158.424 168.031 158.388C167.785 158.526 167.584 158.688 167.428 158.874C167.278 159.06 167.203 159.276 167.203 159.522C167.203 159.684 167.242 159.834 167.32 159.972C167.404 160.116 167.533 160.239 167.707 160.341C167.887 160.443 168.118 160.521 168.4 160.575C168.682 160.635 169.027 160.665 169.435 160.665C169.849 160.665 170.206 160.632 170.506 160.566C170.806 160.506 171.052 160.419 171.244 160.305C171.442 160.197 171.586 160.065 171.676 159.909C171.766 159.759 171.811 159.594 171.811 159.414ZM174.025 150.081V150.909C174.025 151.173 173.866 151.335 173.548 151.395L172.72 151.548C172.846 151.866 172.909 152.214 172.909 152.592C172.909 153.048 172.816 153.462 172.63 153.834C172.45 154.2 172.198 154.512 171.874 154.77C171.55 155.028 171.166 155.229 170.722 155.373C170.284 155.511 169.81 155.58 169.3 155.58C169.12 155.58 168.946 155.571 168.778 155.553C168.61 155.535 168.445 155.511 168.283 155.481C167.995 155.655 167.851 155.85 167.851 156.066C167.851 156.252 167.935 156.39 168.103 156.48C168.277 156.564 168.505 156.624 168.787 156.66C169.069 156.696 169.39 156.72 169.75 156.732C170.11 156.738 170.479 156.756 170.857 156.786C171.235 156.816 171.604 156.87 171.964 156.948C172.324 157.02 172.645 157.137 172.927 157.299C173.209 157.461 173.434 157.683 173.602 157.965C173.776 158.241 173.863 158.598 173.863 159.036C173.863 159.444 173.761 159.84 173.557 160.224C173.359 160.608 173.068 160.95 172.684 161.25C172.306 161.55 171.838 161.79 171.28 161.97C170.728 162.156 170.098 162.249 169.39 162.249C168.694 162.249 168.088 162.18 167.572 162.042C167.056 161.91 166.627 161.73 166.285 161.502C165.943 161.28 165.688 161.022 165.52 160.728C165.352 160.434 165.268 160.128 165.268 159.81C165.268 159.378 165.397 159.018 165.655 158.73C165.919 158.436 166.279 158.202 166.735 158.028C166.489 157.902 166.294 157.734 166.15 157.524C166.006 157.314 165.934 157.038 165.934 156.696C165.934 156.558 165.958 156.417 166.006 156.273C166.06 156.123 166.135 155.976 166.231 155.832C166.333 155.688 166.459 155.553 166.609 155.427C166.759 155.295 166.936 155.178 167.14 155.076C166.672 154.824 166.303 154.488 166.033 154.068C165.769 153.648 165.637 153.156 165.637 152.592C165.637 152.136 165.727 151.725 165.907 151.359C166.093 150.987 166.348 150.672 166.672 150.414C167.002 150.15 167.389 149.949 167.833 149.811C168.283 149.673 168.772 149.604 169.3 149.604C169.696 149.604 170.068 149.646 170.416 149.73C170.764 149.808 171.082 149.925 171.37 150.081H174.025ZM181.226 153.321C181.226 153.033 181.184 152.763 181.1 152.511C181.022 152.253 180.902 152.028 180.74 151.836C180.578 151.644 180.371 151.494 180.119 151.386C179.873 151.272 179.585 151.215 179.255 151.215C178.613 151.215 178.106 151.398 177.734 151.764C177.368 152.13 177.134 152.649 177.032 153.321H181.226ZM176.987 154.662C177.023 155.136 177.107 155.547 177.239 155.895C177.371 156.237 177.545 156.522 177.761 156.75C177.977 156.972 178.232 157.14 178.526 157.254C178.826 157.362 179.156 157.416 179.516 157.416C179.876 157.416 180.185 157.374 180.443 157.29C180.707 157.206 180.935 157.113 181.127 157.011C181.325 156.909 181.496 156.816 181.64 156.732C181.79 156.648 181.934 156.606 182.072 156.606C182.258 156.606 182.396 156.675 182.486 156.813L183.125 157.623C182.879 157.911 182.603 158.154 182.297 158.352C181.991 158.544 181.67 158.7 181.334 158.82C181.004 158.934 180.665 159.015 180.317 159.063C179.975 159.111 179.642 159.135 179.318 159.135C178.676 159.135 178.079 159.03 177.527 158.82C176.975 158.604 176.495 158.289 176.087 157.875C175.679 157.455 175.358 156.939 175.124 156.327C174.89 155.709 174.773 154.995 174.773 154.185C174.773 153.555 174.875 152.964 175.079 152.412C175.283 151.854 175.574 151.371 175.952 150.963C176.336 150.549 176.801 150.222 177.347 149.982C177.899 149.742 178.52 149.622 179.21 149.622C179.792 149.622 180.329 149.715 180.821 149.901C181.313 150.087 181.736 150.36 182.09 150.72C182.444 151.074 182.72 151.512 182.918 152.034C183.122 152.55 183.224 153.141 183.224 153.807C183.224 154.143 183.188 154.371 183.116 154.491C183.044 154.605 182.906 154.662 182.702 154.662H176.987Z" fill="#101010"/>
<path d="M135.75 116.18H129.961V97.25C129.961 96.9063 129.68 96.625 129.336 96.625H124.648C124.305 96.625 124.023 96.9063 124.023 97.25V116.18H118.25C117.727 116.18 117.437 116.781 117.758 117.188L126.508 128.258C126.566 128.333 126.641 128.393 126.726 128.434C126.812 128.476 126.905 128.498 127 128.498C127.095 128.498 127.188 128.476 127.274 128.434C127.359 128.393 127.434 128.333 127.492 128.258L136.242 117.188C136.562 116.781 136.273 116.18 135.75 116.18Z" fill="#ED4C5C"/>
<path d="M150.391 89.6484C146.813 80.2109 137.695 73.5 127.016 73.5C116.336 73.5 107.219 80.2031 103.641 89.6406C96.9453 91.3984 92 97.5 92 104.75C92 113.383 98.9922 120.375 107.617 120.375H110.75C111.094 120.375 111.375 120.094 111.375 119.75V115.062C111.375 114.719 111.094 114.438 110.75 114.438H107.617C104.984 114.438 102.508 113.391 100.664 111.492C98.8281 109.602 97.8516 107.055 97.9375 104.414C98.0078 102.352 98.7109 100.414 99.9844 98.7812C101.289 97.1172 103.117 95.9062 105.148 95.3672L108.109 94.5938L109.195 91.7344C109.867 89.9531 110.805 88.2891 111.984 86.7812C113.149 85.2868 114.529 83.973 116.078 82.8828C119.289 80.625 123.07 79.4297 127.016 79.4297C130.961 79.4297 134.742 80.625 137.953 82.8828C139.508 83.9766 140.883 85.2891 142.047 86.7812C143.227 88.2891 144.164 89.9609 144.836 91.7344L145.914 94.5859L148.867 95.3672C153.102 96.5078 156.062 100.359 156.062 104.75C156.062 107.336 155.055 109.773 153.227 111.602C152.33 112.503 151.264 113.218 150.089 113.705C148.914 114.192 147.654 114.441 146.383 114.438H143.25C142.906 114.438 142.625 114.719 142.625 115.062V119.75C142.625 120.094 142.906 120.375 143.25 120.375H146.383C155.008 120.375 162 113.383 162 104.75C162 97.5078 157.07 91.4141 150.391 89.6484Z" fill="#ED4C5C"/>
<path d="M124.992 64.85C124.992 71.15 124.309 76.6333 122.942 81.3C121.609 85.9333 119.742 89.7667 117.342 92.8C114.976 95.8333 112.159 98.1 108.892 99.6C105.659 101.067 102.159 101.8 98.3922 101.8C94.6255 101.8 91.1255 101.067 87.8922 99.6C84.6922 98.1 81.9089 95.8333 79.5422 92.8C77.1755 89.7667 75.3255 85.9333 73.9922 81.3C72.6589 76.6333 71.9922 71.15 71.9922 64.85C71.9922 58.5167 72.6589 53.0333 73.9922 48.4C75.3255 43.7667 77.1755 39.9333 79.5422 36.9C81.9089 33.8667 84.6922 31.6167 87.8922 30.15C91.1255 28.65 94.6255 27.9 98.3922 27.9C102.159 27.9 105.659 28.65 108.892 30.15C112.159 31.6167 114.976 33.8667 117.342 36.9C119.742 39.9333 121.609 43.7667 122.942 48.4C124.309 53.0333 124.992 58.5167 124.992 64.85ZM112.242 64.85C112.242 59.6167 111.859 55.2833 111.092 51.85C110.326 48.4167 109.292 45.6833 107.992 43.65C106.726 41.6167 105.259 40.2 103.592 39.4C101.926 38.5667 100.192 38.15 98.3922 38.15C96.6255 38.15 94.9089 38.5667 93.2422 39.4C91.6089 40.2 90.1589 41.6167 88.8922 43.65C87.6255 45.6833 86.6089 48.4167 85.8422 51.85C85.1089 55.2833 84.7422 59.6167 84.7422 64.85C84.7422 70.0833 85.1089 74.4167 85.8422 77.85C86.6089 81.2833 87.6255 84.0167 88.8922 86.05C90.1589 88.0833 91.6089 89.5167 93.2422 90.35C94.9089 91.15 96.6255 91.55 98.3922 91.55C100.192 91.55 101.926 91.15 103.592 90.35C105.259 89.5167 106.726 88.0833 107.992 86.05C109.292 84.0167 110.326 81.2833 111.092 77.85C111.859 74.4167 112.242 70.0833 112.242 64.85ZM179.25 91.75V101H139.25V91.75H153.9V49.6C153.9 47.9333 153.95 46.2167 154.05 44.45L143.65 53.15C143.05 53.6167 142.45 53.9167 141.85 54.05C141.283 54.15 140.733 54.15 140.2 54.05C139.7 53.95 139.25 53.7833 138.85 53.55C138.45 53.2833 138.15 53 137.95 52.7L134.05 47.35L156.1 28.6H166.25V91.75H179.25Z" fill="#101010" fill-opacity="0.08"/>
</svg>
