<svg width="255" height="226" viewBox="0 0 255 226" fill="none" xmlns="http://www.w3.org/2000/svg">
<rect width="255" height="226" fill="white"/>
<path d="M50.103 185H49.053C48.9317 185 48.8337 184.97 48.759 184.909C48.6843 184.848 48.6283 184.771 48.591 184.678L47.653 182.256H43.152L42.214 184.678C42.186 184.762 42.1323 184.837 42.053 184.902C41.9737 184.967 41.8757 185 41.759 185H40.709L44.72 174.969H46.092L50.103 185ZM43.53 181.276H47.275L45.7 177.195C45.6487 177.074 45.5973 176.934 45.546 176.775C45.4993 176.616 45.4503 176.446 45.399 176.264C45.3523 176.446 45.3033 176.619 45.252 176.782C45.2053 176.941 45.1563 177.081 45.105 177.202L43.53 181.276ZM52.4166 174.689V185H51.1706V174.689H52.4166ZM55.7252 174.689V185H54.4792V174.689H55.7252ZM63.1354 187.093C63.0934 187.186 63.0397 187.261 62.9744 187.317C62.9137 187.373 62.818 187.401 62.6874 187.401H61.7634L63.0584 184.587L60.1324 177.909H61.2104C61.3177 177.909 61.4017 177.937 61.4624 177.993C61.5277 178.044 61.572 178.103 61.5954 178.168L63.4924 182.634C63.5297 182.741 63.5647 182.846 63.5974 182.949C63.63 183.047 63.658 183.15 63.6814 183.257C63.742 183.047 63.812 182.837 63.8914 182.627L65.7324 178.168C65.7604 178.093 65.807 178.033 65.8724 177.986C65.9424 177.935 66.0194 177.909 66.1034 177.909H67.0904L63.1354 187.093ZM70.9887 177.797C71.5067 177.797 71.9734 177.883 72.3887 178.056C72.804 178.229 73.1587 178.474 73.4527 178.791C73.7467 179.108 73.9707 179.493 74.1247 179.946C74.2834 180.394 74.3627 180.896 74.3627 181.451C74.3627 182.011 74.2834 182.515 74.1247 182.963C73.9707 183.411 73.7467 183.794 73.4527 184.111C73.1587 184.428 72.804 184.673 72.3887 184.846C71.9734 185.014 71.5067 185.098 70.9887 185.098C70.466 185.098 69.9947 185.014 69.5747 184.846C69.1594 184.673 68.8047 184.428 68.5107 184.111C68.2167 183.794 67.9904 183.411 67.8317 182.963C67.6777 182.515 67.6007 182.011 67.6007 181.451C67.6007 180.896 67.6777 180.394 67.8317 179.946C67.9904 179.493 68.2167 179.108 68.5107 178.791C68.8047 178.474 69.1594 178.229 69.5747 178.056C69.9947 177.883 70.466 177.797 70.9887 177.797ZM70.9887 184.125C71.6887 184.125 72.2114 183.892 72.5567 183.425C72.902 182.954 73.0747 182.298 73.0747 181.458C73.0747 180.613 72.902 179.955 72.5567 179.484C72.2114 179.013 71.6887 178.777 70.9887 178.777C70.634 178.777 70.3237 178.838 70.0577 178.959C69.7964 179.08 69.577 179.255 69.3997 179.484C69.227 179.713 69.0964 179.995 69.0077 180.331C68.9237 180.662 68.8817 181.038 68.8817 181.458C68.8817 182.298 69.0544 182.954 69.3997 183.425C69.7497 183.892 70.2794 184.125 70.9887 184.125ZM77.1191 177.909V182.431C77.1191 182.968 77.2404 183.383 77.4831 183.677C77.7304 183.971 78.1061 184.118 78.6101 184.118C78.9741 184.118 79.3171 184.032 79.6391 183.859C79.9611 183.686 80.2574 183.446 80.5281 183.138V177.909H81.7741V185H81.0321C80.8547 185 80.7427 184.914 80.6961 184.741L80.5981 183.978C80.2901 184.319 79.9447 184.594 79.5621 184.804C79.1794 185.009 78.7407 185.112 78.2461 185.112C77.8587 185.112 77.5157 185.049 77.2171 184.923C76.9231 184.792 76.6757 184.61 76.4751 184.377C76.2744 184.144 76.1227 183.861 76.0201 183.53C75.9221 183.199 75.8731 182.832 75.8731 182.431V177.909H77.1191ZM83.7497 185V177.909H84.4637C84.599 177.909 84.6924 177.935 84.7437 177.986C84.795 178.037 84.83 178.126 84.8487 178.252L84.9257 179.33C85.1497 178.845 85.425 178.467 85.7517 178.196C86.083 177.921 86.4844 177.783 86.9557 177.783C87.105 177.783 87.2474 177.799 87.3827 177.832C87.5227 177.865 87.6464 177.916 87.7537 177.986L87.6627 178.917C87.6347 179.034 87.5647 179.092 87.4527 179.092C87.3874 179.092 87.2917 179.078 87.1657 179.05C87.0397 179.022 86.8974 179.008 86.7387 179.008C86.5147 179.008 86.314 179.043 86.1367 179.113C85.9594 179.178 85.8007 179.276 85.6607 179.407C85.5254 179.533 85.404 179.689 85.2967 179.876C85.1894 180.063 85.0914 180.277 85.0027 180.52V185H83.7497ZM93.4466 177.909V185H92.2006V177.909H93.4466ZM93.7126 175.683C93.7126 175.804 93.6869 175.919 93.6356 176.026C93.5889 176.129 93.5236 176.222 93.4396 176.306C93.3602 176.385 93.2646 176.448 93.1526 176.495C93.0452 176.542 92.9309 176.565 92.8096 176.565C92.6882 176.565 92.5739 176.542 92.4666 176.495C92.3639 176.448 92.2729 176.385 92.1936 176.306C92.1142 176.222 92.0512 176.129 92.0046 176.026C91.9579 175.919 91.9346 175.804 91.9346 175.683C91.9346 175.562 91.9579 175.447 92.0046 175.34C92.0512 175.228 92.1142 175.132 92.1936 175.053C92.2729 174.969 92.3639 174.904 92.4666 174.857C92.5739 174.81 92.6882 174.787 92.8096 174.787C92.9309 174.787 93.0452 174.81 93.1526 174.857C93.2646 174.904 93.3602 174.969 93.4396 175.053C93.5236 175.132 93.5889 175.228 93.6356 175.34C93.6869 175.447 93.7126 175.562 93.7126 175.683ZM95.4938 185V177.909H96.2428C96.4202 177.909 96.5298 177.995 96.5718 178.168L96.6698 178.938C96.9778 178.597 97.3232 178.322 97.7058 178.112C98.0885 177.902 98.5295 177.797 99.0288 177.797C99.4162 177.797 99.7568 177.862 100.051 177.993C100.35 178.119 100.597 178.301 100.793 178.539C100.994 178.772 101.145 179.055 101.248 179.386C101.351 179.717 101.402 180.084 101.402 180.485V185H100.149V180.485C100.149 179.948 100.025 179.533 99.7778 179.239C99.5352 178.94 99.1642 178.791 98.6648 178.791C98.2915 178.791 97.9438 178.88 97.6218 179.057C97.3045 179.234 97.0128 179.475 96.7468 179.778V185H95.4938ZM103.653 185V178.973L102.869 178.882C102.771 178.859 102.689 178.824 102.624 178.777C102.563 178.726 102.533 178.653 102.533 178.56V178.049H103.653V177.363C103.653 176.957 103.709 176.598 103.821 176.285C103.938 175.968 104.101 175.702 104.311 175.487C104.526 175.268 104.782 175.102 105.081 174.99C105.38 174.878 105.716 174.822 106.089 174.822C106.406 174.822 106.698 174.869 106.964 174.962L106.936 175.585C106.927 175.697 106.864 175.758 106.747 175.767C106.635 175.776 106.483 175.781 106.292 175.781C106.077 175.781 105.881 175.809 105.704 175.865C105.531 175.921 105.382 176.012 105.256 176.138C105.13 176.264 105.032 176.43 104.962 176.635C104.897 176.84 104.864 177.095 104.864 177.398V178.049H106.908V178.952H104.906V185H103.653ZM110.87 177.797C111.388 177.797 111.854 177.883 112.27 178.056C112.685 178.229 113.04 178.474 113.334 178.791C113.628 179.108 113.852 179.493 114.006 179.946C114.164 180.394 114.244 180.896 114.244 181.451C114.244 182.011 114.164 182.515 114.006 182.963C113.852 183.411 113.628 183.794 113.334 184.111C113.04 184.428 112.685 184.673 112.27 184.846C111.854 185.014 111.388 185.098 110.87 185.098C110.347 185.098 109.876 185.014 109.456 184.846C109.04 184.673 108.686 184.428 108.392 184.111C108.098 183.794 107.871 183.411 107.713 182.963C107.559 182.515 107.482 182.011 107.482 181.451C107.482 180.896 107.559 180.394 107.713 179.946C107.871 179.493 108.098 179.108 108.392 178.791C108.686 178.474 109.04 178.229 109.456 178.056C109.876 177.883 110.347 177.797 110.87 177.797ZM110.87 184.125C111.57 184.125 112.092 183.892 112.438 183.425C112.783 182.954 112.956 182.298 112.956 181.458C112.956 180.613 112.783 179.955 112.438 179.484C112.092 179.013 111.57 178.777 110.87 178.777C110.515 178.777 110.205 178.838 109.939 178.959C109.677 179.08 109.458 179.255 109.281 179.484C109.108 179.713 108.977 179.995 108.889 180.331C108.805 180.662 108.763 181.038 108.763 181.458C108.763 182.298 108.935 182.954 109.281 183.425C109.631 183.892 110.16 184.125 110.87 184.125ZM115.824 185V177.909H116.538C116.673 177.909 116.767 177.935 116.818 177.986C116.869 178.037 116.904 178.126 116.923 178.252L117 179.33C117.224 178.845 117.499 178.467 117.826 178.196C118.157 177.921 118.559 177.783 119.03 177.783C119.179 177.783 119.322 177.799 119.457 177.832C119.597 177.865 119.721 177.916 119.828 177.986L119.737 178.917C119.709 179.034 119.639 179.092 119.527 179.092C119.462 179.092 119.366 179.078 119.24 179.05C119.114 179.022 118.972 179.008 118.813 179.008C118.589 179.008 118.388 179.043 118.211 179.113C118.034 179.178 117.875 179.276 117.735 179.407C117.6 179.533 117.478 179.689 117.371 179.876C117.264 180.063 117.166 180.277 117.077 180.52V185H115.824ZM120.924 185V177.909H121.673C121.85 177.909 121.96 177.995 122.002 178.168L122.093 178.896C122.354 178.574 122.648 178.31 122.975 178.105C123.301 177.9 123.679 177.797 124.109 177.797C124.585 177.797 124.97 177.93 125.264 178.196C125.562 178.462 125.777 178.821 125.908 179.274C126.01 179.017 126.141 178.796 126.3 178.609C126.463 178.422 126.645 178.268 126.846 178.147C127.046 178.026 127.259 177.937 127.483 177.881C127.711 177.825 127.942 177.797 128.176 177.797C128.549 177.797 128.88 177.858 129.17 177.979C129.464 178.096 129.711 178.268 129.912 178.497C130.117 178.726 130.273 179.008 130.381 179.344C130.488 179.675 130.542 180.056 130.542 180.485V185H129.289V180.485C129.289 179.93 129.167 179.51 128.925 179.225C128.682 178.936 128.332 178.791 127.875 178.791C127.669 178.791 127.473 178.828 127.287 178.903C127.105 178.973 126.944 179.078 126.804 179.218C126.664 179.358 126.552 179.535 126.468 179.75C126.388 179.96 126.349 180.205 126.349 180.485V185H125.096V180.485C125.096 179.916 124.981 179.491 124.753 179.211C124.524 178.931 124.19 178.791 123.752 178.791C123.444 178.791 123.159 178.875 122.898 179.043C122.636 179.206 122.396 179.43 122.177 179.715V185H120.924ZM136.943 185C136.822 185 136.729 184.981 136.663 184.944C136.598 184.902 136.547 184.823 136.509 184.706L136.369 184.041C136.183 184.209 135.998 184.361 135.816 184.496C135.639 184.627 135.452 184.739 135.256 184.832C135.065 184.921 134.857 184.988 134.633 185.035C134.414 185.086 134.169 185.112 133.898 185.112C133.623 185.112 133.364 185.075 133.121 185C132.879 184.921 132.666 184.804 132.484 184.65C132.307 184.496 132.165 184.302 132.057 184.069C131.955 183.831 131.903 183.551 131.903 183.229C131.903 182.949 131.98 182.681 132.134 182.424C132.288 182.163 132.538 181.932 132.883 181.731C133.229 181.53 133.679 181.367 134.234 181.241C134.79 181.11 135.471 181.036 136.278 181.017V180.464C136.278 179.913 136.159 179.498 135.921 179.218C135.683 178.933 135.336 178.791 134.878 178.791C134.57 178.791 134.311 178.831 134.101 178.91C133.896 178.985 133.716 179.071 133.562 179.169C133.413 179.262 133.282 179.349 133.17 179.428C133.063 179.503 132.956 179.54 132.848 179.54C132.764 179.54 132.692 179.519 132.631 179.477C132.571 179.43 132.519 179.374 132.477 179.309L132.253 178.91C132.645 178.532 133.068 178.25 133.52 178.063C133.973 177.876 134.475 177.783 135.025 177.783C135.422 177.783 135.774 177.848 136.082 177.979C136.39 178.11 136.649 178.292 136.859 178.525C137.069 178.758 137.228 179.041 137.335 179.372C137.443 179.703 137.496 180.067 137.496 180.464V185H136.943ZM134.269 184.237C134.489 184.237 134.689 184.216 134.871 184.174C135.053 184.127 135.224 184.064 135.382 183.985C135.546 183.901 135.7 183.801 135.844 183.684C135.994 183.563 136.138 183.427 136.278 183.278V181.808C135.704 181.827 135.214 181.873 134.808 181.948C134.407 182.018 134.078 182.111 133.821 182.228C133.569 182.345 133.385 182.482 133.268 182.641C133.156 182.8 133.1 182.977 133.1 183.173C133.1 183.36 133.131 183.521 133.191 183.656C133.252 183.791 133.334 183.903 133.436 183.992C133.544 184.076 133.667 184.139 133.807 184.181C133.952 184.218 134.106 184.237 134.269 184.237ZM141.476 185.112C140.916 185.112 140.484 184.956 140.181 184.643C139.882 184.33 139.733 183.88 139.733 183.292V178.952H138.879C138.804 178.952 138.741 178.931 138.69 178.889C138.638 178.842 138.613 178.772 138.613 178.679V178.182L139.775 178.035L140.062 175.844C140.076 175.774 140.106 175.718 140.153 175.676C140.204 175.629 140.269 175.606 140.349 175.606H140.979V178.049H145.879V185H144.633V178.952H140.979V183.208C140.979 183.507 141.051 183.728 141.196 183.873C141.34 184.018 141.527 184.09 141.756 184.09C141.886 184.09 141.998 184.074 142.092 184.041C142.19 184.004 142.274 183.964 142.344 183.922C142.414 183.88 142.472 183.843 142.519 183.81C142.57 183.773 142.614 183.754 142.652 183.754C142.717 183.754 142.775 183.794 142.827 183.873L143.191 184.468C142.976 184.669 142.717 184.827 142.414 184.944C142.11 185.056 141.798 185.112 141.476 185.112ZM146.187 175.634C146.187 175.755 146.161 175.87 146.11 175.977C146.063 176.08 145.998 176.171 145.914 176.25C145.834 176.329 145.741 176.392 145.634 176.439C145.526 176.486 145.412 176.509 145.291 176.509C145.169 176.509 145.055 176.486 144.948 176.439C144.845 176.392 144.754 176.329 144.675 176.25C144.595 176.171 144.532 176.08 144.486 175.977C144.439 175.87 144.416 175.755 144.416 175.634C144.416 175.513 144.439 175.398 144.486 175.291C144.532 175.179 144.595 175.083 144.675 175.004C144.754 174.92 144.845 174.855 144.948 174.808C145.055 174.761 145.169 174.738 145.291 174.738C145.412 174.738 145.526 174.761 145.634 174.808C145.741 174.855 145.834 174.92 145.914 175.004C145.998 175.083 146.063 175.179 146.11 175.291C146.161 175.398 146.187 175.513 146.187 175.634ZM150.914 177.797C151.432 177.797 151.899 177.883 152.314 178.056C152.73 178.229 153.084 178.474 153.378 178.791C153.672 179.108 153.896 179.493 154.05 179.946C154.209 180.394 154.288 180.896 154.288 181.451C154.288 182.011 154.209 182.515 154.05 182.963C153.896 183.411 153.672 183.794 153.378 184.111C153.084 184.428 152.73 184.673 152.314 184.846C151.899 185.014 151.432 185.098 150.914 185.098C150.392 185.098 149.92 185.014 149.5 184.846C149.085 184.673 148.73 184.428 148.436 184.111C148.142 183.794 147.916 183.411 147.757 182.963C147.603 182.515 147.526 182.011 147.526 181.451C147.526 180.896 147.603 180.394 147.757 179.946C147.916 179.493 148.142 179.108 148.436 178.791C148.73 178.474 149.085 178.229 149.5 178.056C149.92 177.883 150.392 177.797 150.914 177.797ZM150.914 184.125C151.614 184.125 152.137 183.892 152.482 183.425C152.828 182.954 153 182.298 153 181.458C153 180.613 152.828 179.955 152.482 179.484C152.137 179.013 151.614 178.777 150.914 178.777C150.56 178.777 150.249 178.838 149.983 178.959C149.722 179.08 149.503 179.255 149.325 179.484C149.153 179.713 149.022 179.995 148.933 180.331C148.849 180.662 148.807 181.038 148.807 181.458C148.807 182.298 148.98 182.954 149.325 183.425C149.675 183.892 150.205 184.125 150.914 184.125ZM155.869 185V177.909H156.618C156.795 177.909 156.905 177.995 156.947 178.168L157.045 178.938C157.353 178.597 157.698 178.322 158.081 178.112C158.464 177.902 158.905 177.797 159.404 177.797C159.791 177.797 160.132 177.862 160.426 177.993C160.725 178.119 160.972 178.301 161.168 178.539C161.369 178.772 161.52 179.055 161.623 179.386C161.726 179.717 161.777 180.084 161.777 180.485V185H160.524V180.485C160.524 179.948 160.4 179.533 160.153 179.239C159.91 178.94 159.539 178.791 159.04 178.791C158.667 178.791 158.319 178.88 157.997 179.057C157.68 179.234 157.388 179.475 157.122 179.778V185H155.869ZM168.574 177.909V185H167.328V177.909H168.574ZM168.84 175.683C168.84 175.804 168.814 175.919 168.763 176.026C168.716 176.129 168.651 176.222 168.567 176.306C168.487 176.385 168.392 176.448 168.28 176.495C168.172 176.542 168.058 176.565 167.937 176.565C167.815 176.565 167.701 176.542 167.594 176.495C167.491 176.448 167.4 176.385 167.321 176.306C167.241 176.222 167.178 176.129 167.132 176.026C167.085 175.919 167.062 175.804 167.062 175.683C167.062 175.562 167.085 175.447 167.132 175.34C167.178 175.228 167.241 175.132 167.321 175.053C167.4 174.969 167.491 174.904 167.594 174.857C167.701 174.81 167.815 174.787 167.937 174.787C168.058 174.787 168.172 174.81 168.28 174.857C168.392 174.904 168.487 174.969 168.567 175.053C168.651 175.132 168.716 175.228 168.763 175.34C168.814 175.447 168.84 175.562 168.84 175.683ZM174.751 179.078C174.695 179.181 174.608 179.232 174.492 179.232C174.422 179.232 174.342 179.206 174.254 179.155C174.165 179.104 174.055 179.048 173.925 178.987C173.799 178.922 173.647 178.863 173.47 178.812C173.292 178.756 173.082 178.728 172.84 178.728C172.63 178.728 172.441 178.756 172.273 178.812C172.105 178.863 171.96 178.936 171.839 179.029C171.722 179.122 171.631 179.232 171.566 179.358C171.505 179.479 171.475 179.612 171.475 179.757C171.475 179.939 171.526 180.091 171.629 180.212C171.736 180.333 171.876 180.438 172.049 180.527C172.221 180.616 172.417 180.695 172.637 180.765C172.856 180.83 173.08 180.903 173.309 180.982C173.542 181.057 173.768 181.141 173.988 181.234C174.207 181.327 174.403 181.444 174.576 181.584C174.748 181.724 174.886 181.897 174.989 182.102C175.096 182.303 175.15 182.545 175.15 182.83C175.15 183.157 175.091 183.46 174.975 183.74C174.858 184.015 174.685 184.256 174.457 184.461C174.228 184.662 173.948 184.82 173.617 184.937C173.285 185.054 172.903 185.112 172.469 185.112C171.974 185.112 171.526 185.033 171.125 184.874C170.723 184.711 170.383 184.503 170.103 184.251L170.397 183.775C170.434 183.714 170.478 183.668 170.53 183.635C170.581 183.602 170.646 183.586 170.726 183.586C170.81 183.586 170.898 183.619 170.992 183.684C171.085 183.749 171.197 183.822 171.328 183.901C171.463 183.98 171.626 184.053 171.818 184.118C172.009 184.183 172.247 184.216 172.532 184.216C172.774 184.216 172.987 184.186 173.169 184.125C173.351 184.06 173.502 183.973 173.624 183.866C173.745 183.759 173.834 183.635 173.89 183.495C173.95 183.355 173.981 183.206 173.981 183.047C173.981 182.851 173.927 182.69 173.82 182.564C173.717 182.433 173.579 182.324 173.407 182.235C173.234 182.142 173.036 182.062 172.812 181.997C172.592 181.927 172.366 181.855 172.133 181.78C171.904 181.705 171.678 181.621 171.454 181.528C171.234 181.43 171.038 181.309 170.866 181.164C170.693 181.019 170.553 180.842 170.446 180.632C170.343 180.417 170.292 180.158 170.292 179.855C170.292 179.584 170.348 179.325 170.46 179.078C170.572 178.826 170.735 178.607 170.95 178.42C171.164 178.229 171.428 178.077 171.741 177.965C172.053 177.853 172.41 177.797 172.812 177.797C173.278 177.797 173.696 177.872 174.065 178.021C174.438 178.166 174.76 178.366 175.031 178.623L174.751 179.078ZM184.389 179.078C184.333 179.181 184.247 179.232 184.13 179.232C184.06 179.232 183.981 179.206 183.892 179.155C183.804 179.104 183.694 179.048 183.563 178.987C183.437 178.922 183.286 178.863 183.108 178.812C182.931 178.756 182.721 178.728 182.478 178.728C182.268 178.728 182.079 178.756 181.911 178.812C181.743 178.863 181.599 178.936 181.477 179.029C181.361 179.122 181.27 179.232 181.204 179.358C181.144 179.479 181.113 179.612 181.113 179.757C181.113 179.939 181.165 180.091 181.267 180.212C181.375 180.333 181.515 180.438 181.687 180.527C181.86 180.616 182.056 180.695 182.275 180.765C182.495 180.83 182.719 180.903 182.947 180.982C183.181 181.057 183.407 181.141 183.626 181.234C183.846 181.327 184.042 181.444 184.214 181.584C184.387 181.724 184.525 181.897 184.627 182.102C184.735 182.303 184.788 182.545 184.788 182.83C184.788 183.157 184.73 183.46 184.613 183.74C184.497 184.015 184.324 184.256 184.095 184.461C183.867 184.662 183.587 184.82 183.255 184.937C182.924 185.054 182.541 185.112 182.107 185.112C181.613 185.112 181.165 185.033 180.763 184.874C180.362 184.711 180.021 184.503 179.741 184.251L180.035 183.775C180.073 183.714 180.117 183.668 180.168 183.635C180.22 183.602 180.285 183.586 180.364 183.586C180.448 183.586 180.537 183.619 180.63 183.684C180.724 183.749 180.836 183.822 180.966 183.901C181.102 183.98 181.265 184.053 181.456 184.118C181.648 184.183 181.886 184.216 182.17 184.216C182.413 184.216 182.625 184.186 182.807 184.125C182.989 184.06 183.141 183.973 183.262 183.866C183.384 183.759 183.472 183.635 183.528 183.495C183.589 183.355 183.619 183.206 183.619 183.047C183.619 182.851 183.566 182.69 183.458 182.564C183.356 182.433 183.218 182.324 183.045 182.235C182.873 182.142 182.674 182.062 182.45 181.997C182.231 181.927 182.005 181.855 181.771 181.78C181.543 181.705 181.316 181.621 181.092 181.528C180.873 181.43 180.677 181.309 180.504 181.164C180.332 181.019 180.192 180.842 180.084 180.632C179.982 180.417 179.93 180.158 179.93 179.855C179.93 179.584 179.986 179.325 180.098 179.078C180.21 178.826 180.374 178.607 180.588 178.42C180.803 178.229 181.067 178.077 181.379 177.965C181.692 177.853 182.049 177.797 182.45 177.797C182.917 177.797 183.335 177.872 183.703 178.021C184.077 178.166 184.399 178.366 184.669 178.623L184.389 179.078ZM188.493 185.112C187.933 185.112 187.501 184.956 187.198 184.643C186.899 184.33 186.75 183.88 186.75 183.292V178.952H185.896C185.821 178.952 185.758 178.931 185.707 178.889C185.656 178.842 185.63 178.772 185.63 178.679V178.182L186.792 178.035L187.079 175.844C187.093 175.774 187.123 175.718 187.17 175.676C187.221 175.629 187.287 175.606 187.366 175.606H187.996V178.049H190.047V178.952H187.996V183.208C187.996 183.507 188.068 183.728 188.213 183.873C188.358 184.018 188.544 184.09 188.773 184.09C188.904 184.09 189.016 184.074 189.109 184.041C189.207 184.004 189.291 183.964 189.361 183.922C189.431 183.88 189.489 183.843 189.536 183.81C189.587 183.773 189.632 183.754 189.669 183.754C189.734 183.754 189.793 183.794 189.844 183.873L190.208 184.468C189.993 184.669 189.734 184.827 189.431 184.944C189.128 185.056 188.815 185.112 188.493 185.112ZM194.323 177.797C194.841 177.797 195.307 177.883 195.723 178.056C196.138 178.229 196.493 178.474 196.787 178.791C197.081 179.108 197.305 179.493 197.459 179.946C197.617 180.394 197.697 180.896 197.697 181.451C197.697 182.011 197.617 182.515 197.459 182.963C197.305 183.411 197.081 183.794 196.787 184.111C196.493 184.428 196.138 184.673 195.723 184.846C195.307 185.014 194.841 185.098 194.323 185.098C193.8 185.098 193.329 185.014 192.909 184.846C192.493 184.673 192.139 184.428 191.845 184.111C191.551 183.794 191.324 183.411 191.166 182.963C191.012 182.515 190.935 182.011 190.935 181.451C190.935 180.896 191.012 180.394 191.166 179.946C191.324 179.493 191.551 179.108 191.845 178.791C192.139 178.474 192.493 178.229 192.909 178.056C193.329 177.883 193.8 177.797 194.323 177.797ZM194.323 184.125C195.023 184.125 195.545 183.892 195.891 183.425C196.236 182.954 196.409 182.298 196.409 181.458C196.409 180.613 196.236 179.955 195.891 179.484C195.545 179.013 195.023 178.777 194.323 178.777C193.968 178.777 193.658 178.838 193.392 178.959C193.13 179.08 192.911 179.255 192.734 179.484C192.561 179.713 192.43 179.995 192.342 180.331C192.258 180.662 192.216 181.038 192.216 181.458C192.216 182.298 192.388 182.954 192.734 183.425C193.084 183.892 193.613 184.125 194.323 184.125ZM199.277 185V177.909H199.991C200.126 177.909 200.22 177.935 200.271 177.986C200.322 178.037 200.357 178.126 200.376 178.252L200.453 179.33C200.677 178.845 200.952 178.467 201.279 178.196C201.61 177.921 202.012 177.783 202.483 177.783C202.632 177.783 202.775 177.799 202.91 177.832C203.05 177.865 203.174 177.916 203.281 177.986L203.19 178.917C203.162 179.034 203.092 179.092 202.98 179.092C202.915 179.092 202.819 179.078 202.693 179.05C202.567 179.022 202.425 179.008 202.266 179.008C202.042 179.008 201.841 179.043 201.664 179.113C201.487 179.178 201.328 179.276 201.188 179.407C201.053 179.533 200.931 179.689 200.824 179.876C200.717 180.063 200.619 180.277 200.53 180.52V185H199.277ZM206.995 177.797C207.419 177.797 207.811 177.869 208.171 178.014C208.535 178.154 208.847 178.359 209.109 178.63C209.375 178.896 209.582 179.227 209.732 179.624C209.881 180.016 209.956 180.464 209.956 180.968C209.956 181.164 209.935 181.295 209.893 181.36C209.851 181.425 209.771 181.458 209.655 181.458H204.916C204.925 181.906 204.986 182.296 205.098 182.627C205.21 182.958 205.364 183.236 205.56 183.46C205.756 183.679 205.989 183.845 206.26 183.957C206.53 184.064 206.834 184.118 207.17 184.118C207.482 184.118 207.751 184.083 207.975 184.013C208.203 183.938 208.399 183.859 208.563 183.775C208.726 183.691 208.861 183.614 208.969 183.544C209.081 183.469 209.176 183.432 209.256 183.432C209.358 183.432 209.438 183.472 209.494 183.551L209.844 184.006C209.69 184.193 209.505 184.356 209.291 184.496C209.076 184.631 208.845 184.743 208.598 184.832C208.355 184.921 208.103 184.986 207.842 185.028C207.58 185.075 207.321 185.098 207.065 185.098C206.575 185.098 206.122 185.016 205.707 184.853C205.296 184.685 204.939 184.442 204.636 184.125C204.337 183.803 204.104 183.406 203.936 182.935C203.768 182.464 203.684 181.922 203.684 181.311C203.684 180.816 203.758 180.354 203.908 179.925C204.062 179.496 204.281 179.125 204.566 178.812C204.85 178.495 205.198 178.247 205.609 178.07C206.019 177.888 206.481 177.797 206.995 177.797ZM207.023 178.714C206.421 178.714 205.947 178.889 205.602 179.239C205.256 179.584 205.042 180.065 204.958 180.681H208.836C208.836 180.392 208.794 180.128 208.71 179.89C208.63 179.647 208.511 179.44 208.353 179.267C208.199 179.09 208.01 178.954 207.786 178.861C207.562 178.763 207.307 178.714 207.023 178.714ZM216.61 185C216.433 185 216.321 184.914 216.274 184.741L216.162 183.88C215.859 184.249 215.511 184.545 215.119 184.769C214.732 184.988 214.286 185.098 213.782 185.098C213.376 185.098 213.007 185.021 212.676 184.867C212.345 184.708 212.062 184.477 211.829 184.174C211.596 183.871 211.416 183.493 211.29 183.04C211.164 182.587 211.101 182.067 211.101 181.479C211.101 180.956 211.171 180.471 211.311 180.023C211.451 179.57 211.652 179.178 211.913 178.847C212.174 178.516 212.494 178.257 212.872 178.07C213.255 177.879 213.684 177.783 214.16 177.783C214.594 177.783 214.965 177.858 215.273 178.007C215.586 178.152 215.863 178.357 216.106 178.623V174.689H217.352V185H216.61ZM214.188 184.09C214.599 184.09 214.956 183.997 215.259 183.81C215.567 183.623 215.849 183.36 216.106 183.019V179.596C215.873 179.288 215.621 179.071 215.35 178.945C215.079 178.819 214.776 178.756 214.44 178.756C213.782 178.756 213.276 178.992 212.921 179.463C212.566 179.934 212.389 180.606 212.389 181.479C212.389 181.941 212.429 182.338 212.508 182.669C212.587 182.996 212.704 183.266 212.858 183.481C213.012 183.691 213.201 183.845 213.425 183.943C213.649 184.041 213.903 184.09 214.188 184.09ZM61.2953 194.797C61.8133 194.797 62.28 194.883 62.6953 195.056C63.1107 195.229 63.4653 195.474 63.7593 195.791C64.0533 196.108 64.2773 196.493 64.4313 196.946C64.59 197.394 64.6693 197.896 64.6693 198.451C64.6693 199.011 64.59 199.515 64.4313 199.963C64.2773 200.411 64.0533 200.794 63.7593 201.111C63.4653 201.428 63.1107 201.673 62.6953 201.846C62.28 202.014 61.8133 202.098 61.2953 202.098C60.7727 202.098 60.3013 202.014 59.8813 201.846C59.466 201.673 59.1113 201.428 58.8173 201.111C58.5233 200.794 58.297 200.411 58.1383 199.963C57.9843 199.515 57.9073 199.011 57.9073 198.451C57.9073 197.896 57.9843 197.394 58.1383 196.946C58.297 196.493 58.5233 196.108 58.8173 195.791C59.1113 195.474 59.466 195.229 59.8813 195.056C60.3013 194.883 60.7727 194.797 61.2953 194.797ZM61.2953 201.125C61.9953 201.125 62.518 200.892 62.8633 200.425C63.2087 199.954 63.3813 199.298 63.3813 198.458C63.3813 197.613 63.2087 196.955 62.8633 196.484C62.518 196.013 61.9953 195.777 61.2953 195.777C60.9407 195.777 60.6303 195.838 60.3643 195.959C60.103 196.08 59.8837 196.255 59.7063 196.484C59.5337 196.713 59.403 196.995 59.3143 197.331C59.2303 197.662 59.1883 198.038 59.1883 198.458C59.1883 199.298 59.361 199.954 59.7063 200.425C60.0563 200.892 60.586 201.125 61.2953 201.125ZM66.2497 202V194.909H66.9987C67.176 194.909 67.2857 194.995 67.3277 195.168L67.4257 195.938C67.7337 195.597 68.079 195.322 68.4617 195.112C68.8444 194.902 69.2854 194.797 69.7847 194.797C70.172 194.797 70.5127 194.862 70.8067 194.993C71.1054 195.119 71.3527 195.301 71.5487 195.539C71.7494 195.772 71.901 196.055 72.0037 196.386C72.1064 196.717 72.1577 197.084 72.1577 197.485V202H70.9047V197.485C70.9047 196.948 70.781 196.533 70.5337 196.239C70.291 195.94 69.92 195.791 69.4207 195.791C69.0474 195.791 68.6997 195.88 68.3777 196.057C68.0604 196.234 67.7687 196.475 67.5027 196.778V202H66.2497ZM81.7684 196.078C81.7124 196.181 81.626 196.232 81.5094 196.232C81.4394 196.232 81.36 196.206 81.2714 196.155C81.1827 196.104 81.073 196.048 80.9424 195.987C80.8164 195.922 80.6647 195.863 80.4874 195.812C80.31 195.756 80.1 195.728 79.8574 195.728C79.6474 195.728 79.4584 195.756 79.2904 195.812C79.1224 195.863 78.9777 195.936 78.8564 196.029C78.7397 196.122 78.6487 196.232 78.5834 196.358C78.5227 196.479 78.4924 196.612 78.4924 196.757C78.4924 196.939 78.5437 197.091 78.6464 197.212C78.7537 197.333 78.8937 197.438 79.0664 197.527C79.239 197.616 79.435 197.695 79.6544 197.765C79.8737 197.83 80.0977 197.903 80.3264 197.982C80.5597 198.057 80.786 198.141 81.0054 198.234C81.2247 198.327 81.4207 198.444 81.5934 198.584C81.766 198.724 81.9037 198.897 82.0064 199.102C82.1137 199.303 82.1674 199.545 82.1674 199.83C82.1674 200.157 82.109 200.46 81.9924 200.74C81.8757 201.015 81.703 201.256 81.4744 201.461C81.2457 201.662 80.9657 201.82 80.6344 201.937C80.303 202.054 79.9204 202.112 79.4864 202.112C78.9917 202.112 78.5437 202.033 78.1424 201.874C77.741 201.711 77.4004 201.503 77.1204 201.251L77.4144 200.775C77.4517 200.714 77.496 200.668 77.5474 200.635C77.5987 200.602 77.664 200.586 77.7434 200.586C77.8274 200.586 77.916 200.619 78.0094 200.684C78.1027 200.749 78.2147 200.822 78.3454 200.901C78.4807 200.98 78.644 201.053 78.8354 201.118C79.0267 201.183 79.2647 201.216 79.5494 201.216C79.792 201.216 80.0044 201.186 80.1864 201.125C80.3684 201.06 80.52 200.973 80.6414 200.866C80.7627 200.759 80.8514 200.635 80.9074 200.495C80.968 200.355 80.9984 200.206 80.9984 200.047C80.9984 199.851 80.9447 199.69 80.8374 199.564C80.7347 199.433 80.597 199.324 80.4244 199.235C80.2517 199.142 80.0534 199.062 79.8294 198.997C79.61 198.927 79.3837 198.855 79.1504 198.78C78.9217 198.705 78.6954 198.621 78.4714 198.528C78.252 198.43 78.056 198.309 77.8834 198.164C77.7107 198.019 77.5707 197.842 77.4634 197.632C77.3607 197.417 77.3094 197.158 77.3094 196.855C77.3094 196.584 77.3654 196.325 77.4774 196.078C77.5894 195.826 77.7527 195.607 77.9674 195.42C78.182 195.229 78.4457 195.077 78.7584 194.965C79.071 194.853 79.428 194.797 79.8294 194.797C80.296 194.797 80.7137 194.872 81.0824 195.021C81.4557 195.166 81.7777 195.366 82.0484 195.623L81.7684 196.078ZM86.6 194.797C87.0247 194.797 87.4167 194.869 87.776 195.014C88.14 195.154 88.4527 195.359 88.714 195.63C88.98 195.896 89.1877 196.227 89.337 196.624C89.4863 197.016 89.561 197.464 89.561 197.968C89.561 198.164 89.54 198.295 89.498 198.36C89.456 198.425 89.3767 198.458 89.26 198.458H84.521C84.5303 198.906 84.591 199.296 84.703 199.627C84.815 199.958 84.969 200.236 85.165 200.46C85.361 200.679 85.5943 200.845 85.865 200.957C86.1357 201.064 86.439 201.118 86.775 201.118C87.0877 201.118 87.356 201.083 87.58 201.013C87.8087 200.938 88.0047 200.859 88.168 200.775C88.3313 200.691 88.4667 200.614 88.574 200.544C88.686 200.469 88.7817 200.432 88.861 200.432C88.9637 200.432 89.043 200.472 89.099 200.551L89.449 201.006C89.295 201.193 89.1107 201.356 88.896 201.496C88.6813 201.631 88.4503 201.743 88.203 201.832C87.9603 201.921 87.7083 201.986 87.447 202.028C87.1857 202.075 86.9267 202.098 86.67 202.098C86.18 202.098 85.7273 202.016 85.312 201.853C84.9013 201.685 84.5443 201.442 84.241 201.125C83.9423 200.803 83.709 200.406 83.541 199.935C83.373 199.464 83.289 198.922 83.289 198.311C83.289 197.816 83.3637 197.354 83.513 196.925C83.667 196.496 83.8863 196.125 84.171 195.812C84.4557 195.495 84.8033 195.247 85.214 195.07C85.6247 194.888 86.0867 194.797 86.6 194.797ZM86.628 195.714C86.026 195.714 85.5523 195.889 85.207 196.239C84.8617 196.584 84.647 197.065 84.563 197.681H88.441C88.441 197.392 88.399 197.128 88.315 196.89C88.2357 196.647 88.1167 196.44 87.958 196.267C87.804 196.09 87.615 195.954 87.391 195.861C87.167 195.763 86.9127 195.714 86.628 195.714ZM96.0265 196.169C95.9892 196.22 95.9518 196.26 95.9145 196.288C95.8772 196.316 95.8258 196.33 95.7605 196.33C95.6905 196.33 95.6135 196.302 95.5295 196.246C95.4455 196.185 95.3405 196.12 95.2145 196.05C95.0932 195.98 94.9415 195.917 94.7595 195.861C94.5822 195.8 94.3628 195.77 94.1015 195.77C93.7515 195.77 93.4435 195.833 93.1775 195.959C92.9115 196.08 92.6875 196.258 92.5055 196.491C92.3282 196.724 92.1928 197.007 92.0995 197.338C92.0108 197.669 91.9665 198.04 91.9665 198.451C91.9665 198.88 92.0155 199.263 92.1135 199.599C92.2115 199.93 92.3492 200.21 92.5265 200.439C92.7085 200.663 92.9255 200.836 93.1775 200.957C93.4342 201.074 93.7212 201.132 94.0385 201.132C94.3418 201.132 94.5915 201.097 94.7875 201.027C94.9835 200.952 95.1445 200.871 95.2705 200.782C95.4012 200.693 95.5085 200.614 95.5925 200.544C95.6812 200.469 95.7675 200.432 95.8515 200.432C95.9542 200.432 96.0335 200.472 96.0895 200.551L96.4395 201.006C96.2855 201.197 96.1105 201.361 95.9145 201.496C95.7185 201.631 95.5062 201.746 95.2775 201.839C95.0535 201.928 94.8178 201.993 94.5705 202.035C94.3232 202.077 94.0712 202.098 93.8145 202.098C93.3712 202.098 92.9582 202.016 92.5755 201.853C92.1975 201.69 91.8685 201.454 91.5885 201.146C91.3085 200.833 91.0892 200.451 90.9305 199.998C90.7718 199.545 90.6925 199.03 90.6925 198.451C90.6925 197.924 90.7648 197.436 90.9095 196.988C91.0588 196.54 91.2735 196.155 91.5535 195.833C91.8382 195.506 92.1858 195.252 92.5965 195.07C93.0118 194.888 93.4878 194.797 94.0245 194.797C94.5238 194.797 94.9625 194.879 95.3405 195.042C95.7232 195.201 96.0615 195.427 96.3555 195.721L96.0265 196.169ZM98.953 194.909V199.431C98.953 199.968 99.0744 200.383 99.317 200.677C99.5644 200.971 99.94 201.118 100.444 201.118C100.808 201.118 101.151 201.032 101.473 200.859C101.795 200.686 102.091 200.446 102.362 200.138V194.909H103.608V202H102.866C102.689 202 102.577 201.914 102.53 201.741L102.432 200.978C102.124 201.319 101.779 201.594 101.396 201.804C101.013 202.009 100.575 202.112 100.08 202.112C99.6927 202.112 99.3497 202.049 99.051 201.923C98.757 201.792 98.5097 201.61 98.309 201.377C98.1084 201.144 97.9567 200.861 97.854 200.53C97.756 200.199 97.707 199.832 97.707 199.431V194.909H98.953ZM105.584 202V194.909H106.298C106.433 194.909 106.526 194.935 106.578 194.986C106.629 195.037 106.664 195.126 106.683 195.252L106.76 196.33C106.984 195.845 107.259 195.467 107.586 195.196C107.917 194.921 108.318 194.783 108.79 194.783C108.939 194.783 109.081 194.799 109.217 194.832C109.357 194.865 109.48 194.916 109.588 194.986L109.497 195.917C109.469 196.034 109.399 196.092 109.287 196.092C109.221 196.092 109.126 196.078 109 196.05C108.874 196.022 108.731 196.008 108.573 196.008C108.349 196.008 108.148 196.043 107.971 196.113C107.793 196.178 107.635 196.276 107.495 196.407C107.359 196.533 107.238 196.689 107.131 196.876C107.023 197.063 106.925 197.277 106.837 197.52V202H105.584ZM113.301 194.797C113.726 194.797 114.118 194.869 114.477 195.014C114.841 195.154 115.154 195.359 115.415 195.63C115.681 195.896 115.889 196.227 116.038 196.624C116.188 197.016 116.262 197.464 116.262 197.968C116.262 198.164 116.241 198.295 116.199 198.36C116.157 198.425 116.078 198.458 115.961 198.458H111.222C111.232 198.906 111.292 199.296 111.404 199.627C111.516 199.958 111.67 200.236 111.866 200.46C112.062 200.679 112.296 200.845 112.566 200.957C112.837 201.064 113.14 201.118 113.476 201.118C113.789 201.118 114.057 201.083 114.281 201.013C114.51 200.938 114.706 200.859 114.869 200.775C115.033 200.691 115.168 200.614 115.275 200.544C115.387 200.469 115.483 200.432 115.562 200.432C115.665 200.432 115.744 200.472 115.8 200.551L116.15 201.006C115.996 201.193 115.812 201.356 115.597 201.496C115.383 201.631 115.152 201.743 114.904 201.832C114.662 201.921 114.41 201.986 114.148 202.028C113.887 202.075 113.628 202.098 113.371 202.098C112.881 202.098 112.429 202.016 112.013 201.853C111.603 201.685 111.246 201.442 110.942 201.125C110.644 200.803 110.41 200.406 110.242 199.935C110.074 199.464 109.99 198.922 109.99 198.311C109.99 197.816 110.065 197.354 110.214 196.925C110.368 196.496 110.588 196.125 110.872 195.812C111.157 195.495 111.505 195.247 111.915 195.07C112.326 194.888 112.788 194.797 113.301 194.797ZM113.329 195.714C112.727 195.714 112.254 195.889 111.908 196.239C111.563 196.584 111.348 197.065 111.264 197.681H115.142C115.142 197.392 115.1 197.128 115.016 196.89C114.937 196.647 114.818 196.44 114.659 196.267C114.505 196.09 114.316 195.954 114.092 195.861C113.868 195.763 113.614 195.714 113.329 195.714ZM126.31 196.169C126.272 196.22 126.235 196.26 126.198 196.288C126.16 196.316 126.109 196.33 126.044 196.33C125.974 196.33 125.897 196.302 125.813 196.246C125.729 196.185 125.624 196.12 125.498 196.05C125.376 195.98 125.225 195.917 125.043 195.861C124.865 195.8 124.646 195.77 124.385 195.77C124.035 195.77 123.727 195.833 123.461 195.959C123.195 196.08 122.971 196.258 122.789 196.491C122.611 196.724 122.476 197.007 122.383 197.338C122.294 197.669 122.25 198.04 122.25 198.451C122.25 198.88 122.299 199.263 122.397 199.599C122.495 199.93 122.632 200.21 122.81 200.439C122.992 200.663 123.209 200.836 123.461 200.957C123.717 201.074 124.004 201.132 124.322 201.132C124.625 201.132 124.875 201.097 125.071 201.027C125.267 200.952 125.428 200.871 125.554 200.782C125.684 200.693 125.792 200.614 125.876 200.544C125.964 200.469 126.051 200.432 126.135 200.432C126.237 200.432 126.317 200.472 126.373 200.551L126.723 201.006C126.569 201.197 126.394 201.361 126.198 201.496C126.002 201.631 125.789 201.746 125.561 201.839C125.337 201.928 125.101 201.993 124.854 202.035C124.606 202.077 124.354 202.098 124.098 202.098C123.654 202.098 123.241 202.016 122.859 201.853C122.481 201.69 122.152 201.454 121.872 201.146C121.592 200.833 121.372 200.451 121.214 199.998C121.055 199.545 120.976 199.03 120.976 198.451C120.976 197.924 121.048 197.436 121.193 196.988C121.342 196.54 121.557 196.155 121.837 195.833C122.121 195.506 122.469 195.252 122.88 195.07C123.295 194.888 123.771 194.797 124.308 194.797C124.807 194.797 125.246 194.879 125.624 195.042C126.006 195.201 126.345 195.427 126.639 195.721L126.31 196.169ZM129.348 191.689V202H128.102V191.689H129.348ZM134.358 194.797C134.876 194.797 135.343 194.883 135.758 195.056C136.173 195.229 136.528 195.474 136.822 195.791C137.116 196.108 137.34 196.493 137.494 196.946C137.653 197.394 137.732 197.896 137.732 198.451C137.732 199.011 137.653 199.515 137.494 199.963C137.34 200.411 137.116 200.794 136.822 201.111C136.528 201.428 136.173 201.673 135.758 201.846C135.343 202.014 134.876 202.098 134.358 202.098C133.835 202.098 133.364 202.014 132.944 201.846C132.529 201.673 132.174 201.428 131.88 201.111C131.586 200.794 131.36 200.411 131.201 199.963C131.047 199.515 130.97 199.011 130.97 198.451C130.97 197.896 131.047 197.394 131.201 196.946C131.36 196.493 131.586 196.108 131.88 195.791C132.174 195.474 132.529 195.229 132.944 195.056C133.364 194.883 133.835 194.797 134.358 194.797ZM134.358 201.125C135.058 201.125 135.581 200.892 135.926 200.425C136.271 199.954 136.444 199.298 136.444 198.458C136.444 197.613 136.271 196.955 135.926 196.484C135.581 196.013 135.058 195.777 134.358 195.777C134.003 195.777 133.693 195.838 133.427 195.959C133.166 196.08 132.946 196.255 132.769 196.484C132.596 196.713 132.466 196.995 132.377 197.331C132.293 197.662 132.251 198.038 132.251 198.458C132.251 199.298 132.424 199.954 132.769 200.425C133.119 200.892 133.649 201.125 134.358 201.125ZM140.488 194.909V199.431C140.488 199.968 140.61 200.383 140.852 200.677C141.1 200.971 141.475 201.118 141.979 201.118C142.343 201.118 142.686 201.032 143.008 200.859C143.33 200.686 143.627 200.446 143.897 200.138V194.909H145.143V202H144.401C144.224 202 144.112 201.914 144.065 201.741L143.967 200.978C143.659 201.319 143.314 201.594 142.931 201.804C142.549 202.009 142.11 202.112 141.615 202.112C141.228 202.112 140.885 202.049 140.586 201.923C140.292 201.792 140.045 201.61 139.844 201.377C139.644 201.144 139.492 200.861 139.389 200.53C139.291 200.199 139.242 199.832 139.242 199.431V194.909H140.488ZM152.243 202C152.066 202 151.954 201.914 151.907 201.741L151.795 200.88C151.492 201.249 151.144 201.545 150.752 201.769C150.365 201.988 149.919 202.098 149.415 202.098C149.009 202.098 148.64 202.021 148.309 201.867C147.978 201.708 147.695 201.477 147.462 201.174C147.229 200.871 147.049 200.493 146.923 200.04C146.797 199.587 146.734 199.067 146.734 198.479C146.734 197.956 146.804 197.471 146.944 197.023C147.084 196.57 147.285 196.178 147.546 195.847C147.807 195.516 148.127 195.257 148.505 195.07C148.888 194.879 149.317 194.783 149.793 194.783C150.227 194.783 150.598 194.858 150.906 195.007C151.219 195.152 151.496 195.357 151.739 195.623V191.689H152.985V202H152.243ZM149.821 201.09C150.232 201.09 150.589 200.997 150.892 200.81C151.2 200.623 151.482 200.36 151.739 200.019V196.596C151.506 196.288 151.254 196.071 150.983 195.945C150.712 195.819 150.409 195.756 150.073 195.756C149.415 195.756 148.909 195.992 148.554 196.463C148.199 196.934 148.022 197.606 148.022 198.479C148.022 198.941 148.062 199.338 148.141 199.669C148.22 199.996 148.337 200.266 148.491 200.481C148.645 200.691 148.834 200.845 149.058 200.943C149.282 201.041 149.536 201.09 149.821 201.09ZM162.665 196.078C162.609 196.181 162.523 196.232 162.406 196.232C162.336 196.232 162.257 196.206 162.168 196.155C162.079 196.104 161.97 196.048 161.839 195.987C161.713 195.922 161.561 195.863 161.384 195.812C161.207 195.756 160.997 195.728 160.754 195.728C160.544 195.728 160.355 195.756 160.187 195.812C160.019 195.863 159.874 195.936 159.753 196.029C159.636 196.122 159.545 196.232 159.48 196.358C159.419 196.479 159.389 196.612 159.389 196.757C159.389 196.939 159.44 197.091 159.543 197.212C159.65 197.333 159.79 197.438 159.963 197.527C160.136 197.616 160.332 197.695 160.551 197.765C160.77 197.83 160.994 197.903 161.223 197.982C161.456 198.057 161.683 198.141 161.902 198.234C162.121 198.327 162.317 198.444 162.49 198.584C162.663 198.724 162.8 198.897 162.903 199.102C163.01 199.303 163.064 199.545 163.064 199.83C163.064 200.157 163.006 200.46 162.889 200.74C162.772 201.015 162.6 201.256 162.371 201.461C162.142 201.662 161.862 201.82 161.531 201.937C161.2 202.054 160.817 202.112 160.383 202.112C159.888 202.112 159.44 202.033 159.039 201.874C158.638 201.711 158.297 201.503 158.017 201.251L158.311 200.775C158.348 200.714 158.393 200.668 158.444 200.635C158.495 200.602 158.561 200.586 158.64 200.586C158.724 200.586 158.813 200.619 158.906 200.684C158.999 200.749 159.111 200.822 159.242 200.901C159.377 200.98 159.541 201.053 159.732 201.118C159.923 201.183 160.161 201.216 160.446 201.216C160.689 201.216 160.901 201.186 161.083 201.125C161.265 201.06 161.417 200.973 161.538 200.866C161.659 200.759 161.748 200.635 161.804 200.495C161.865 200.355 161.895 200.206 161.895 200.047C161.895 199.851 161.841 199.69 161.734 199.564C161.631 199.433 161.494 199.324 161.321 199.235C161.148 199.142 160.95 199.062 160.726 198.997C160.507 198.927 160.28 198.855 160.047 198.78C159.818 198.705 159.592 198.621 159.368 198.528C159.149 198.43 158.953 198.309 158.78 198.164C158.607 198.019 158.467 197.842 158.36 197.632C158.257 197.417 158.206 197.158 158.206 196.855C158.206 196.584 158.262 196.325 158.374 196.078C158.486 195.826 158.649 195.607 158.864 195.42C159.079 195.229 159.342 195.077 159.655 194.965C159.968 194.853 160.325 194.797 160.726 194.797C161.193 194.797 161.61 194.872 161.979 195.021C162.352 195.166 162.674 195.366 162.945 195.623L162.665 196.078ZM167.496 194.797C167.921 194.797 168.313 194.869 168.672 195.014C169.036 195.154 169.349 195.359 169.61 195.63C169.876 195.896 170.084 196.227 170.233 196.624C170.383 197.016 170.457 197.464 170.457 197.968C170.457 198.164 170.436 198.295 170.394 198.36C170.352 198.425 170.273 198.458 170.156 198.458H165.417C165.427 198.906 165.487 199.296 165.599 199.627C165.711 199.958 165.865 200.236 166.061 200.46C166.257 200.679 166.491 200.845 166.761 200.957C167.032 201.064 167.335 201.118 167.671 201.118C167.984 201.118 168.252 201.083 168.476 201.013C168.705 200.938 168.901 200.859 169.064 200.775C169.228 200.691 169.363 200.614 169.47 200.544C169.582 200.469 169.678 200.432 169.757 200.432C169.86 200.432 169.939 200.472 169.995 200.551L170.345 201.006C170.191 201.193 170.007 201.356 169.792 201.496C169.578 201.631 169.347 201.743 169.099 201.832C168.857 201.921 168.605 201.986 168.343 202.028C168.082 202.075 167.823 202.098 167.566 202.098C167.076 202.098 166.624 202.016 166.208 201.853C165.798 201.685 165.441 201.442 165.137 201.125C164.839 200.803 164.605 200.406 164.437 199.935C164.269 199.464 164.185 198.922 164.185 198.311C164.185 197.816 164.26 197.354 164.409 196.925C164.563 196.496 164.783 196.125 165.067 195.812C165.352 195.495 165.7 195.247 166.11 195.07C166.521 194.888 166.983 194.797 167.496 194.797ZM167.524 195.714C166.922 195.714 166.449 195.889 166.103 196.239C165.758 196.584 165.543 197.065 165.459 197.681H169.337C169.337 197.392 169.295 197.128 169.211 196.89C169.132 196.647 169.013 196.44 168.854 196.267C168.7 196.09 168.511 195.954 168.287 195.861C168.063 195.763 167.809 195.714 167.524 195.714ZM171.988 202V194.909H172.702C172.837 194.909 172.931 194.935 172.982 194.986C173.033 195.037 173.068 195.126 173.087 195.252L173.164 196.33C173.388 195.845 173.663 195.467 173.99 195.196C174.321 194.921 174.723 194.783 175.194 194.783C175.343 194.783 175.486 194.799 175.621 194.832C175.761 194.865 175.885 194.916 175.992 194.986L175.901 195.917C175.873 196.034 175.803 196.092 175.691 196.092C175.626 196.092 175.53 196.078 175.404 196.05C175.278 196.022 175.136 196.008 174.977 196.008C174.753 196.008 174.552 196.043 174.375 196.113C174.198 196.178 174.039 196.276 173.899 196.407C173.764 196.533 173.642 196.689 173.535 196.876C173.428 197.063 173.33 197.277 173.241 197.52V202H171.988ZM176.262 194.909H177.277C177.379 194.909 177.463 194.935 177.529 194.986C177.594 195.037 177.638 195.098 177.662 195.168L179.461 199.732C179.517 199.905 179.566 200.073 179.608 200.236C179.65 200.399 179.689 200.563 179.727 200.726C179.764 200.563 179.804 200.399 179.846 200.236C179.888 200.073 179.939 199.905 180 199.732L181.82 195.168C181.848 195.093 181.894 195.033 181.96 194.986C182.025 194.935 182.102 194.909 182.191 194.909H183.164L180.273 202H179.153L176.262 194.909ZM187.02 194.797C187.445 194.797 187.837 194.869 188.196 195.014C188.56 195.154 188.873 195.359 189.134 195.63C189.4 195.896 189.608 196.227 189.757 196.624C189.906 197.016 189.981 197.464 189.981 197.968C189.981 198.164 189.96 198.295 189.918 198.36C189.876 198.425 189.797 198.458 189.68 198.458H184.941C184.95 198.906 185.011 199.296 185.123 199.627C185.235 199.958 185.389 200.236 185.585 200.46C185.781 200.679 186.014 200.845 186.285 200.957C186.556 201.064 186.859 201.118 187.195 201.118C187.508 201.118 187.776 201.083 188 201.013C188.229 200.938 188.425 200.859 188.588 200.775C188.751 200.691 188.887 200.614 188.994 200.544C189.106 200.469 189.202 200.432 189.281 200.432C189.384 200.432 189.463 200.472 189.519 200.551L189.869 201.006C189.715 201.193 189.531 201.356 189.316 201.496C189.101 201.631 188.87 201.743 188.623 201.832C188.38 201.921 188.128 201.986 187.867 202.028C187.606 202.075 187.347 202.098 187.09 202.098C186.6 202.098 186.147 202.016 185.732 201.853C185.321 201.685 184.964 201.442 184.661 201.125C184.362 200.803 184.129 200.406 183.961 199.935C183.793 199.464 183.709 198.922 183.709 198.311C183.709 197.816 183.784 197.354 183.933 196.925C184.087 196.496 184.306 196.125 184.591 195.812C184.876 195.495 185.223 195.247 185.634 195.07C186.045 194.888 186.507 194.797 187.02 194.797ZM187.048 195.714C186.446 195.714 185.972 195.889 185.627 196.239C185.282 196.584 185.067 197.065 184.983 197.681H188.861C188.861 197.392 188.819 197.128 188.735 196.89C188.656 196.647 188.537 196.44 188.378 196.267C188.224 196.09 188.035 195.954 187.811 195.861C187.587 195.763 187.333 195.714 187.048 195.714ZM191.511 202V194.909H192.225C192.361 194.909 192.454 194.935 192.505 194.986C192.557 195.037 192.592 195.126 192.61 195.252L192.687 196.33C192.911 195.845 193.187 195.467 193.513 195.196C193.845 194.921 194.246 194.783 194.717 194.783C194.867 194.783 195.009 194.799 195.144 194.832C195.284 194.865 195.408 194.916 195.515 194.986L195.424 195.917C195.396 196.034 195.326 196.092 195.214 196.092C195.149 196.092 195.053 196.078 194.927 196.05C194.801 196.022 194.659 196.008 194.5 196.008C194.276 196.008 194.076 196.043 193.898 196.113C193.721 196.178 193.562 196.276 193.422 196.407C193.287 196.533 193.166 196.689 193.058 196.876C192.951 197.063 192.853 197.277 192.764 197.52V202H191.511ZM200.741 196.078C200.685 196.181 200.599 196.232 200.482 196.232C200.412 196.232 200.333 196.206 200.244 196.155C200.155 196.104 200.046 196.048 199.915 195.987C199.789 195.922 199.637 195.863 199.46 195.812C199.283 195.756 199.073 195.728 198.83 195.728C198.62 195.728 198.431 195.756 198.263 195.812C198.095 195.863 197.95 195.936 197.829 196.029C197.712 196.122 197.621 196.232 197.556 196.358C197.495 196.479 197.465 196.612 197.465 196.757C197.465 196.939 197.516 197.091 197.619 197.212C197.726 197.333 197.866 197.438 198.039 197.527C198.212 197.616 198.408 197.695 198.627 197.765C198.846 197.83 199.07 197.903 199.299 197.982C199.532 198.057 199.759 198.141 199.978 198.234C200.197 198.327 200.393 198.444 200.566 198.584C200.739 198.724 200.876 198.897 200.979 199.102C201.086 199.303 201.14 199.545 201.14 199.83C201.14 200.157 201.082 200.46 200.965 200.74C200.848 201.015 200.676 201.256 200.447 201.461C200.218 201.662 199.938 201.82 199.607 201.937C199.276 202.054 198.893 202.112 198.459 202.112C197.964 202.112 197.516 202.033 197.115 201.874C196.714 201.711 196.373 201.503 196.093 201.251L196.387 200.775C196.424 200.714 196.469 200.668 196.52 200.635C196.571 200.602 196.637 200.586 196.716 200.586C196.8 200.586 196.889 200.619 196.982 200.684C197.075 200.749 197.187 200.822 197.318 200.901C197.453 200.98 197.617 201.053 197.808 201.118C197.999 201.183 198.237 201.216 198.522 201.216C198.765 201.216 198.977 201.186 199.159 201.125C199.341 201.06 199.493 200.973 199.614 200.866C199.735 200.759 199.824 200.635 199.88 200.495C199.941 200.355 199.971 200.206 199.971 200.047C199.971 199.851 199.917 199.69 199.81 199.564C199.707 199.433 199.57 199.324 199.397 199.235C199.224 199.142 199.026 199.062 198.802 198.997C198.583 198.927 198.356 198.855 198.123 198.78C197.894 198.705 197.668 198.621 197.444 198.528C197.225 198.43 197.029 198.309 196.856 198.164C196.683 198.019 196.543 197.842 196.436 197.632C196.333 197.417 196.282 197.158 196.282 196.855C196.282 196.584 196.338 196.325 196.45 196.078C196.562 195.826 196.725 195.607 196.94 195.42C197.155 195.229 197.418 195.077 197.731 194.965C198.044 194.853 198.401 194.797 198.802 194.797C199.269 194.797 199.686 194.872 200.055 195.021C200.428 195.166 200.75 195.366 201.021 195.623L200.741 196.078Z" fill="black"/>
<path d="M77.7688 153.931C77.9008 153.931 78.0178 153.982 78.1198 154.084L79.0738 155.119C78.5458 155.773 77.8948 156.274 77.1208 156.622C76.3528 156.97 75.4288 157.144 74.3488 157.144C73.3828 157.144 72.5128 156.979 71.7388 156.649C70.9708 156.319 70.3138 155.86 69.7678 155.272C69.2218 154.684 68.8018 153.982 68.5078 153.166C68.2198 152.35 68.0758 151.459 68.0758 150.493C68.0758 149.515 68.2318 148.621 68.5438 147.811C68.8558 146.995 69.2938 146.293 69.8578 145.705C70.4278 145.117 71.1058 144.661 71.8918 144.337C72.6778 144.007 73.5478 143.842 74.5018 143.842C75.4498 143.842 76.2898 143.998 77.0218 144.31C77.7598 144.622 78.3868 145.03 78.9028 145.534L78.0928 146.659C78.0448 146.731 77.9818 146.794 77.9038 146.848C77.8318 146.902 77.7298 146.929 77.5978 146.929C77.5078 146.929 77.4148 146.905 77.3188 146.857C77.2228 146.803 77.1178 146.74 77.0038 146.668C76.8898 146.59 76.7578 146.506 76.6078 146.416C76.4578 146.326 76.2838 146.245 76.0858 146.173C75.8878 146.095 75.6568 146.032 75.3928 145.984C75.1348 145.93 74.8348 145.903 74.4928 145.903C73.9108 145.903 73.3768 146.008 72.8908 146.218C72.4108 146.422 71.9968 146.722 71.6488 147.118C71.3008 147.508 71.0308 147.988 70.8388 148.558C70.6468 149.122 70.5508 149.767 70.5508 150.493C70.5508 151.225 70.6528 151.876 70.8568 152.446C71.0668 153.016 71.3488 153.496 71.7028 153.886C72.0568 154.276 72.4738 154.576 72.9538 154.786C73.4338 154.99 73.9498 155.092 74.5018 155.092C74.8318 155.092 75.1288 155.074 75.3928 155.038C75.6628 155.002 75.9088 154.945 76.1308 154.867C76.3588 154.789 76.5718 154.69 76.7698 154.57C76.9738 154.444 77.1748 154.291 77.3728 154.111C77.4328 154.057 77.4958 154.015 77.5618 153.985C77.6278 153.949 77.6968 153.931 77.7688 153.931ZM87.6622 146.353C87.5902 146.479 87.5122 146.572 87.4282 146.632C87.3502 146.686 87.2512 146.713 87.1312 146.713C87.0052 146.713 86.8672 146.668 86.7172 146.578C86.5732 146.482 86.3992 146.377 86.1952 146.263C85.9912 146.149 85.7512 146.047 85.4752 145.957C85.2052 145.861 84.8842 145.813 84.5122 145.813C84.1762 145.813 83.8822 145.855 83.6302 145.939C83.3782 146.017 83.1652 146.128 82.9912 146.272C82.8232 146.416 82.6972 146.59 82.6132 146.794C82.5292 146.992 82.4872 147.211 82.4872 147.451C82.4872 147.757 82.5712 148.012 82.7392 148.216C82.9132 148.42 83.1412 148.594 83.4232 148.738C83.7052 148.882 84.0262 149.011 84.3862 149.125C84.7462 149.239 85.1152 149.362 85.4932 149.494C85.8712 149.62 86.2402 149.77 86.6002 149.944C86.9602 150.112 87.2812 150.328 87.5632 150.592C87.8452 150.85 88.0702 151.168 88.2382 151.546C88.4122 151.924 88.4992 152.383 88.4992 152.923C88.4992 153.511 88.3972 154.063 88.1932 154.579C87.9952 155.089 87.7012 155.536 87.3112 155.92C86.9272 156.298 86.4562 156.598 85.8982 156.82C85.3402 157.036 84.7012 157.144 83.9812 157.144C83.5672 157.144 83.1592 157.102 82.7572 157.018C82.3552 156.94 81.9682 156.826 81.5962 156.676C81.2302 156.526 80.8852 156.346 80.5612 156.136C80.2372 155.926 79.9492 155.692 79.6972 155.434L80.4082 154.273C80.4682 154.189 80.5462 154.12 80.6422 154.066C80.7382 154.006 80.8402 153.976 80.9482 153.976C81.0982 153.976 81.2602 154.039 81.4342 154.165C81.6082 154.285 81.8152 154.42 82.0552 154.57C82.2952 154.72 82.5742 154.858 82.8922 154.984C83.2162 155.104 83.6032 155.164 84.0532 155.164C84.7432 155.164 85.2772 155.002 85.6552 154.678C86.0332 154.348 86.2222 153.877 86.2222 153.265C86.2222 152.923 86.1352 152.644 85.9612 152.428C85.7932 152.212 85.5682 152.032 85.2862 151.888C85.0042 151.738 84.6832 151.612 84.3232 151.51C83.9632 151.408 83.5972 151.297 83.2252 151.177C82.8532 151.057 82.4872 150.913 82.1272 150.745C81.7672 150.577 81.4462 150.358 81.1642 150.088C80.8822 149.818 80.6542 149.482 80.4802 149.08C80.3122 148.672 80.2282 148.171 80.2282 147.577C80.2282 147.103 80.3212 146.641 80.5072 146.191C80.6992 145.741 80.9752 145.342 81.3352 144.994C81.6952 144.646 82.1392 144.367 82.6672 144.157C83.1952 143.947 83.8012 143.842 84.4852 143.842C85.2532 143.842 85.9612 143.962 86.6092 144.202C87.2572 144.442 87.8092 144.778 88.2652 145.21L87.6622 146.353ZM101.498 143.986L96.2424 157H94.0554L88.7994 143.986H90.7434C90.9534 143.986 91.1244 144.037 91.2564 144.139C91.3884 144.241 91.4874 144.373 91.5534 144.535L94.6224 152.473C94.7244 152.731 94.8204 153.016 94.9104 153.328C95.0064 153.634 95.0964 153.955 95.1804 154.291C95.2524 153.955 95.3304 153.634 95.4144 153.328C95.4984 153.016 95.5914 152.731 95.6934 152.473L98.7444 144.535C98.7924 144.397 98.8854 144.271 99.0234 144.157C99.1674 144.043 99.3414 143.986 99.5454 143.986H101.498ZM118.11 150.493C118.11 151.447 117.951 152.323 117.633 153.121C117.315 153.919 116.868 154.606 116.292 155.182C115.716 155.758 115.023 156.205 114.213 156.523C113.403 156.841 112.503 157 111.513 157H106.554V143.986H111.513C112.503 143.986 113.403 144.148 114.213 144.472C115.023 144.79 115.716 145.237 116.292 145.813C116.868 146.383 117.315 147.067 117.633 147.865C117.951 148.663 118.11 149.539 118.11 150.493ZM115.626 150.493C115.626 149.779 115.53 149.14 115.338 148.576C115.152 148.006 114.879 147.526 114.519 147.136C114.165 146.74 113.733 146.437 113.223 146.227C112.719 146.017 112.149 145.912 111.513 145.912H108.984V155.074H111.513C112.149 155.074 112.719 154.969 113.223 154.759C113.733 154.549 114.165 154.249 114.519 153.859C114.879 153.463 115.152 152.983 115.338 152.419C115.53 151.849 115.626 151.207 115.626 150.493ZM123.86 147.622C124.544 147.622 125.165 147.733 125.723 147.955C126.287 148.177 126.767 148.492 127.163 148.9C127.565 149.308 127.874 149.806 128.09 150.394C128.306 150.982 128.414 151.639 128.414 152.365C128.414 153.097 128.306 153.757 128.09 154.345C127.874 154.933 127.565 155.434 127.163 155.848C126.767 156.262 126.287 156.58 125.723 156.802C125.165 157.024 124.544 157.135 123.86 157.135C123.17 157.135 122.543 157.024 121.979 156.802C121.415 156.58 120.932 156.262 120.53 155.848C120.134 155.434 119.825 154.933 119.603 154.345C119.387 153.757 119.279 153.097 119.279 152.365C119.279 151.639 119.387 150.982 119.603 150.394C119.825 149.806 120.134 149.308 120.53 148.9C120.932 148.492 121.415 148.177 121.979 147.955C122.543 147.733 123.17 147.622 123.86 147.622ZM123.86 155.425C124.628 155.425 125.195 155.167 125.561 154.651C125.933 154.135 126.119 153.379 126.119 152.383C126.119 151.387 125.933 150.628 125.561 150.106C125.195 149.584 124.628 149.323 123.86 149.323C123.08 149.323 122.501 149.587 122.123 150.115C121.751 150.637 121.565 151.393 121.565 152.383C121.565 153.373 121.751 154.129 122.123 154.651C122.501 155.167 123.08 155.425 123.86 155.425ZM143.137 147.766L140.203 157H138.421C138.217 157 138.076 156.868 137.998 156.604L136.342 151.267C136.288 151.087 136.237 150.91 136.189 150.736C136.147 150.556 136.111 150.376 136.081 150.196C136.045 150.376 136.003 150.559 135.955 150.745C135.913 150.925 135.865 151.105 135.811 151.285L134.128 156.604C134.056 156.868 133.897 157 133.651 157H131.941L129.016 147.766H130.789C130.951 147.766 131.089 147.805 131.203 147.883C131.317 147.961 131.392 148.06 131.428 148.18L132.751 153.112C132.817 153.382 132.874 153.646 132.922 153.904C132.976 154.162 133.021 154.42 133.057 154.678C133.123 154.42 133.192 154.162 133.264 153.904C133.342 153.646 133.423 153.382 133.507 153.112L135.037 148.162C135.073 148.042 135.142 147.943 135.244 147.865C135.352 147.787 135.481 147.748 135.631 147.748H136.612C136.768 147.748 136.9 147.787 137.008 147.865C137.122 147.943 137.197 148.042 137.233 148.162L138.718 153.112C138.796 153.382 138.868 153.649 138.934 153.913C139.006 154.171 139.075 154.429 139.141 154.687C139.219 154.177 139.33 153.652 139.474 153.112L140.833 148.18C140.875 148.06 140.95 147.961 141.058 147.883C141.166 147.805 141.295 147.766 141.445 147.766H143.137ZM146.48 148.9C146.666 148.714 146.861 148.543 147.065 148.387C147.275 148.225 147.494 148.09 147.722 147.982C147.956 147.868 148.205 147.781 148.469 147.721C148.733 147.655 149.021 147.622 149.333 147.622C149.837 147.622 150.284 147.709 150.674 147.883C151.064 148.051 151.388 148.291 151.646 148.603C151.91 148.909 152.108 149.278 152.24 149.71C152.378 150.136 152.447 150.607 152.447 151.123V157H150.224V151.123C150.224 150.559 150.095 150.124 149.837 149.818C149.579 149.506 149.186 149.35 148.658 149.35C148.274 149.35 147.914 149.437 147.578 149.611C147.242 149.785 146.924 150.022 146.624 150.322V157H144.401V147.766H145.76C146.048 147.766 146.237 147.901 146.327 148.171L146.48 148.9ZM156.811 143.626V157H154.588V143.626H156.811ZM163.112 147.622C163.796 147.622 164.417 147.733 164.975 147.955C165.539 148.177 166.019 148.492 166.415 148.9C166.817 149.308 167.126 149.806 167.342 150.394C167.558 150.982 167.666 151.639 167.666 152.365C167.666 153.097 167.558 153.757 167.342 154.345C167.126 154.933 166.817 155.434 166.415 155.848C166.019 156.262 165.539 156.58 164.975 156.802C164.417 157.024 163.796 157.135 163.112 157.135C162.422 157.135 161.795 157.024 161.231 156.802C160.667 156.58 160.184 156.262 159.782 155.848C159.386 155.434 159.077 154.933 158.855 154.345C158.639 153.757 158.531 153.097 158.531 152.365C158.531 151.639 158.639 150.982 158.855 150.394C159.077 149.806 159.386 149.308 159.782 148.9C160.184 148.492 160.667 148.177 161.231 147.955C161.795 147.733 162.422 147.622 163.112 147.622ZM163.112 155.425C163.88 155.425 164.447 155.167 164.813 154.651C165.185 154.135 165.371 153.379 165.371 152.383C165.371 151.387 165.185 150.628 164.813 150.106C164.447 149.584 163.88 149.323 163.112 149.323C162.332 149.323 161.753 149.587 161.375 150.115C161.003 150.637 160.817 151.393 160.817 152.383C160.817 153.373 161.003 154.129 161.375 154.651C161.753 155.167 162.332 155.425 163.112 155.425ZM174.24 153.058C173.598 153.088 173.058 153.145 172.62 153.229C172.182 153.307 171.831 153.409 171.567 153.535C171.303 153.661 171.114 153.808 171 153.976C170.886 154.144 170.829 154.327 170.829 154.525C170.829 154.915 170.943 155.194 171.171 155.362C171.405 155.53 171.708 155.614 172.08 155.614C172.536 155.614 172.929 155.533 173.259 155.371C173.595 155.203 173.922 154.951 174.24 154.615V153.058ZM169.146 149.053C170.208 148.081 171.486 147.595 172.98 147.595C173.52 147.595 174.003 147.685 174.429 147.865C174.855 148.039 175.215 148.285 175.509 148.603C175.803 148.915 176.025 149.29 176.175 149.728C176.331 150.166 176.409 150.646 176.409 151.168V157H175.401C175.191 157 175.029 156.97 174.915 156.91C174.801 156.844 174.711 156.715 174.645 156.523L174.447 155.857C174.213 156.067 173.985 156.253 173.763 156.415C173.541 156.571 173.31 156.703 173.07 156.811C172.83 156.919 172.572 157 172.296 157.054C172.026 157.114 171.726 157.144 171.396 157.144C171.006 157.144 170.646 157.093 170.316 156.991C169.986 156.883 169.701 156.724 169.461 156.514C169.221 156.304 169.035 156.043 168.903 155.731C168.771 155.419 168.705 155.056 168.705 154.642C168.705 154.408 168.744 154.177 168.822 153.949C168.9 153.715 169.026 153.493 169.2 153.283C169.38 153.073 169.611 152.875 169.893 152.689C170.175 152.503 170.52 152.341 170.928 152.203C171.342 152.065 171.822 151.954 172.368 151.87C172.914 151.78 173.538 151.726 174.24 151.708V151.168C174.24 150.55 174.108 150.094 173.844 149.8C173.58 149.5 173.199 149.35 172.701 149.35C172.341 149.35 172.041 149.392 171.801 149.476C171.567 149.56 171.36 149.656 171.18 149.764C171 149.866 170.835 149.959 170.685 150.043C170.541 150.127 170.379 150.169 170.199 150.169C170.043 150.169 169.911 150.13 169.803 150.052C169.695 149.968 169.608 149.872 169.542 149.764L169.146 149.053ZM184.298 150.124C184.046 149.818 183.77 149.602 183.47 149.476C183.176 149.35 182.858 149.287 182.516 149.287C182.18 149.287 181.877 149.35 181.607 149.476C181.337 149.602 181.106 149.794 180.914 150.052C180.722 150.304 180.575 150.628 180.473 151.024C180.371 151.414 180.32 151.876 180.32 152.41C180.32 152.95 180.362 153.409 180.446 153.787C180.536 154.159 180.662 154.465 180.824 154.705C180.986 154.939 181.184 155.11 181.418 155.218C181.652 155.32 181.913 155.371 182.201 155.371C182.663 155.371 183.056 155.275 183.38 155.083C183.704 154.891 184.01 154.618 184.298 154.264V150.124ZM186.521 143.626V157H185.162C184.868 157 184.682 156.865 184.604 156.595L184.415 155.704C184.043 156.13 183.614 156.475 183.128 156.739C182.648 157.003 182.087 157.135 181.445 157.135C180.941 157.135 180.479 157.03 180.059 156.82C179.639 156.61 179.276 156.307 178.97 155.911C178.67 155.509 178.436 155.014 178.268 154.426C178.106 153.838 178.025 153.166 178.025 152.41C178.025 151.726 178.118 151.09 178.304 150.502C178.49 149.914 178.757 149.404 179.105 148.972C179.453 148.54 179.87 148.204 180.356 147.964C180.842 147.718 181.388 147.595 181.994 147.595C182.51 147.595 182.951 147.676 183.317 147.838C183.683 148 184.01 148.219 184.298 148.495V143.626H186.521Z" fill="#101010"/>
<path d="M124.992 62.85C124.992 69.15 124.309 74.6333 122.942 79.3C121.609 83.9333 119.742 87.7667 117.342 90.8C114.976 93.8333 112.159 96.1 108.892 97.6C105.659 99.0667 102.159 99.8 98.3922 99.8C94.6255 99.8 91.1255 99.0667 87.8922 97.6C84.6922 96.1 81.9089 93.8333 79.5422 90.8C77.1755 87.7667 75.3255 83.9333 73.9922 79.3C72.6589 74.6333 71.9922 69.15 71.9922 62.85C71.9922 56.5167 72.6589 51.0333 73.9922 46.4C75.3255 41.7667 77.1755 37.9333 79.5422 34.9C81.9089 31.8667 84.6922 29.6167 87.8922 28.15C91.1255 26.65 94.6255 25.9 98.3922 25.9C102.159 25.9 105.659 26.65 108.892 28.15C112.159 29.6167 114.976 31.8667 117.342 34.9C119.742 37.9333 121.609 41.7667 122.942 46.4C124.309 51.0333 124.992 56.5167 124.992 62.85ZM112.242 62.85C112.242 57.6167 111.859 53.2833 111.092 49.85C110.326 46.4167 109.292 43.6833 107.992 41.65C106.726 39.6167 105.259 38.2 103.592 37.4C101.926 36.5667 100.192 36.15 98.3922 36.15C96.6255 36.15 94.9089 36.5667 93.2422 37.4C91.6089 38.2 90.1589 39.6167 88.8922 41.65C87.6255 43.6833 86.6089 46.4167 85.8422 49.85C85.1089 53.2833 84.7422 57.6167 84.7422 62.85C84.7422 68.0833 85.1089 72.4167 85.8422 75.85C86.6089 79.2833 87.6255 82.0167 88.8922 84.05C90.1589 86.0833 91.6089 87.5167 93.2422 88.35C94.9089 89.15 96.6255 89.55 98.3922 89.55C100.192 89.55 101.926 89.15 103.592 88.35C105.259 87.5167 106.726 86.0833 107.992 84.05C109.292 82.0167 110.326 79.2833 111.092 75.85C111.859 72.4167 112.242 68.0833 112.242 62.85ZM163.1 71.75V48.1C163.1 45.8667 163.25 43.4 163.55 40.7L141.1 71.75H163.1ZM182.95 71.75V78.9C182.95 79.5667 182.733 80.15 182.3 80.65C181.867 81.1167 181.25 81.35 180.45 81.35H173.85V99H163.1V81.35H132.6C131.767 81.35 131.033 81.1 130.4 80.6C129.767 80.0667 129.367 79.4167 129.2 78.65L127.9 72.4L162.15 26.65H173.85V71.75H182.95Z" fill="#101010" fill-opacity="0.08"/>
<path d="M148.026 89.9597H146.751V83.8182C146.75 83.7791 146.746 83.7402 146.74 83.7017C146.742 83.455 146.653 83.2161 146.492 83.0296L136.261 71.3567L136.253 71.3492C136.192 71.2831 136.122 71.2251 136.046 71.1765L135.979 71.1352C135.914 71.0991 135.845 71.0701 135.774 71.0488L135.717 71.03C135.639 71.0106 135.559 71.0005 135.479 71H110.33C109.181 71 108.249 71.9332 108.249 73.0785V89.9578H106.974C105.331 89.9578 104 91.2871 104 92.9281V108.377C104 110.016 105.333 111.347 106.974 111.347H108.249V121.922C108.249 123.067 109.181 124 110.33 124H144.67C145.817 124 146.751 123.067 146.751 121.922V111.347H148.026C149.667 111.347 151 110.018 151 108.377V92.9281C151 91.289 149.669 89.9597 148.026 89.9597ZM110.33 73.0785H134.437V83.713C134.437 84.2876 134.903 84.7513 135.479 84.7513H144.672V89.9578H110.33V73.0785ZM125.9 101.557C123.373 100.656 121.706 99.2593 121.706 97.0531C121.706 94.464 123.894 92.5057 127.457 92.5057C129.194 92.5057 130.433 92.8436 131.335 93.2698L130.568 96.0167C129.585 95.5385 128.505 95.2925 127.412 95.2976C125.923 95.2976 125.201 95.9942 125.201 96.7602C125.201 97.7291 126.034 98.1553 128.019 98.8988C130.704 99.8901 131.942 101.285 131.942 103.426C131.942 105.972 130.004 108.133 125.832 108.133C124.095 108.133 122.383 107.66 121.525 107.186L122.225 104.372C123.405 104.974 124.708 105.298 126.034 105.318C127.613 105.318 128.448 104.663 128.448 103.673C128.448 102.727 127.727 102.188 125.9 101.557ZM107.991 100.521C107.991 95.3633 111.689 92.5038 116.288 92.5038C118.07 92.5038 119.422 92.8624 120.031 93.1572L119.309 95.8815C118.396 95.4986 117.413 95.3069 116.423 95.3183C113.718 95.3183 111.599 96.9611 111.599 100.339C111.599 103.356 113.402 105.271 116.446 105.271C117.506 105.271 118.634 105.07 119.331 104.776L119.83 107.477C119.22 107.768 117.777 108.131 115.951 108.131C110.697 108.133 107.991 104.845 107.991 100.521ZM144.67 121.362H110.33V111.349H144.67V121.362ZM141.891 107.907H137.878L133.008 92.7291H136.774L138.622 99.1485C139.139 100.972 139.613 102.684 139.974 104.575H140.041C140.426 102.77 140.884 100.983 141.416 99.2161L143.356 92.731H147.007L141.891 107.907Z" fill="#ED4C5C"/>
</svg>
