<svg width="255" height="226" viewBox="0 0 255 226" fill="none" xmlns="http://www.w3.org/2000/svg">
<rect width="255" height="226" fill="white"/>
<path d="M48.0443 179.988C48.0443 180.739 47.9253 181.423 47.6873 182.039C47.4493 182.655 47.1133 183.182 46.6793 183.621C46.2453 184.06 45.7227 184.4 45.1113 184.643C44.5047 184.881 43.8327 185 43.0953 185H39.3503V174.969H43.0953C43.8327 174.969 44.5047 175.09 45.1113 175.333C45.7227 175.571 46.2453 175.912 46.6793 176.355C47.1133 176.794 47.4493 177.321 47.6873 177.937C47.9253 178.553 48.0443 179.237 48.0443 179.988ZM46.6513 179.988C46.6513 179.372 46.5673 178.821 46.3993 178.336C46.2313 177.851 45.9933 177.44 45.6853 177.104C45.3773 176.768 45.004 176.511 44.5653 176.334C44.1267 176.157 43.6367 176.068 43.0953 176.068H40.7083V183.901H43.0953C43.6367 183.901 44.1267 183.812 44.5653 183.635C45.004 183.458 45.3773 183.203 45.6853 182.872C45.9933 182.536 46.2313 182.125 46.3993 181.64C46.5673 181.155 46.6513 180.604 46.6513 179.988ZM52.6 177.797C53.118 177.797 53.5847 177.883 54 178.056C54.4154 178.229 54.77 178.474 55.064 178.791C55.358 179.108 55.582 179.493 55.736 179.946C55.8947 180.394 55.974 180.896 55.974 181.451C55.974 182.011 55.8947 182.515 55.736 182.963C55.582 183.411 55.358 183.794 55.064 184.111C54.77 184.428 54.4154 184.673 54 184.846C53.5847 185.014 53.118 185.098 52.6 185.098C52.0774 185.098 51.606 185.014 51.186 184.846C50.7707 184.673 50.416 184.428 50.122 184.111C49.828 183.794 49.6017 183.411 49.443 182.963C49.289 182.515 49.212 182.011 49.212 181.451C49.212 180.896 49.289 180.394 49.443 179.946C49.6017 179.493 49.828 179.108 50.122 178.791C50.416 178.474 50.7707 178.229 51.186 178.056C51.606 177.883 52.0774 177.797 52.6 177.797ZM52.6 184.125C53.3 184.125 53.8227 183.892 54.168 183.425C54.5134 182.954 54.686 182.298 54.686 181.458C54.686 180.613 54.5134 179.955 54.168 179.484C53.8227 179.013 53.3 178.777 52.6 178.777C52.2454 178.777 51.935 178.838 51.669 178.959C51.4077 179.08 51.1884 179.255 51.011 179.484C50.8384 179.713 50.7077 179.995 50.619 180.331C50.535 180.662 50.493 181.038 50.493 181.458C50.493 182.298 50.6657 182.954 51.011 183.425C51.361 183.892 51.8907 184.125 52.6 184.125ZM56.689 177.909H57.669C57.767 177.909 57.8487 177.935 57.914 177.986C57.984 178.037 58.0307 178.098 58.054 178.168L59.412 182.732C59.4493 182.895 59.4843 183.056 59.517 183.215C59.5497 183.369 59.5777 183.523 59.601 183.677C59.6383 183.523 59.6803 183.369 59.727 183.215C59.7737 183.056 59.8227 182.895 59.874 182.732L61.372 178.14C61.3953 178.07 61.435 178.012 61.491 177.965C61.5517 177.918 61.624 177.895 61.708 177.895H62.254C62.3473 177.895 62.4243 177.918 62.485 177.965C62.5457 178.012 62.5877 178.07 62.611 178.14L64.074 182.732C64.1207 182.895 64.165 183.056 64.207 183.215C64.249 183.374 64.2887 183.53 64.326 183.684C64.354 183.53 64.3843 183.376 64.417 183.222C64.4543 183.063 64.494 182.9 64.536 182.732L65.922 178.168C65.9453 178.093 65.9897 178.033 66.055 177.986C66.1203 177.935 66.1973 177.909 66.286 177.909H67.224L64.928 185H63.941C63.8197 185 63.7357 184.921 63.689 184.762L62.121 179.953C62.0837 179.846 62.0533 179.738 62.03 179.631C62.0067 179.519 61.9833 179.409 61.96 179.302C61.9367 179.409 61.911 179.519 61.883 179.631C61.8597 179.743 61.8317 179.853 61.799 179.96L60.203 184.762C60.161 184.921 60.0677 185 59.923 185H58.985L56.689 177.909ZM68.4372 185V177.909H69.1862C69.3635 177.909 69.4732 177.995 69.5152 178.168L69.6132 178.938C69.9212 178.597 70.2665 178.322 70.6492 178.112C71.0319 177.902 71.4729 177.797 71.9722 177.797C72.3595 177.797 72.7002 177.862 72.9942 177.993C73.2929 178.119 73.5402 178.301 73.7362 178.539C73.9369 178.772 74.0885 179.055 74.1912 179.386C74.2939 179.717 74.3452 180.084 74.3452 180.485V185H73.0922V180.485C73.0922 179.948 72.9685 179.533 72.7212 179.239C72.4785 178.94 72.1075 178.791 71.6082 178.791C71.2349 178.791 70.8872 178.88 70.5652 179.057C70.2479 179.234 69.9562 179.475 69.6902 179.778V185H68.4372ZM77.5318 174.689V185H76.2858V174.689H77.5318ZM82.5414 177.797C83.0594 177.797 83.5261 177.883 83.9414 178.056C84.3568 178.229 84.7114 178.474 85.0054 178.791C85.2994 179.108 85.5234 179.493 85.6774 179.946C85.8361 180.394 85.9154 180.896 85.9154 181.451C85.9154 182.011 85.8361 182.515 85.6774 182.963C85.5234 183.411 85.2994 183.794 85.0054 184.111C84.7114 184.428 84.3568 184.673 83.9414 184.846C83.5261 185.014 83.0594 185.098 82.5414 185.098C82.0188 185.098 81.5474 185.014 81.1274 184.846C80.7121 184.673 80.3574 184.428 80.0634 184.111C79.7694 183.794 79.5431 183.411 79.3844 182.963C79.2304 182.515 79.1534 182.011 79.1534 181.451C79.1534 180.896 79.2304 180.394 79.3844 179.946C79.5431 179.493 79.7694 179.108 80.0634 178.791C80.3574 178.474 80.7121 178.229 81.1274 178.056C81.5474 177.883 82.0188 177.797 82.5414 177.797ZM82.5414 184.125C83.2414 184.125 83.7641 183.892 84.1094 183.425C84.4548 182.954 84.6274 182.298 84.6274 181.458C84.6274 180.613 84.4548 179.955 84.1094 179.484C83.7641 179.013 83.2414 178.777 82.5414 178.777C82.1868 178.777 81.8764 178.838 81.6104 178.959C81.3491 179.08 81.1298 179.255 80.9524 179.484C80.7798 179.713 80.6491 179.995 80.5604 180.331C80.4764 180.662 80.4344 181.038 80.4344 181.458C80.4344 182.298 80.6071 182.954 80.9524 183.425C81.3024 183.892 81.8321 184.125 82.5414 184.125ZM92.0038 185C91.8825 185 91.7891 184.981 91.7238 184.944C91.6585 184.902 91.6071 184.823 91.5698 184.706L91.4298 184.041C91.2431 184.209 91.0588 184.361 90.8768 184.496C90.6995 184.627 90.5128 184.739 90.3168 184.832C90.1255 184.921 89.9178 184.988 89.6938 185.035C89.4745 185.086 89.2295 185.112 88.9588 185.112C88.6835 185.112 88.4245 185.075 88.1818 185C87.9391 184.921 87.7268 184.804 87.5448 184.65C87.3675 184.496 87.2251 184.302 87.1178 184.069C87.0151 183.831 86.9638 183.551 86.9638 183.229C86.9638 182.949 87.0408 182.681 87.1948 182.424C87.3488 182.163 87.5985 181.932 87.9438 181.731C88.2891 181.53 88.7395 181.367 89.2948 181.241C89.8501 181.11 90.5315 181.036 91.3388 181.017V180.464C91.3388 179.913 91.2198 179.498 90.9818 179.218C90.7438 178.933 90.3961 178.791 89.9388 178.791C89.6308 178.791 89.3718 178.831 89.1618 178.91C88.9565 178.985 88.7768 179.071 88.6228 179.169C88.4735 179.262 88.3428 179.349 88.2308 179.428C88.1235 179.503 88.0161 179.54 87.9088 179.54C87.8248 179.54 87.7525 179.519 87.6918 179.477C87.6311 179.43 87.5798 179.374 87.5378 179.309L87.3138 178.91C87.7058 178.532 88.1281 178.25 88.5808 178.063C89.0335 177.876 89.5351 177.783 90.0858 177.783C90.4825 177.783 90.8348 177.848 91.1428 177.979C91.4508 178.11 91.7098 178.292 91.9198 178.525C92.1298 178.758 92.2885 179.041 92.3958 179.372C92.5031 179.703 92.5568 180.067 92.5568 180.464V185H92.0038ZM89.3298 184.237C89.5491 184.237 89.7498 184.216 89.9318 184.174C90.1138 184.127 90.2841 184.064 90.4428 183.985C90.6061 183.901 90.7601 183.801 90.9048 183.684C91.0541 183.563 91.1988 183.427 91.3388 183.278V181.808C90.7648 181.827 90.2748 181.873 89.8688 181.948C89.4675 182.018 89.1385 182.111 88.8818 182.228C88.6298 182.345 88.4455 182.482 88.3288 182.641C88.2168 182.8 88.1608 182.977 88.1608 183.173C88.1608 183.36 88.1911 183.521 88.2518 183.656C88.3125 183.791 88.3941 183.903 88.4968 183.992C88.6041 184.076 88.7278 184.139 88.8678 184.181C89.0125 184.218 89.1665 184.237 89.3298 184.237ZM99.5788 185C99.4014 185 99.2894 184.914 99.2428 184.741L99.1308 183.88C98.8274 184.249 98.4798 184.545 98.0878 184.769C97.7004 184.988 97.2548 185.098 96.7508 185.098C96.3448 185.098 95.9761 185.021 95.6448 184.867C95.3134 184.708 95.0311 184.477 94.7978 184.174C94.5644 183.871 94.3848 183.493 94.2588 183.04C94.1328 182.587 94.0698 182.067 94.0698 181.479C94.0698 180.956 94.1398 180.471 94.2798 180.023C94.4198 179.57 94.6204 179.178 94.8818 178.847C95.1431 178.516 95.4628 178.257 95.8408 178.07C96.2234 177.879 96.6528 177.783 97.1288 177.783C97.5628 177.783 97.9338 177.858 98.2418 178.007C98.5544 178.152 98.8321 178.357 99.0748 178.623V174.689H100.321V185H99.5788ZM97.1568 184.09C97.5674 184.09 97.9244 183.997 98.2278 183.81C98.5358 183.623 98.8181 183.36 99.0748 183.019V179.596C98.8414 179.288 98.5894 179.071 98.3188 178.945C98.0481 178.819 97.7448 178.756 97.4088 178.756C96.7508 178.756 96.2444 178.992 95.8898 179.463C95.5351 179.934 95.3578 180.606 95.3578 181.479C95.3578 181.941 95.3974 182.338 95.4768 182.669C95.5561 182.996 95.6728 183.266 95.8268 183.481C95.9808 183.691 96.1698 183.845 96.3938 183.943C96.6178 184.041 96.8721 184.09 97.1568 184.09ZM110.379 185C110.257 185 110.164 184.981 110.099 184.944C110.033 184.902 109.982 184.823 109.945 184.706L109.805 184.041C109.618 184.209 109.434 184.361 109.252 184.496C109.074 184.627 108.888 184.739 108.692 184.832C108.5 184.921 108.293 184.988 108.069 185.035C107.849 185.086 107.604 185.112 107.334 185.112C107.058 185.112 106.799 185.075 106.557 185C106.314 184.921 106.102 184.804 105.92 184.65C105.742 184.496 105.6 184.302 105.493 184.069C105.39 183.831 105.339 183.551 105.339 183.229C105.339 182.949 105.416 182.681 105.57 182.424C105.724 182.163 105.973 181.932 106.319 181.731C106.664 181.53 107.114 181.367 107.67 181.241C108.225 181.11 108.906 181.036 109.714 181.017V180.464C109.714 179.913 109.595 179.498 109.357 179.218C109.119 178.933 108.771 178.791 108.314 178.791C108.006 178.791 107.747 178.831 107.537 178.91C107.331 178.985 107.152 179.071 106.998 179.169C106.848 179.262 106.718 179.349 106.606 179.428C106.498 179.503 106.391 179.54 106.284 179.54C106.2 179.54 106.127 179.519 106.067 179.477C106.006 179.43 105.955 179.374 105.913 179.309L105.689 178.91C106.081 178.532 106.503 178.25 106.956 178.063C107.408 177.876 107.91 177.783 108.461 177.783C108.857 177.783 109.21 177.848 109.518 177.979C109.826 178.11 110.085 178.292 110.295 178.525C110.505 178.758 110.663 179.041 110.771 179.372C110.878 179.703 110.932 180.067 110.932 180.464V185H110.379ZM107.705 184.237C107.924 184.237 108.125 184.216 108.307 184.174C108.489 184.127 108.659 184.064 108.818 183.985C108.981 183.901 109.135 183.801 109.28 183.684C109.429 183.563 109.574 183.427 109.714 183.278V181.808C109.14 181.827 108.65 181.873 108.244 181.948C107.842 182.018 107.513 182.111 107.257 182.228C107.005 182.345 106.82 182.482 106.704 182.641C106.592 182.8 106.536 182.977 106.536 183.173C106.536 183.36 106.566 183.521 106.627 183.656C106.687 183.791 106.769 183.903 106.872 183.992C106.979 184.076 107.103 184.139 107.243 184.181C107.387 184.218 107.541 184.237 107.705 184.237ZM112.83 185V177.909H113.579C113.756 177.909 113.866 177.995 113.908 178.168L114.006 178.938C114.314 178.597 114.659 178.322 115.042 178.112C115.424 177.902 115.865 177.797 116.365 177.797C116.752 177.797 117.093 177.862 117.387 177.993C117.685 178.119 117.933 178.301 118.129 178.539C118.329 178.772 118.481 179.055 118.584 179.386C118.686 179.717 118.738 180.084 118.738 180.485V185H117.485V180.485C117.485 179.948 117.361 179.533 117.114 179.239C116.871 178.94 116.5 178.791 116.001 178.791C115.627 178.791 115.28 178.88 114.958 179.057C114.64 179.234 114.349 179.475 114.083 179.778V185H112.83ZM122.622 187.093C122.58 187.186 122.526 187.261 122.461 187.317C122.4 187.373 122.304 187.401 122.174 187.401H121.25L122.545 184.587L119.619 177.909H120.697C120.804 177.909 120.888 177.937 120.949 177.993C121.014 178.044 121.058 178.103 121.082 178.168L122.979 182.634C123.016 182.741 123.051 182.846 123.084 182.949C123.116 183.047 123.144 183.15 123.168 183.257C123.228 183.047 123.298 182.837 123.378 182.627L125.219 178.168C125.247 178.093 125.293 178.033 125.359 177.986C125.429 177.935 125.506 177.909 125.59 177.909H126.577L122.622 187.093ZM133.907 177.797C134.425 177.797 134.891 177.883 135.307 178.056C135.722 178.229 136.077 178.474 136.371 178.791C136.665 179.108 136.889 179.493 137.043 179.946C137.201 180.394 137.281 180.896 137.281 181.451C137.281 182.011 137.201 182.515 137.043 182.963C136.889 183.411 136.665 183.794 136.371 184.111C136.077 184.428 135.722 184.673 135.307 184.846C134.891 185.014 134.425 185.098 133.907 185.098C133.384 185.098 132.913 185.014 132.493 184.846C132.077 184.673 131.723 184.428 131.429 184.111C131.135 183.794 130.908 183.411 130.75 182.963C130.596 182.515 130.519 182.011 130.519 181.451C130.519 180.896 130.596 180.394 130.75 179.946C130.908 179.493 131.135 179.108 131.429 178.791C131.723 178.474 132.077 178.229 132.493 178.056C132.913 177.883 133.384 177.797 133.907 177.797ZM133.907 184.125C134.607 184.125 135.129 183.892 135.475 183.425C135.82 182.954 135.993 182.298 135.993 181.458C135.993 180.613 135.82 179.955 135.475 179.484C135.129 179.013 134.607 178.777 133.907 178.777C133.552 178.777 133.242 178.838 132.976 178.959C132.714 179.08 132.495 179.255 132.318 179.484C132.145 179.713 132.014 179.995 131.926 180.331C131.842 180.662 131.8 181.038 131.8 181.458C131.8 182.298 131.972 182.954 132.318 183.425C132.668 183.892 133.197 184.125 133.907 184.125ZM139.173 185V178.973L138.389 178.882C138.291 178.859 138.209 178.824 138.144 178.777C138.083 178.726 138.053 178.653 138.053 178.56V178.049H139.173V177.363C139.173 176.957 139.229 176.598 139.341 176.285C139.457 175.968 139.621 175.702 139.831 175.487C140.045 175.268 140.302 175.102 140.601 174.99C140.899 174.878 141.235 174.822 141.609 174.822C141.926 174.822 142.218 174.869 142.484 174.962L142.456 175.585C142.446 175.697 142.383 175.758 142.267 175.767C142.155 175.776 142.003 175.781 141.812 175.781C141.597 175.781 141.401 175.809 141.224 175.865C141.051 175.921 140.902 176.012 140.776 176.138C140.65 176.264 140.552 176.43 140.482 176.635C140.416 176.84 140.384 177.095 140.384 177.398V178.049H142.428V178.952H140.426V185H139.173ZM148.749 187.093C148.707 187.186 148.653 187.261 148.588 187.317C148.527 187.373 148.431 187.401 148.301 187.401H147.377L148.672 184.587L145.746 177.909H146.824C146.931 177.909 147.015 177.937 147.076 177.993C147.141 178.044 147.185 178.103 147.209 178.168L149.106 182.634C149.143 182.741 149.178 182.846 149.211 182.949C149.243 183.047 149.271 183.15 149.295 183.257C149.355 183.047 149.425 182.837 149.505 182.627L151.346 178.168C151.374 178.093 151.42 178.033 151.486 177.986C151.556 177.935 151.633 177.909 151.717 177.909H152.704L148.749 187.093ZM156.602 177.797C157.12 177.797 157.587 177.883 158.002 178.056C158.417 178.229 158.772 178.474 159.066 178.791C159.36 179.108 159.584 179.493 159.738 179.946C159.897 180.394 159.976 180.896 159.976 181.451C159.976 182.011 159.897 182.515 159.738 182.963C159.584 183.411 159.36 183.794 159.066 184.111C158.772 184.428 158.417 184.673 158.002 184.846C157.587 185.014 157.12 185.098 156.602 185.098C156.079 185.098 155.608 185.014 155.188 184.846C154.773 184.673 154.418 184.428 154.124 184.111C153.83 183.794 153.604 183.411 153.445 182.963C153.291 182.515 153.214 182.011 153.214 181.451C153.214 180.896 153.291 180.394 153.445 179.946C153.604 179.493 153.83 179.108 154.124 178.791C154.418 178.474 154.773 178.229 155.188 178.056C155.608 177.883 156.079 177.797 156.602 177.797ZM156.602 184.125C157.302 184.125 157.825 183.892 158.17 183.425C158.515 182.954 158.688 182.298 158.688 181.458C158.688 180.613 158.515 179.955 158.17 179.484C157.825 179.013 157.302 178.777 156.602 178.777C156.247 178.777 155.937 178.838 155.671 178.959C155.41 179.08 155.19 179.255 155.013 179.484C154.84 179.713 154.71 179.995 154.621 180.331C154.537 180.662 154.495 181.038 154.495 181.458C154.495 182.298 154.668 182.954 155.013 183.425C155.363 183.892 155.893 184.125 156.602 184.125ZM162.732 177.909V182.431C162.732 182.968 162.854 183.383 163.096 183.677C163.344 183.971 163.719 184.118 164.223 184.118C164.587 184.118 164.93 184.032 165.252 183.859C165.574 183.686 165.871 183.446 166.141 183.138V177.909H167.387V185H166.645C166.468 185 166.356 184.914 166.309 184.741L166.211 183.978C165.903 184.319 165.558 184.594 165.175 184.804C164.793 185.009 164.354 185.112 163.859 185.112C163.472 185.112 163.129 185.049 162.83 184.923C162.536 184.792 162.289 184.61 162.088 184.377C161.888 184.144 161.736 183.861 161.633 183.53C161.535 183.199 161.486 182.832 161.486 182.431V177.909H162.732ZM169.363 185V177.909H170.077C170.212 177.909 170.306 177.935 170.357 177.986C170.408 178.037 170.443 178.126 170.462 178.252L170.539 179.33C170.763 178.845 171.038 178.467 171.365 178.196C171.696 177.921 172.098 177.783 172.569 177.783C172.718 177.783 172.861 177.799 172.996 177.832C173.136 177.865 173.26 177.916 173.367 177.986L173.276 178.917C173.248 179.034 173.178 179.092 173.066 179.092C173.001 179.092 172.905 179.078 172.779 179.05C172.653 179.022 172.511 179.008 172.352 179.008C172.128 179.008 171.927 179.043 171.75 179.113C171.573 179.178 171.414 179.276 171.274 179.407C171.139 179.533 171.017 179.689 170.91 179.876C170.803 180.063 170.705 180.277 170.616 180.52V185H169.363ZM177.744 185V177.909H178.458C178.593 177.909 178.687 177.935 178.738 177.986C178.789 178.037 178.824 178.126 178.843 178.252L178.92 179.33C179.144 178.845 179.419 178.467 179.746 178.196C180.077 177.921 180.479 177.783 180.95 177.783C181.099 177.783 181.242 177.799 181.377 177.832C181.517 177.865 181.641 177.916 181.748 177.986L181.657 178.917C181.629 179.034 181.559 179.092 181.447 179.092C181.382 179.092 181.286 179.078 181.16 179.05C181.034 179.022 180.892 179.008 180.733 179.008C180.509 179.008 180.308 179.043 180.131 179.113C179.954 179.178 179.795 179.276 179.655 179.407C179.52 179.533 179.398 179.689 179.291 179.876C179.184 180.063 179.086 180.277 178.997 180.52V185H177.744ZM185.461 177.797C185.886 177.797 186.278 177.869 186.637 178.014C187.001 178.154 187.314 178.359 187.575 178.63C187.841 178.896 188.049 179.227 188.198 179.624C188.348 180.016 188.422 180.464 188.422 180.968C188.422 181.164 188.401 181.295 188.359 181.36C188.317 181.425 188.238 181.458 188.121 181.458H183.382C183.392 181.906 183.452 182.296 183.564 182.627C183.676 182.958 183.83 183.236 184.026 183.46C184.222 183.679 184.456 183.845 184.726 183.957C184.997 184.064 185.3 184.118 185.636 184.118C185.949 184.118 186.217 184.083 186.441 184.013C186.67 183.938 186.866 183.859 187.029 183.775C187.193 183.691 187.328 183.614 187.435 183.544C187.547 183.469 187.643 183.432 187.722 183.432C187.825 183.432 187.904 183.472 187.96 183.551L188.31 184.006C188.156 184.193 187.972 184.356 187.757 184.496C187.543 184.631 187.312 184.743 187.064 184.832C186.822 184.921 186.57 184.986 186.308 185.028C186.047 185.075 185.788 185.098 185.531 185.098C185.041 185.098 184.589 185.016 184.173 184.853C183.763 184.685 183.406 184.442 183.102 184.125C182.804 183.803 182.57 183.406 182.402 182.935C182.234 182.464 182.15 181.922 182.15 181.311C182.15 180.816 182.225 180.354 182.374 179.925C182.528 179.496 182.748 179.125 183.032 178.812C183.317 178.495 183.665 178.247 184.075 178.07C184.486 177.888 184.948 177.797 185.461 177.797ZM185.489 178.714C184.887 178.714 184.414 178.889 184.068 179.239C183.723 179.584 183.508 180.065 183.424 180.681H187.302C187.302 180.392 187.26 180.128 187.176 179.89C187.097 179.647 186.978 179.44 186.819 179.267C186.665 179.09 186.476 178.954 186.252 178.861C186.028 178.763 185.774 178.714 185.489 178.714ZM189.953 187.401V177.909H190.702C190.879 177.909 190.989 177.995 191.031 178.168L191.136 179.008C191.439 178.639 191.787 178.343 192.179 178.119C192.571 177.895 193.019 177.783 193.523 177.783C193.933 177.783 194.304 177.862 194.636 178.021C194.967 178.175 195.249 178.406 195.483 178.714C195.716 179.017 195.896 179.395 196.022 179.848C196.148 180.301 196.211 180.821 196.211 181.409C196.211 181.932 196.141 182.419 196.001 182.872C195.861 183.32 195.658 183.71 195.392 184.041C195.13 184.368 194.808 184.627 194.426 184.818C194.048 185.005 193.621 185.098 193.145 185.098C192.711 185.098 192.337 185.026 192.025 184.881C191.717 184.736 191.444 184.531 191.206 184.265V187.401H189.953ZM193.117 178.791C192.711 178.791 192.354 178.884 192.046 179.071C191.742 179.258 191.462 179.521 191.206 179.862V183.292C191.43 183.6 191.677 183.817 191.948 183.943C192.223 184.069 192.529 184.132 192.865 184.132C193.527 184.132 194.036 183.896 194.391 183.425C194.745 182.954 194.923 182.282 194.923 181.409C194.923 180.947 194.881 180.55 194.797 180.219C194.717 179.888 194.601 179.617 194.447 179.407C194.293 179.192 194.104 179.036 193.88 178.938C193.656 178.84 193.401 178.791 193.117 178.791ZM200.789 177.797C201.307 177.797 201.774 177.883 202.189 178.056C202.605 178.229 202.959 178.474 203.253 178.791C203.547 179.108 203.771 179.493 203.925 179.946C204.084 180.394 204.163 180.896 204.163 181.451C204.163 182.011 204.084 182.515 203.925 182.963C203.771 183.411 203.547 183.794 203.253 184.111C202.959 184.428 202.605 184.673 202.189 184.846C201.774 185.014 201.307 185.098 200.789 185.098C200.267 185.098 199.795 185.014 199.375 184.846C198.96 184.673 198.605 184.428 198.311 184.111C198.017 183.794 197.791 183.411 197.632 182.963C197.478 182.515 197.401 182.011 197.401 181.451C197.401 180.896 197.478 180.394 197.632 179.946C197.791 179.493 198.017 179.108 198.311 178.791C198.605 178.474 198.96 178.229 199.375 178.056C199.795 177.883 200.267 177.797 200.789 177.797ZM200.789 184.125C201.489 184.125 202.012 183.892 202.357 183.425C202.703 182.954 202.875 182.298 202.875 181.458C202.875 180.613 202.703 179.955 202.357 179.484C202.012 179.013 201.489 178.777 200.789 178.777C200.435 178.777 200.124 178.838 199.858 178.959C199.597 179.08 199.378 179.255 199.2 179.484C199.028 179.713 198.897 179.995 198.808 180.331C198.724 180.662 198.682 181.038 198.682 181.458C198.682 182.298 198.855 182.954 199.2 183.425C199.55 183.892 200.08 184.125 200.789 184.125ZM205.744 185V177.909H206.458C206.593 177.909 206.687 177.935 206.738 177.986C206.789 178.037 206.824 178.126 206.843 178.252L206.92 179.33C207.144 178.845 207.419 178.467 207.746 178.196C208.077 177.921 208.479 177.783 208.95 177.783C209.099 177.783 209.242 177.799 209.377 177.832C209.517 177.865 209.641 177.916 209.748 177.986L209.657 178.917C209.629 179.034 209.559 179.092 209.447 179.092C209.382 179.092 209.286 179.078 209.16 179.05C209.034 179.022 208.892 179.008 208.733 179.008C208.509 179.008 208.308 179.043 208.131 179.113C207.954 179.178 207.795 179.276 207.655 179.407C207.52 179.533 207.398 179.689 207.291 179.876C207.184 180.063 207.086 180.277 206.997 180.52V185H205.744ZM213.02 185.112C212.46 185.112 212.029 184.956 211.725 184.643C211.427 184.33 211.277 183.88 211.277 183.292V178.952H210.423C210.349 178.952 210.286 178.931 210.234 178.889C210.183 178.842 210.157 178.772 210.157 178.679V178.182L211.319 178.035L211.606 175.844C211.62 175.774 211.651 175.718 211.697 175.676C211.749 175.629 211.814 175.606 211.893 175.606H212.523V178.049H214.574V178.952H212.523V183.208C212.523 183.507 212.596 183.728 212.74 183.873C212.885 184.018 213.072 184.09 213.3 184.09C213.431 184.09 213.543 184.074 213.636 184.041C213.734 184.004 213.818 183.964 213.888 183.922C213.958 183.88 214.017 183.843 214.063 183.81C214.115 183.773 214.159 183.754 214.196 183.754C214.262 183.754 214.32 183.794 214.371 183.873L214.735 184.468C214.521 184.669 214.262 184.827 213.958 184.944C213.655 185.056 213.342 185.112 213.02 185.112ZM219.991 179.078C219.935 179.181 219.849 179.232 219.732 179.232C219.662 179.232 219.583 179.206 219.494 179.155C219.405 179.104 219.296 179.048 219.165 178.987C219.039 178.922 218.887 178.863 218.71 178.812C218.533 178.756 218.323 178.728 218.08 178.728C217.87 178.728 217.681 178.756 217.513 178.812C217.345 178.863 217.2 178.936 217.079 179.029C216.962 179.122 216.871 179.232 216.806 179.358C216.745 179.479 216.715 179.612 216.715 179.757C216.715 179.939 216.766 180.091 216.869 180.212C216.976 180.333 217.116 180.438 217.289 180.527C217.462 180.616 217.658 180.695 217.877 180.765C218.096 180.83 218.32 180.903 218.549 180.982C218.782 181.057 219.009 181.141 219.228 181.234C219.447 181.327 219.643 181.444 219.816 181.584C219.989 181.724 220.126 181.897 220.229 182.102C220.336 182.303 220.39 182.545 220.39 182.83C220.39 183.157 220.332 183.46 220.215 183.74C220.098 184.015 219.926 184.256 219.697 184.461C219.468 184.662 219.188 184.82 218.857 184.937C218.526 185.054 218.143 185.112 217.709 185.112C217.214 185.112 216.766 185.033 216.365 184.874C215.964 184.711 215.623 184.503 215.343 184.251L215.637 183.775C215.674 183.714 215.719 183.668 215.77 183.635C215.821 183.602 215.887 183.586 215.966 183.586C216.05 183.586 216.139 183.619 216.232 183.684C216.325 183.749 216.437 183.822 216.568 183.901C216.703 183.98 216.867 184.053 217.058 184.118C217.249 184.183 217.487 184.216 217.772 184.216C218.015 184.216 218.227 184.186 218.409 184.125C218.591 184.06 218.743 183.973 218.864 183.866C218.985 183.759 219.074 183.635 219.13 183.495C219.191 183.355 219.221 183.206 219.221 183.047C219.221 182.851 219.167 182.69 219.06 182.564C218.957 182.433 218.82 182.324 218.647 182.235C218.474 182.142 218.276 182.062 218.052 181.997C217.833 181.927 217.606 181.855 217.373 181.78C217.144 181.705 216.918 181.621 216.694 181.528C216.475 181.43 216.279 181.309 216.106 181.164C215.933 181.019 215.793 180.842 215.686 180.632C215.583 180.417 215.532 180.158 215.532 179.855C215.532 179.584 215.588 179.325 215.7 179.078C215.812 178.826 215.975 178.607 216.19 178.42C216.405 178.229 216.668 178.077 216.981 177.965C217.294 177.853 217.651 177.797 218.052 177.797C218.519 177.797 218.936 177.872 219.305 178.021C219.678 178.166 220 178.366 220.271 178.623L219.991 179.078ZM88.7503 194.909V202H87.5043V194.909H88.7503ZM89.0163 192.683C89.0163 192.804 88.9906 192.919 88.9393 193.026C88.8926 193.129 88.8273 193.222 88.7433 193.306C88.6639 193.385 88.5683 193.448 88.4563 193.495C88.3489 193.542 88.2346 193.565 88.1133 193.565C87.9919 193.565 87.8776 193.542 87.7703 193.495C87.6676 193.448 87.5766 193.385 87.4973 193.306C87.4179 193.222 87.3549 193.129 87.3083 193.026C87.2616 192.919 87.2383 192.804 87.2383 192.683C87.2383 192.562 87.2616 192.447 87.3083 192.34C87.3549 192.228 87.4179 192.132 87.4973 192.053C87.5766 191.969 87.6676 191.904 87.7703 191.857C87.8776 191.81 87.9919 191.787 88.1133 191.787C88.2346 191.787 88.3489 191.81 88.4563 191.857C88.5683 191.904 88.6639 191.969 88.7433 192.053C88.8273 192.132 88.8926 192.228 88.9393 192.34C88.9906 192.447 89.0163 192.562 89.0163 192.683ZM90.7975 202V194.909H91.5465C91.7239 194.909 91.8335 194.995 91.8755 195.168L91.9735 195.938C92.2815 195.597 92.6269 195.322 93.0095 195.112C93.3922 194.902 93.8332 194.797 94.3325 194.797C94.7199 194.797 95.0605 194.862 95.3545 194.993C95.6532 195.119 95.9005 195.301 96.0965 195.539C96.2972 195.772 96.4489 196.055 96.5515 196.386C96.6542 196.717 96.7055 197.084 96.7055 197.485V202H95.4525V197.485C95.4525 196.948 95.3289 196.533 95.0815 196.239C94.8389 195.94 94.4679 195.791 93.9685 195.791C93.5952 195.791 93.2475 195.88 92.9255 196.057C92.6082 196.234 92.3165 196.475 92.0505 196.778V202H90.7975ZM103.831 198.248V202H102.48V191.969H105.441C106.076 191.969 106.627 192.044 107.093 192.193C107.565 192.338 107.954 192.545 108.262 192.816C108.57 193.087 108.799 193.413 108.948 193.796C109.102 194.179 109.179 194.606 109.179 195.077C109.179 195.544 109.098 195.971 108.934 196.358C108.771 196.745 108.531 197.079 108.213 197.359C107.901 197.639 107.511 197.858 107.044 198.017C106.582 198.171 106.048 198.248 105.441 198.248H103.831ZM103.831 197.17H105.441C105.829 197.17 106.169 197.119 106.463 197.016C106.762 196.913 107.012 196.771 107.212 196.589C107.418 196.402 107.572 196.181 107.674 195.924C107.777 195.667 107.828 195.385 107.828 195.077C107.828 194.438 107.63 193.938 107.233 193.579C106.841 193.22 106.244 193.04 105.441 193.04H103.831V197.17ZM119.582 196.988C119.582 197.739 119.463 198.423 119.225 199.039C118.987 199.655 118.651 200.182 118.217 200.621C117.783 201.06 117.261 201.4 116.649 201.643C116.043 201.881 115.371 202 114.633 202H110.888V191.969H114.633C115.371 191.969 116.043 192.09 116.649 192.333C117.261 192.571 117.783 192.912 118.217 193.355C118.651 193.794 118.987 194.321 119.225 194.937C119.463 195.553 119.582 196.237 119.582 196.988ZM118.189 196.988C118.189 196.372 118.105 195.821 117.937 195.336C117.769 194.851 117.531 194.44 117.223 194.104C116.915 193.768 116.542 193.511 116.103 193.334C115.665 193.157 115.175 193.068 114.633 193.068H112.246V200.901H114.633C115.175 200.901 115.665 200.812 116.103 200.635C116.542 200.458 116.915 200.203 117.223 199.872C117.531 199.536 117.769 199.125 117.937 198.64C118.105 198.155 118.189 197.604 118.189 196.988ZM127.72 191.969V193.075H122.897V196.582H127.02V197.688H122.897V202H121.539V191.969H127.72ZM132.877 202V195.973L132.093 195.882C131.995 195.859 131.913 195.824 131.848 195.777C131.787 195.726 131.757 195.653 131.757 195.56V195.049H132.877V194.363C132.877 193.957 132.933 193.598 133.045 193.285C133.161 192.968 133.325 192.702 133.535 192.487C133.749 192.268 134.006 192.102 134.305 191.99C134.603 191.878 134.939 191.822 135.313 191.822C135.63 191.822 135.922 191.869 136.188 191.962L136.16 192.585C136.15 192.697 136.087 192.758 135.971 192.767C135.859 192.776 135.707 192.781 135.516 192.781C135.301 192.781 135.105 192.809 134.928 192.865C134.755 192.921 134.606 193.012 134.48 193.138C134.354 193.264 134.256 193.43 134.186 193.635C134.12 193.84 134.088 194.095 134.088 194.398V195.049H136.132V195.952H134.13V202H132.877ZM140.093 194.797C140.611 194.797 141.078 194.883 141.493 195.056C141.909 195.229 142.263 195.474 142.557 195.791C142.851 196.108 143.075 196.493 143.229 196.946C143.388 197.394 143.467 197.896 143.467 198.451C143.467 199.011 143.388 199.515 143.229 199.963C143.075 200.411 142.851 200.794 142.557 201.111C142.263 201.428 141.909 201.673 141.493 201.846C141.078 202.014 140.611 202.098 140.093 202.098C139.571 202.098 139.099 202.014 138.679 201.846C138.264 201.673 137.909 201.428 137.615 201.111C137.321 200.794 137.095 200.411 136.936 199.963C136.782 199.515 136.705 199.011 136.705 198.451C136.705 197.896 136.782 197.394 136.936 196.946C137.095 196.493 137.321 196.108 137.615 195.791C137.909 195.474 138.264 195.229 138.679 195.056C139.099 194.883 139.571 194.797 140.093 194.797ZM140.093 201.125C140.793 201.125 141.316 200.892 141.661 200.425C142.007 199.954 142.179 199.298 142.179 198.458C142.179 197.613 142.007 196.955 141.661 196.484C141.316 196.013 140.793 195.777 140.093 195.777C139.739 195.777 139.428 195.838 139.162 195.959C138.901 196.08 138.682 196.255 138.504 196.484C138.332 196.713 138.201 196.995 138.112 197.331C138.028 197.662 137.986 198.038 137.986 198.458C137.986 199.298 138.159 199.954 138.504 200.425C138.854 200.892 139.384 201.125 140.093 201.125ZM145.048 202V194.909H145.762C145.897 194.909 145.99 194.935 146.042 194.986C146.093 195.037 146.128 195.126 146.147 195.252L146.224 196.33C146.448 195.845 146.723 195.467 147.05 195.196C147.381 194.921 147.782 194.783 148.254 194.783C148.403 194.783 148.545 194.799 148.681 194.832C148.821 194.865 148.944 194.916 149.052 194.986L148.961 195.917C148.933 196.034 148.863 196.092 148.751 196.092C148.685 196.092 148.59 196.078 148.464 196.05C148.338 196.022 148.195 196.008 148.037 196.008C147.813 196.008 147.612 196.043 147.435 196.113C147.257 196.178 147.099 196.276 146.959 196.407C146.823 196.533 146.702 196.689 146.595 196.876C146.487 197.063 146.389 197.277 146.301 197.52V202H145.048ZM150.147 202V194.909H150.896C151.073 194.909 151.183 194.995 151.225 195.168L151.316 195.896C151.577 195.574 151.871 195.31 152.198 195.105C152.525 194.9 152.903 194.797 153.332 194.797C153.808 194.797 154.193 194.93 154.487 195.196C154.786 195.462 155 195.821 155.131 196.274C155.234 196.017 155.364 195.796 155.523 195.609C155.686 195.422 155.868 195.268 156.069 195.147C156.27 195.026 156.482 194.937 156.706 194.881C156.935 194.825 157.166 194.797 157.399 194.797C157.772 194.797 158.104 194.858 158.393 194.979C158.687 195.096 158.934 195.268 159.135 195.497C159.34 195.726 159.497 196.008 159.604 196.344C159.711 196.675 159.765 197.056 159.765 197.485V202H158.512V197.485C158.512 196.93 158.391 196.51 158.148 196.225C157.905 195.936 157.555 195.791 157.098 195.791C156.893 195.791 156.697 195.828 156.51 195.903C156.328 195.973 156.167 196.078 156.027 196.218C155.887 196.358 155.775 196.535 155.691 196.75C155.612 196.96 155.572 197.205 155.572 197.485V202H154.319V197.485C154.319 196.916 154.205 196.491 153.976 196.211C153.747 195.931 153.414 195.791 152.975 195.791C152.667 195.791 152.382 195.875 152.121 196.043C151.86 196.206 151.619 196.43 151.4 196.715V202H150.147ZM166.167 202C166.046 202 165.952 201.981 165.887 201.944C165.822 201.902 165.77 201.823 165.733 201.706L165.593 201.041C165.406 201.209 165.222 201.361 165.04 201.496C164.863 201.627 164.676 201.739 164.48 201.832C164.289 201.921 164.081 201.988 163.857 202.035C163.638 202.086 163.393 202.112 163.122 202.112C162.847 202.112 162.588 202.075 162.345 202C162.102 201.921 161.89 201.804 161.708 201.65C161.531 201.496 161.388 201.302 161.281 201.069C161.178 200.831 161.127 200.551 161.127 200.229C161.127 199.949 161.204 199.681 161.358 199.424C161.512 199.163 161.762 198.932 162.107 198.731C162.452 198.53 162.903 198.367 163.458 198.241C164.013 198.11 164.695 198.036 165.502 198.017V197.464C165.502 196.913 165.383 196.498 165.145 196.218C164.907 195.933 164.559 195.791 164.102 195.791C163.794 195.791 163.535 195.831 163.325 195.91C163.12 195.985 162.94 196.071 162.786 196.169C162.637 196.262 162.506 196.349 162.394 196.428C162.287 196.503 162.179 196.54 162.072 196.54C161.988 196.54 161.916 196.519 161.855 196.477C161.794 196.43 161.743 196.374 161.701 196.309L161.477 195.91C161.869 195.532 162.291 195.25 162.744 195.063C163.197 194.876 163.698 194.783 164.249 194.783C164.646 194.783 164.998 194.848 165.306 194.979C165.614 195.11 165.873 195.292 166.083 195.525C166.293 195.758 166.452 196.041 166.559 196.372C166.666 196.703 166.72 197.067 166.72 197.464V202H166.167ZM163.493 201.237C163.712 201.237 163.913 201.216 164.095 201.174C164.277 201.127 164.447 201.064 164.606 200.985C164.769 200.901 164.923 200.801 165.068 200.684C165.217 200.563 165.362 200.427 165.502 200.278V198.808C164.928 198.827 164.438 198.873 164.032 198.948C163.631 199.018 163.302 199.111 163.045 199.228C162.793 199.345 162.609 199.482 162.492 199.641C162.38 199.8 162.324 199.977 162.324 200.173C162.324 200.36 162.354 200.521 162.415 200.656C162.476 200.791 162.557 200.903 162.66 200.992C162.767 201.076 162.891 201.139 163.031 201.181C163.176 201.218 163.33 201.237 163.493 201.237ZM170.699 202.112C170.139 202.112 169.707 201.956 169.404 201.643C169.105 201.33 168.956 200.88 168.956 200.292V195.952H168.102C168.027 195.952 167.964 195.931 167.913 195.889C167.862 195.842 167.836 195.772 167.836 195.679V195.182L168.998 195.035L169.285 192.844C169.299 192.774 169.329 192.718 169.376 192.676C169.427 192.629 169.493 192.606 169.572 192.606H170.202V195.049H172.253V195.952H170.202V200.208C170.202 200.507 170.274 200.728 170.419 200.873C170.564 201.018 170.75 201.09 170.979 201.09C171.11 201.09 171.222 201.074 171.315 201.041C171.413 201.004 171.497 200.964 171.567 200.922C171.637 200.88 171.695 200.843 171.742 200.81C171.793 200.773 171.838 200.754 171.875 200.754C171.94 200.754 171.999 200.794 172.05 200.873L172.414 201.468C172.199 201.669 171.94 201.827 171.637 201.944C171.334 202.056 171.021 202.112 170.699 202.112Z" fill="black"/>
<path d="M71.9378 150.529C72.3818 150.529 72.7688 150.475 73.0988 150.367C73.4288 150.253 73.7018 150.094 73.9178 149.89C74.1398 149.68 74.3048 149.428 74.4128 149.134C74.5208 148.834 74.5748 148.501 74.5748 148.135C74.5748 147.787 74.5208 147.472 74.4128 147.19C74.3048 146.908 74.1428 146.668 73.9268 146.47C73.7108 146.272 73.4378 146.122 73.1078 146.02C72.7778 145.912 72.3878 145.858 71.9378 145.858H70.1288V150.529H71.9378ZM71.9378 143.986C72.8078 143.986 73.5608 144.088 74.1968 144.292C74.8328 144.496 75.3578 144.781 75.7718 145.147C76.1858 145.513 76.4918 145.951 76.6898 146.461C76.8938 146.971 76.9958 147.529 76.9958 148.135C76.9958 148.765 76.8908 149.344 76.6808 149.872C76.4708 150.394 76.1558 150.844 75.7358 151.222C75.3158 151.6 74.7878 151.894 74.1518 152.104C73.5218 152.314 72.7838 152.419 71.9378 152.419H70.1288V157H67.7078V143.986H71.9378ZM90.4083 150.493C90.4083 151.447 90.2493 152.323 89.9313 153.121C89.6133 153.919 89.1663 154.606 88.5903 155.182C88.0143 155.758 87.3213 156.205 86.5113 156.523C85.7013 156.841 84.8013 157 83.8113 157H78.8523V143.986H83.8113C84.8013 143.986 85.7013 144.148 86.5113 144.472C87.3213 144.79 88.0143 145.237 88.5903 145.813C89.1663 146.383 89.6133 147.067 89.9313 147.865C90.2493 148.663 90.4083 149.539 90.4083 150.493ZM87.9243 150.493C87.9243 149.779 87.8283 149.14 87.6363 148.576C87.4503 148.006 87.1773 147.526 86.8173 147.136C86.4633 146.74 86.0313 146.437 85.5213 146.227C85.0173 146.017 84.4473 145.912 83.8113 145.912H81.2823V155.074H83.8113C84.4473 155.074 85.0173 154.969 85.5213 154.759C86.0313 154.549 86.4633 154.249 86.8173 153.859C87.1773 153.463 87.4503 152.983 87.6363 152.419C87.8283 151.849 87.9243 151.207 87.9243 150.493ZM94.9757 145.912V149.764H99.8537V151.699H94.9757V157H92.5457V143.986H100.754V145.912H94.9757ZM118.234 150.493C118.234 151.447 118.075 152.323 117.757 153.121C117.439 153.919 116.992 154.606 116.416 155.182C115.84 155.758 115.147 156.205 114.337 156.523C113.527 156.841 112.627 157 111.637 157H106.678V143.986H111.637C112.627 143.986 113.527 144.148 114.337 144.472C115.147 144.79 115.84 145.237 116.416 145.813C116.992 146.383 117.439 147.067 117.757 147.865C118.075 148.663 118.234 149.539 118.234 150.493ZM115.75 150.493C115.75 149.779 115.654 149.14 115.462 148.576C115.276 148.006 115.003 147.526 114.643 147.136C114.289 146.74 113.857 146.437 113.347 146.227C112.843 146.017 112.273 145.912 111.637 145.912H109.108V155.074H111.637C112.273 155.074 112.843 154.969 113.347 154.759C113.857 154.549 114.289 154.249 114.643 153.859C115.003 153.463 115.276 152.983 115.462 152.419C115.654 151.849 115.75 151.207 115.75 150.493ZM123.984 147.622C124.668 147.622 125.289 147.733 125.847 147.955C126.411 148.177 126.891 148.492 127.287 148.9C127.689 149.308 127.998 149.806 128.214 150.394C128.43 150.982 128.538 151.639 128.538 152.365C128.538 153.097 128.43 153.757 128.214 154.345C127.998 154.933 127.689 155.434 127.287 155.848C126.891 156.262 126.411 156.58 125.847 156.802C125.289 157.024 124.668 157.135 123.984 157.135C123.294 157.135 122.667 157.024 122.103 156.802C121.539 156.58 121.056 156.262 120.654 155.848C120.258 155.434 119.949 154.933 119.727 154.345C119.511 153.757 119.403 153.097 119.403 152.365C119.403 151.639 119.511 150.982 119.727 150.394C119.949 149.806 120.258 149.308 120.654 148.9C121.056 148.492 121.539 148.177 122.103 147.955C122.667 147.733 123.294 147.622 123.984 147.622ZM123.984 155.425C124.752 155.425 125.319 155.167 125.685 154.651C126.057 154.135 126.243 153.379 126.243 152.383C126.243 151.387 126.057 150.628 125.685 150.106C125.319 149.584 124.752 149.323 123.984 149.323C123.204 149.323 122.625 149.587 122.247 150.115C121.875 150.637 121.689 151.393 121.689 152.383C121.689 153.373 121.875 154.129 122.247 154.651C122.625 155.167 123.204 155.425 123.984 155.425ZM143.261 147.766L140.327 157H138.545C138.341 157 138.2 156.868 138.122 156.604L136.466 151.267C136.412 151.087 136.361 150.91 136.313 150.736C136.271 150.556 136.235 150.376 136.205 150.196C136.169 150.376 136.127 150.559 136.079 150.745C136.037 150.925 135.989 151.105 135.935 151.285L134.252 156.604C134.18 156.868 134.021 157 133.775 157H132.065L129.14 147.766H130.913C131.075 147.766 131.213 147.805 131.327 147.883C131.441 147.961 131.516 148.06 131.552 148.18L132.875 153.112C132.941 153.382 132.998 153.646 133.046 153.904C133.1 154.162 133.145 154.42 133.181 154.678C133.247 154.42 133.316 154.162 133.388 153.904C133.466 153.646 133.547 153.382 133.631 153.112L135.161 148.162C135.197 148.042 135.266 147.943 135.368 147.865C135.476 147.787 135.605 147.748 135.755 147.748H136.736C136.892 147.748 137.024 147.787 137.132 147.865C137.246 147.943 137.321 148.042 137.357 148.162L138.842 153.112C138.92 153.382 138.992 153.649 139.058 153.913C139.13 154.171 139.199 154.429 139.265 154.687C139.343 154.177 139.454 153.652 139.598 153.112L140.957 148.18C140.999 148.06 141.074 147.961 141.182 147.883C141.29 147.805 141.419 147.766 141.569 147.766H143.261ZM146.604 148.9C146.79 148.714 146.985 148.543 147.189 148.387C147.399 148.225 147.618 148.09 147.846 147.982C148.08 147.868 148.329 147.781 148.593 147.721C148.857 147.655 149.145 147.622 149.457 147.622C149.961 147.622 150.408 147.709 150.798 147.883C151.188 148.051 151.512 148.291 151.77 148.603C152.034 148.909 152.232 149.278 152.364 149.71C152.502 150.136 152.571 150.607 152.571 151.123V157H150.348V151.123C150.348 150.559 150.219 150.124 149.961 149.818C149.703 149.506 149.31 149.35 148.782 149.35C148.398 149.35 148.038 149.437 147.702 149.611C147.366 149.785 147.048 150.022 146.748 150.322V157H144.525V147.766H145.884C146.172 147.766 146.361 147.901 146.451 148.171L146.604 148.9ZM156.935 143.626V157H154.712V143.626H156.935ZM163.236 147.622C163.92 147.622 164.541 147.733 165.099 147.955C165.663 148.177 166.143 148.492 166.539 148.9C166.941 149.308 167.25 149.806 167.466 150.394C167.682 150.982 167.79 151.639 167.79 152.365C167.79 153.097 167.682 153.757 167.466 154.345C167.25 154.933 166.941 155.434 166.539 155.848C166.143 156.262 165.663 156.58 165.099 156.802C164.541 157.024 163.92 157.135 163.236 157.135C162.546 157.135 161.919 157.024 161.355 156.802C160.791 156.58 160.308 156.262 159.906 155.848C159.51 155.434 159.201 154.933 158.979 154.345C158.763 153.757 158.655 153.097 158.655 152.365C158.655 151.639 158.763 150.982 158.979 150.394C159.201 149.806 159.51 149.308 159.906 148.9C160.308 148.492 160.791 148.177 161.355 147.955C161.919 147.733 162.546 147.622 163.236 147.622ZM163.236 155.425C164.004 155.425 164.571 155.167 164.937 154.651C165.309 154.135 165.495 153.379 165.495 152.383C165.495 151.387 165.309 150.628 164.937 150.106C164.571 149.584 164.004 149.323 163.236 149.323C162.456 149.323 161.877 149.587 161.499 150.115C161.127 150.637 160.941 151.393 160.941 152.383C160.941 153.373 161.127 154.129 161.499 154.651C161.877 155.167 162.456 155.425 163.236 155.425ZM174.364 153.058C173.722 153.088 173.182 153.145 172.744 153.229C172.306 153.307 171.955 153.409 171.691 153.535C171.427 153.661 171.238 153.808 171.124 153.976C171.01 154.144 170.953 154.327 170.953 154.525C170.953 154.915 171.067 155.194 171.295 155.362C171.529 155.53 171.832 155.614 172.204 155.614C172.66 155.614 173.053 155.533 173.383 155.371C173.719 155.203 174.046 154.951 174.364 154.615V153.058ZM169.27 149.053C170.332 148.081 171.61 147.595 173.104 147.595C173.644 147.595 174.127 147.685 174.553 147.865C174.979 148.039 175.339 148.285 175.633 148.603C175.927 148.915 176.149 149.29 176.299 149.728C176.455 150.166 176.533 150.646 176.533 151.168V157H175.525C175.315 157 175.153 156.97 175.039 156.91C174.925 156.844 174.835 156.715 174.769 156.523L174.571 155.857C174.337 156.067 174.109 156.253 173.887 156.415C173.665 156.571 173.434 156.703 173.194 156.811C172.954 156.919 172.696 157 172.42 157.054C172.15 157.114 171.85 157.144 171.52 157.144C171.13 157.144 170.77 157.093 170.44 156.991C170.11 156.883 169.825 156.724 169.585 156.514C169.345 156.304 169.159 156.043 169.027 155.731C168.895 155.419 168.829 155.056 168.829 154.642C168.829 154.408 168.868 154.177 168.946 153.949C169.024 153.715 169.15 153.493 169.324 153.283C169.504 153.073 169.735 152.875 170.017 152.689C170.299 152.503 170.644 152.341 171.052 152.203C171.466 152.065 171.946 151.954 172.492 151.87C173.038 151.78 173.662 151.726 174.364 151.708V151.168C174.364 150.55 174.232 150.094 173.968 149.8C173.704 149.5 173.323 149.35 172.825 149.35C172.465 149.35 172.165 149.392 171.925 149.476C171.691 149.56 171.484 149.656 171.304 149.764C171.124 149.866 170.959 149.959 170.809 150.043C170.665 150.127 170.503 150.169 170.323 150.169C170.167 150.169 170.035 150.13 169.927 150.052C169.819 149.968 169.732 149.872 169.666 149.764L169.27 149.053ZM184.422 150.124C184.17 149.818 183.894 149.602 183.594 149.476C183.3 149.35 182.982 149.287 182.64 149.287C182.304 149.287 182.001 149.35 181.731 149.476C181.461 149.602 181.23 149.794 181.038 150.052C180.846 150.304 180.699 150.628 180.597 151.024C180.495 151.414 180.444 151.876 180.444 152.41C180.444 152.95 180.486 153.409 180.57 153.787C180.66 154.159 180.786 154.465 180.948 154.705C181.11 154.939 181.308 155.11 181.542 155.218C181.776 155.32 182.037 155.371 182.325 155.371C182.787 155.371 183.18 155.275 183.504 155.083C183.828 154.891 184.134 154.618 184.422 154.264V150.124ZM186.645 143.626V157H185.286C184.992 157 184.806 156.865 184.728 156.595L184.539 155.704C184.167 156.13 183.738 156.475 183.252 156.739C182.772 157.003 182.211 157.135 181.569 157.135C181.065 157.135 180.603 157.03 180.183 156.82C179.763 156.61 179.4 156.307 179.094 155.911C178.794 155.509 178.56 155.014 178.392 154.426C178.23 153.838 178.149 153.166 178.149 152.41C178.149 151.726 178.242 151.09 178.428 150.502C178.614 149.914 178.881 149.404 179.229 148.972C179.577 148.54 179.994 148.204 180.48 147.964C180.966 147.718 181.512 147.595 182.118 147.595C182.634 147.595 183.075 147.676 183.441 147.838C183.807 148 184.134 148.219 184.422 148.495V143.626H186.645Z" fill="#101010"/>
<path d="M124.992 62.85C124.992 69.15 124.309 74.6333 122.942 79.3C121.609 83.9333 119.742 87.7667 117.342 90.8C114.976 93.8333 112.159 96.1 108.892 97.6C105.659 99.0667 102.159 99.8 98.3922 99.8C94.6255 99.8 91.1255 99.0667 87.8922 97.6C84.6922 96.1 81.9089 93.8333 79.5422 90.8C77.1755 87.7667 75.3255 83.9333 73.9922 79.3C72.6589 74.6333 71.9922 69.15 71.9922 62.85C71.9922 56.5167 72.6589 51.0333 73.9922 46.4C75.3255 41.7667 77.1755 37.9333 79.5422 34.9C81.9089 31.8667 84.6922 29.6167 87.8922 28.15C91.1255 26.65 94.6255 25.9 98.3922 25.9C102.159 25.9 105.659 26.65 108.892 28.15C112.159 29.6167 114.976 31.8667 117.342 34.9C119.742 37.9333 121.609 41.7667 122.942 46.4C124.309 51.0333 124.992 56.5167 124.992 62.85ZM112.242 62.85C112.242 57.6167 111.859 53.2833 111.092 49.85C110.326 46.4167 109.292 43.6833 107.992 41.65C106.726 39.6167 105.259 38.2 103.592 37.4C101.926 36.5667 100.192 36.15 98.3922 36.15C96.6255 36.15 94.9089 36.5667 93.2422 37.4C91.6089 38.2 90.1589 39.6167 88.8922 41.65C87.6255 43.6833 86.6089 46.4167 85.8422 49.85C85.1089 53.2833 84.7422 57.6167 84.7422 62.85C84.7422 68.0833 85.1089 72.4167 85.8422 75.85C86.6089 79.2833 87.6255 82.0167 88.8922 84.05C90.1589 86.0833 91.6089 87.5167 93.2422 88.35C94.9089 89.15 96.6255 89.55 98.3922 89.55C100.192 89.55 101.926 89.15 103.592 88.35C105.259 87.5167 106.726 86.0833 107.992 84.05C109.292 82.0167 110.326 79.2833 111.092 75.85C111.859 72.4167 112.242 68.0833 112.242 62.85ZM132.9 46.85C133.4 43.3833 134.367 40.35 135.8 37.75C137.233 35.1167 139.017 32.9333 141.15 31.2C143.317 29.4333 145.783 28.1167 148.55 27.25C151.35 26.35 154.35 25.9 157.55 25.9C160.883 25.9 163.883 26.3833 166.55 27.35C169.25 28.2833 171.55 29.6 173.45 31.3C175.35 32.9667 176.8 34.9333 177.8 37.2C178.833 39.4667 179.35 41.9167 179.35 44.55C179.35 46.85 179.083 48.8833 178.55 50.65C178.05 52.3833 177.317 53.9 176.35 55.2C175.383 56.5 174.183 57.6 172.75 58.5C171.317 59.4 169.7 60.15 167.9 60.75C172.233 62.1167 175.467 64.2 177.6 67C179.733 69.8 180.8 73.3167 180.8 77.55C180.8 81.15 180.133 84.3333 178.8 87.1C177.467 89.8667 175.667 92.2 173.4 94.1C171.133 95.9667 168.5 97.3833 165.5 98.35C162.533 99.3167 159.383 99.8 156.05 99.8C152.417 99.8 149.25 99.3833 146.55 98.55C143.85 97.7167 141.5 96.4833 139.5 94.85C137.5 93.2167 135.8 91.2167 134.4 88.85C133 86.4833 131.8 83.75 130.8 80.65L136.25 78.4C137.683 77.8 139.017 77.65 140.25 77.95C141.517 78.2167 142.433 78.8833 143 79.95C143.6 81.1167 144.25 82.2667 144.95 83.4C145.683 84.5333 146.55 85.55 147.55 86.45C148.55 87.3167 149.717 88.0333 151.05 88.6C152.417 89.1333 154.033 89.4 155.9 89.4C158 89.4 159.833 89.0667 161.4 88.4C162.967 87.7 164.267 86.8 165.3 85.7C166.367 84.6 167.15 83.3833 167.65 82.05C168.183 80.6833 168.45 79.3167 168.45 77.95C168.45 76.2167 168.267 74.65 167.9 73.25C167.533 71.8167 166.767 70.6 165.6 69.6C164.433 68.6 162.75 67.8167 160.55 67.25C158.383 66.6833 155.467 66.4 151.8 66.4V57.6C154.833 57.5667 157.35 57.2833 159.35 56.75C161.35 56.2167 162.933 55.4833 164.1 54.55C165.3 53.5833 166.133 52.4333 166.6 51.1C167.067 49.7667 167.3 48.3 167.3 46.7C167.3 43.3 166.35 40.7167 164.45 38.95C162.55 37.1833 160.017 36.3 156.85 36.3C155.383 36.3 154.033 36.5167 152.8 36.95C151.567 37.35 150.45 37.9333 149.45 38.7C148.483 39.4333 147.667 40.3 147 41.3C146.333 42.3 145.833 43.4 145.5 44.6C144.933 46.1333 144.183 47.15 143.25 47.65C142.35 48.15 141.067 48.2667 139.4 48L132.9 46.85Z" fill="#101010" fill-opacity="0.08"/>
<path d="M116.723 96.6696C116.723 95.2157 115.713 94.3472 113.932 94.3472C113.205 94.3472 112.713 94.418 112.455 94.4868V99.1565C112.761 99.2253 113.136 99.2502 113.651 99.2502C115.55 99.2502 116.723 98.288 116.723 96.6696Z" fill="#ED4C5C"/>
<path d="M127.753 94.3931C126.956 94.3931 126.439 94.4639 126.133 94.5346V104.88C126.439 104.951 126.931 104.951 127.376 104.951C130.613 104.974 132.725 103.191 132.725 99.4147C132.75 96.1301 130.825 94.3931 127.753 94.3931Z" fill="#ED4C5C"/>
<path d="M148.886 88.3155H147.589V82.0581C147.588 82.0184 147.584 81.9787 147.578 81.9395C147.58 81.6878 147.491 81.4439 147.327 81.2527L136.915 69.3616L136.907 69.3539C136.775 69.2104 136.606 69.1053 136.419 69.0497L136.362 69.0306C136.282 69.0108 136.201 69.0005 136.119 69H110.529C109.36 69 108.411 69.9508 108.411 71.1177V88.3155H107.114C105.442 88.3155 104.088 89.6699 104.088 91.3419V107.082C104.088 108.752 105.444 110.108 107.114 110.108H108.411V120.884C108.411 122.051 109.36 123.002 110.529 123.002H145.471C146.638 123.002 147.589 122.051 147.589 120.884V110.108H148.886C150.558 110.108 151.912 108.752 151.912 107.082V91.3419C151.912 89.6699 150.556 88.3155 148.886 88.3155ZM110.529 71.1177H135.059V81.9529C135.059 82.5383 135.533 83.0108 136.119 83.0108H145.473V88.3155H110.529V71.1177ZM136.526 99.2961C136.526 102.322 135.424 104.411 133.896 105.701C132.232 107.084 129.699 107.742 126.602 107.742C124.748 107.742 123.436 107.623 122.542 107.509V91.977C123.856 91.7666 125.569 91.6499 127.376 91.6499C130.378 91.6499 132.325 92.1893 133.85 93.339C135.493 94.5576 136.526 96.505 136.526 99.2961ZM108.91 107.579V91.977C110.012 91.7895 111.562 91.6499 113.742 91.6499C115.948 91.6499 117.521 92.0726 118.575 92.9163C119.583 93.714 120.262 95.0282 120.262 96.5758C120.262 98.1254 119.747 99.4377 118.808 100.329C117.588 101.479 115.782 101.995 113.67 101.995C113.201 101.995 112.778 101.972 112.451 101.925V107.579H108.91ZM145.471 120.31H110.529V110.108H145.471V120.31ZM148.54 94.6992H142.462V98.3128H148.14V101.222H142.462V107.579H138.875V91.7666H148.54V94.6992Z" fill="#ED4C5C"/>
</svg>
