<svg width="58" height="10" viewBox="0 0 58 10" fill="none" xmlns="http://www.w3.org/2000/svg">
<path d="M2.93761 4.452C3.24161 4.452 3.50561 4.414 3.72961 4.338C3.95761 4.262 4.14361 4.158 4.28761 4.026C4.43561 3.89 4.54561 3.73 4.61761 3.546C4.68961 3.362 4.72561 3.16 4.72561 2.94C4.72561 2.5 4.57961 2.162 4.28761 1.926C3.99961 1.69 3.55761 1.572 2.96161 1.572H1.92961V4.452H2.93761ZM7.08961 9H5.63161C5.35561 9 5.15561 8.892 5.03161 8.676L3.20761 5.898C3.13961 5.794 3.06361 5.72 2.97961 5.676C2.89961 5.632 2.77961 5.61 2.61961 5.61H1.92961V9H0.315609V0.323999H2.96161C3.54961 0.323999 4.05361 0.385999 4.47361 0.51C4.89761 0.629999 5.24361 0.799999 5.51161 1.02C5.78361 1.24 5.98361 1.504 6.11161 1.812C6.23961 2.116 6.30361 2.452 6.30361 2.82C6.30361 3.112 6.25961 3.388 6.17161 3.648C6.08761 3.908 5.96361 4.144 5.79961 4.356C5.63961 4.568 5.43961 4.754 5.19961 4.914C4.96361 5.074 4.69361 5.2 4.38961 5.292C4.49361 5.352 4.58961 5.424 4.67761 5.508C4.76561 5.588 4.84561 5.684 4.91761 5.796L7.08961 9ZM11.3601 5.214C11.3601 5.022 11.3321 4.842 11.2761 4.674C11.2241 4.502 11.1441 4.352 11.0361 4.224C10.9281 4.096 10.7901 3.996 10.6221 3.924C10.4581 3.848 10.2661 3.81 10.0461 3.81C9.61811 3.81 9.28011 3.932 9.03211 4.176C8.78811 4.42 8.63211 4.766 8.56411 5.214H11.3601ZM8.53411 6.108C8.55811 6.424 8.61411 6.698 8.70211 6.93C8.79011 7.158 8.90611 7.348 9.05011 7.5C9.19411 7.648 9.36411 7.76 9.56011 7.836C9.76011 7.908 9.98011 7.944 10.2201 7.944C10.4601 7.944 10.6661 7.916 10.8381 7.86C11.0141 7.804 11.1661 7.742 11.2941 7.674C11.4261 7.606 11.5401 7.544 11.6361 7.488C11.7361 7.432 11.8321 7.404 11.9241 7.404C12.0481 7.404 12.1401 7.45 12.2001 7.542L12.6261 8.082C12.4621 8.274 12.2781 8.436 12.0741 8.568C11.8701 8.696 11.6561 8.8 11.4321 8.88C11.2121 8.956 10.9861 9.01 10.7541 9.042C10.5261 9.074 10.3041 9.09 10.0881 9.09C9.66011 9.09 9.26211 9.02 8.89411 8.88C8.52611 8.736 8.20611 8.526 7.93411 8.25C7.66211 7.97 7.44811 7.626 7.29211 7.218C7.13611 6.806 7.05811 6.33 7.05811 5.79C7.05811 5.37 7.12611 4.976 7.26211 4.608C7.39811 4.236 7.59211 3.914 7.84411 3.642C8.10011 3.366 8.41011 3.148 8.77411 2.988C9.14211 2.828 9.55611 2.748 10.0161 2.748C10.4041 2.748 10.7621 2.81 11.0901 2.934C11.4181 3.058 11.7001 3.24 11.9361 3.48C12.1721 3.716 12.3561 4.008 12.4881 4.356C12.6241 4.7 12.6921 5.094 12.6921 5.538C12.6921 5.762 12.6681 5.914 12.6201 5.994C12.5721 6.07 12.4801 6.108 12.3441 6.108H8.53411ZM17.0563 6.372C16.6283 6.392 16.2683 6.43 15.9763 6.486C15.6843 6.538 15.4503 6.606 15.2743 6.69C15.0983 6.774 14.9723 6.872 14.8963 6.984C14.8203 7.096 14.7823 7.218 14.7823 7.35C14.7823 7.61 14.8583 7.796 15.0103 7.908C15.1663 8.02 15.3683 8.076 15.6163 8.076C15.9203 8.076 16.1823 8.022 16.4023 7.914C16.6263 7.802 16.8443 7.634 17.0563 7.41V6.372ZM13.6603 3.702C14.3683 3.054 15.2203 2.73 16.2163 2.73C16.5763 2.73 16.8983 2.79 17.1823 2.91C17.4663 3.026 17.7063 3.19 17.9023 3.402C18.0983 3.61 18.2463 3.86 18.3463 4.152C18.4503 4.444 18.5023 4.764 18.5023 5.112V9H17.8303C17.6903 9 17.5823 8.98 17.5063 8.94C17.4303 8.896 17.3703 8.81 17.3263 8.682L17.1943 8.238C17.0383 8.378 16.8863 8.502 16.7383 8.61C16.5903 8.714 16.4363 8.802 16.2763 8.874C16.1163 8.946 15.9443 9 15.7603 9.036C15.5803 9.076 15.3803 9.096 15.1603 9.096C14.9003 9.096 14.6603 9.062 14.4403 8.994C14.2203 8.922 14.0303 8.816 13.8703 8.676C13.7103 8.536 13.5863 8.362 13.4983 8.154C13.4103 7.946 13.3663 7.704 13.3663 7.428C13.3663 7.272 13.3923 7.118 13.4443 6.966C13.4963 6.81 13.5803 6.662 13.6963 6.522C13.8163 6.382 13.9703 6.25 14.1583 6.126C14.3463 6.002 14.5763 5.894 14.8483 5.802C15.1243 5.71 15.4443 5.636 15.8083 5.58C16.1723 5.52 16.5883 5.484 17.0563 5.472V5.112C17.0563 4.7 16.9683 4.396 16.7923 4.2C16.6163 4 16.3623 3.9 16.0303 3.9C15.7903 3.9 15.5903 3.928 15.4303 3.984C15.2743 4.04 15.1363 4.104 15.0163 4.176C14.8963 4.244 14.7863 4.306 14.6863 4.362C14.5903 4.418 14.4823 4.446 14.3623 4.446C14.2583 4.446 14.1703 4.42 14.0983 4.368C14.0263 4.312 13.9683 4.248 13.9243 4.176L13.6603 3.702ZM23.762 4.416C23.594 4.212 23.41 4.068 23.21 3.984C23.014 3.9 22.802 3.858 22.574 3.858C22.35 3.858 22.148 3.9 21.968 3.984C21.788 4.068 21.634 4.196 21.506 4.368C21.378 4.536 21.28 4.752 21.212 5.016C21.144 5.276 21.11 5.584 21.11 5.94C21.11 6.3 21.138 6.606 21.194 6.858C21.254 7.106 21.338 7.31 21.446 7.47C21.554 7.626 21.686 7.74 21.842 7.812C21.998 7.88 22.172 7.914 22.364 7.914C22.672 7.914 22.934 7.85 23.15 7.722C23.366 7.594 23.57 7.412 23.762 7.176V4.416ZM25.244 0.0839996V9H24.338C24.142 9 24.018 8.91 23.966 8.73L23.84 8.136C23.592 8.42 23.306 8.65 22.982 8.826C22.662 9.002 22.288 9.09 21.86 9.09C21.524 9.09 21.216 9.02 20.936 8.88C20.656 8.74 20.414 8.538 20.21 8.274C20.01 8.006 19.854 7.676 19.742 7.284C19.634 6.892 19.58 6.444 19.58 5.94C19.58 5.484 19.642 5.06 19.766 4.668C19.89 4.276 20.068 3.936 20.3 3.648C20.532 3.36 20.81 3.136 21.134 2.976C21.458 2.812 21.822 2.73 22.226 2.73C22.57 2.73 22.864 2.784 23.108 2.892C23.352 3 23.57 3.146 23.762 3.33V0.0839996H25.244ZM39.2666 0.323999V9H37.8446V3.396C37.8446 3.172 37.8566 2.93 37.8806 2.67L35.2586 7.596C35.1346 7.832 34.9446 7.95 34.6886 7.95H34.4606C34.2046 7.95 34.0146 7.832 33.8906 7.596L31.2386 2.652C31.2506 2.784 31.2606 2.914 31.2686 3.042C31.2766 3.17 31.2806 3.288 31.2806 3.396V9H29.8586V0.323999H31.0766C31.1486 0.323999 31.2106 0.325999 31.2626 0.33C31.3146 0.333999 31.3606 0.343999 31.4006 0.36C31.4446 0.375999 31.4826 0.401999 31.5146 0.438C31.5506 0.474 31.5846 0.521999 31.6166 0.581999L34.2146 5.4C34.2826 5.528 34.3446 5.66 34.4006 5.796C34.4606 5.932 34.5186 6.072 34.5746 6.216C34.6306 6.068 34.6886 5.926 34.7486 5.79C34.8086 5.65 34.8726 5.516 34.9406 5.388L37.5026 0.581999C37.5346 0.521999 37.5686 0.474 37.6046 0.438C37.6406 0.401999 37.6786 0.375999 37.7186 0.36C37.7626 0.343999 37.8106 0.333999 37.8626 0.33C37.9146 0.325999 37.9766 0.323999 38.0486 0.323999H39.2666ZM43.5048 2.748C43.9608 2.748 44.3748 2.822 44.7468 2.97C45.1228 3.118 45.4428 3.328 45.7068 3.6C45.9748 3.872 46.1808 4.204 46.3248 4.596C46.4688 4.988 46.5408 5.426 46.5408 5.91C46.5408 6.398 46.4688 6.838 46.3248 7.23C46.1808 7.622 45.9748 7.956 45.7068 8.232C45.4428 8.508 45.1228 8.72 44.7468 8.868C44.3748 9.016 43.9608 9.09 43.5048 9.09C43.0448 9.09 42.6268 9.016 42.2508 8.868C41.8748 8.72 41.5528 8.508 41.2848 8.232C41.0208 7.956 40.8148 7.622 40.6668 7.23C40.5228 6.838 40.4508 6.398 40.4508 5.91C40.4508 5.426 40.5228 4.988 40.6668 4.596C40.8148 4.204 41.0208 3.872 41.2848 3.6C41.5528 3.328 41.8748 3.118 42.2508 2.97C42.6268 2.822 43.0448 2.748 43.5048 2.748ZM43.5048 7.95C44.0168 7.95 44.3948 7.778 44.6388 7.434C44.8868 7.09 45.0108 6.586 45.0108 5.922C45.0108 5.258 44.8868 4.752 44.6388 4.404C44.3948 4.056 44.0168 3.882 43.5048 3.882C42.9848 3.882 42.5988 4.058 42.3468 4.41C42.0988 4.758 41.9748 5.262 41.9748 5.922C41.9748 6.582 42.0988 7.086 42.3468 7.434C42.5988 7.778 42.9848 7.95 43.5048 7.95ZM49.0695 3.912C49.2615 3.544 49.4895 3.256 49.7535 3.048C50.0175 2.836 50.3295 2.73 50.6895 2.73C50.9735 2.73 51.2015 2.792 51.3735 2.916L51.2775 4.026C51.2575 4.098 51.2275 4.15 51.1875 4.182C51.1515 4.21 51.1015 4.224 51.0375 4.224C50.9775 4.224 50.8875 4.214 50.7675 4.194C50.6515 4.174 50.5375 4.164 50.4255 4.164C50.2615 4.164 50.1155 4.188 49.9875 4.236C49.8595 4.284 49.7435 4.354 49.6395 4.446C49.5395 4.534 49.4495 4.642 49.3695 4.77C49.2935 4.898 49.2215 5.044 49.1535 5.208V9H47.6715V2.844H48.5415C48.6935 2.844 48.7995 2.872 48.8595 2.928C48.9195 2.98 48.9595 3.076 48.9795 3.216L49.0695 3.912ZM55.9382 5.214C55.9382 5.022 55.9102 4.842 55.8542 4.674C55.8022 4.502 55.7222 4.352 55.6142 4.224C55.5062 4.096 55.3682 3.996 55.2002 3.924C55.0362 3.848 54.8442 3.81 54.6242 3.81C54.1962 3.81 53.8582 3.932 53.6102 4.176C53.3662 4.42 53.2102 4.766 53.1422 5.214H55.9382ZM53.1122 6.108C53.1362 6.424 53.1922 6.698 53.2802 6.93C53.3682 7.158 53.4842 7.348 53.6282 7.5C53.7722 7.648 53.9422 7.76 54.1382 7.836C54.3382 7.908 54.5582 7.944 54.7982 7.944C55.0382 7.944 55.2442 7.916 55.4162 7.86C55.5922 7.804 55.7442 7.742 55.8722 7.674C56.0042 7.606 56.1182 7.544 56.2142 7.488C56.3142 7.432 56.4102 7.404 56.5022 7.404C56.6262 7.404 56.7182 7.45 56.7782 7.542L57.2042 8.082C57.0402 8.274 56.8562 8.436 56.6522 8.568C56.4482 8.696 56.2342 8.8 56.0102 8.88C55.7902 8.956 55.5642 9.01 55.3322 9.042C55.1042 9.074 54.8822 9.09 54.6662 9.09C54.2382 9.09 53.8402 9.02 53.4722 8.88C53.1042 8.736 52.7842 8.526 52.5122 8.25C52.2402 7.97 52.0262 7.626 51.8702 7.218C51.7142 6.806 51.6362 6.33 51.6362 5.79C51.6362 5.37 51.7042 4.976 51.8402 4.608C51.9762 4.236 52.1702 3.914 52.4222 3.642C52.6782 3.366 52.9882 3.148 53.3522 2.988C53.7202 2.828 54.1342 2.748 54.5942 2.748C54.9822 2.748 55.3402 2.81 55.6682 2.934C55.9962 3.058 56.2782 3.24 56.5142 3.48C56.7502 3.716 56.9342 4.008 57.0662 4.356C57.2022 4.7 57.2702 5.094 57.2702 5.538C57.2702 5.762 57.2462 5.914 57.1982 5.994C57.1502 6.07 57.0582 6.108 56.9222 6.108H53.1122Z" fill="#ED4C5C"/>
</svg>
