<svg width="255" height="226" viewBox="0 0 255 226" fill="none" xmlns="http://www.w3.org/2000/svg">
<rect width="255" height="226" fill="white"/>
<path d="M47.316 181.276L45.741 177.195C45.6943 177.074 45.6453 176.934 45.594 176.775C45.5427 176.612 45.4937 176.439 45.447 176.257C45.349 176.635 45.2487 176.95 45.146 177.202L43.571 181.276H47.316ZM50.144 185H49.094C48.9727 185 48.8747 184.97 48.8 184.909C48.7253 184.848 48.6693 184.771 48.632 184.678L47.694 182.256H43.193L42.255 184.678C42.227 184.762 42.1733 184.837 42.094 184.902C42.0147 184.967 41.9167 185 41.8 185H40.75L44.761 174.969H46.133L50.144 185ZM52.4303 174.689V185H51.1843V174.689H52.4303ZM55.7389 174.689V185H54.4929V174.689H55.7389ZM67.104 177.909L63.149 187.093C63.107 187.186 63.0534 187.261 62.988 187.317C62.9274 187.373 62.8317 187.401 62.701 187.401H61.777L63.072 184.587L60.146 177.909H61.224C61.3314 177.909 61.4154 177.937 61.476 177.993C61.5414 178.044 61.5857 178.103 61.609 178.168L63.506 182.634C63.5807 182.83 63.6437 183.035 63.695 183.25C63.7604 183.031 63.8304 182.823 63.905 182.627L65.746 178.168C65.774 178.093 65.8207 178.033 65.886 177.986C65.956 177.935 66.033 177.909 66.117 177.909H67.104ZM71.0024 177.797C71.5204 177.797 71.987 177.883 72.4024 178.056C72.8177 178.229 73.1724 178.474 73.4664 178.791C73.7604 179.108 73.9844 179.493 74.1384 179.946C74.297 180.394 74.3764 180.896 74.3764 181.451C74.3764 182.011 74.297 182.515 74.1384 182.963C73.9844 183.411 73.7604 183.794 73.4664 184.111C73.1724 184.428 72.8177 184.673 72.4024 184.846C71.987 185.014 71.5204 185.098 71.0024 185.098C70.4797 185.098 70.0084 185.014 69.5884 184.846C69.173 184.673 68.8184 184.428 68.5244 184.111C68.2304 183.794 68.004 183.411 67.8454 182.963C67.6914 182.515 67.6144 182.011 67.6144 181.451C67.6144 180.896 67.6914 180.394 67.8454 179.946C68.004 179.493 68.2304 179.108 68.5244 178.791C68.8184 178.474 69.173 178.229 69.5884 178.056C70.0084 177.883 70.4797 177.797 71.0024 177.797ZM71.0024 184.125C71.7024 184.125 72.225 183.892 72.5704 183.425C72.9157 182.954 73.0884 182.298 73.0884 181.458C73.0884 180.613 72.9157 179.955 72.5704 179.484C72.225 179.013 71.7024 178.777 71.0024 178.777C70.6477 178.777 70.3374 178.838 70.0714 178.959C69.81 179.08 69.5907 179.255 69.4134 179.484C69.2407 179.713 69.11 179.995 69.0214 180.331C68.9374 180.662 68.8954 181.038 68.8954 181.458C68.8954 182.298 69.068 182.954 69.4134 183.425C69.7634 183.892 70.293 184.125 71.0024 184.125ZM81.7877 177.909V185H81.0457C80.8684 185 80.7564 184.914 80.7097 184.741L80.6117 183.978C80.3037 184.319 79.9584 184.594 79.5757 184.804C79.1931 185.009 78.7544 185.112 78.2597 185.112C77.8724 185.112 77.5294 185.049 77.2307 184.923C76.9367 184.792 76.6894 184.61 76.4887 184.377C76.2881 184.144 76.1364 183.861 76.0337 183.53C75.9357 183.199 75.8867 182.832 75.8867 182.431V177.909H77.1327V182.431C77.1327 182.968 77.2541 183.383 77.4967 183.677C77.7441 183.971 78.1197 184.118 78.6237 184.118C78.9924 184.118 79.3354 184.032 79.6527 183.859C79.9747 183.682 80.2711 183.439 80.5417 183.131V177.909H81.7877ZM84.9464 179.33C85.1704 178.845 85.4457 178.467 85.7724 178.196C86.099 177.921 86.498 177.783 86.9694 177.783C87.1187 177.783 87.261 177.799 87.3964 177.832C87.5364 177.865 87.66 177.916 87.7674 177.986L87.6764 178.917C87.6484 179.034 87.5784 179.092 87.4664 179.092C87.401 179.092 87.3054 179.078 87.1794 179.05C87.0534 179.022 86.911 179.008 86.7524 179.008C86.5284 179.008 86.3277 179.041 86.1504 179.106C85.9777 179.171 85.8214 179.269 85.6814 179.4C85.546 179.526 85.4224 179.685 85.3104 179.876C85.203 180.063 85.105 180.277 85.0164 180.52V185H83.7634V177.909H84.4774C84.6127 177.909 84.706 177.935 84.7574 177.986C84.8087 178.037 84.8437 178.126 84.8624 178.252L84.9464 179.33ZM93.4602 177.909V185H92.2142V177.909H93.4602ZM93.7262 175.683C93.7262 175.804 93.7006 175.919 93.6492 176.026C93.6026 176.129 93.5372 176.222 93.4532 176.306C93.3739 176.385 93.2782 176.448 93.1662 176.495C93.0589 176.542 92.9446 176.565 92.8232 176.565C92.7019 176.565 92.5876 176.542 92.4802 176.495C92.3776 176.448 92.2866 176.385 92.2072 176.306C92.1279 176.222 92.0649 176.129 92.0182 176.026C91.9716 175.919 91.9482 175.804 91.9482 175.683C91.9482 175.562 91.9716 175.447 92.0182 175.34C92.0649 175.228 92.1279 175.132 92.2072 175.053C92.2866 174.969 92.3776 174.904 92.4802 174.857C92.5876 174.81 92.7019 174.787 92.8232 174.787C92.9446 174.787 93.0589 174.81 93.1662 174.857C93.2782 174.904 93.3739 174.969 93.4532 175.053C93.5372 175.132 93.6026 175.228 93.6492 175.34C93.7006 175.447 93.7262 175.562 93.7262 175.683ZM96.6835 178.938C96.8375 178.765 97.0008 178.609 97.1735 178.469C97.3462 178.329 97.5282 178.21 97.7195 178.112C97.9155 178.009 98.1208 177.932 98.3355 177.881C98.5548 177.825 98.7905 177.797 99.0425 177.797C99.4298 177.797 99.7705 177.862 100.065 177.993C100.363 178.119 100.611 178.301 100.807 178.539C101.007 178.772 101.159 179.055 101.262 179.386C101.364 179.717 101.416 180.084 101.416 180.485V185H100.163V180.485C100.163 179.948 100.039 179.533 99.7915 179.239C99.5488 178.94 99.1778 178.791 98.6785 178.791C98.3098 178.791 97.9645 178.88 97.6425 179.057C97.3252 179.234 97.0312 179.475 96.7605 179.778V185H95.5075V177.909H96.2565C96.4338 177.909 96.5435 177.995 96.5855 178.168L96.6835 178.938ZM103.667 185V178.973L102.883 178.882C102.785 178.859 102.703 178.824 102.638 178.777C102.577 178.726 102.547 178.653 102.547 178.56V178.049H103.667V177.363C103.667 176.957 103.723 176.598 103.835 176.285C103.951 175.968 104.115 175.702 104.325 175.487C104.539 175.268 104.796 175.102 105.095 174.99C105.393 174.878 105.729 174.822 106.103 174.822C106.42 174.822 106.712 174.869 106.978 174.962L106.95 175.585C106.94 175.697 106.877 175.758 106.761 175.767C106.649 175.776 106.497 175.781 106.306 175.781C106.091 175.781 105.895 175.809 105.718 175.865C105.545 175.921 105.396 176.012 105.27 176.138C105.144 176.264 105.046 176.43 104.976 176.635C104.91 176.84 104.878 177.095 104.878 177.398V178.049H106.922V178.952H104.92V185H103.667ZM110.87 177.797C111.388 177.797 111.854 177.883 112.27 178.056C112.685 178.229 113.04 178.474 113.334 178.791C113.628 179.108 113.852 179.493 114.006 179.946C114.164 180.394 114.244 180.896 114.244 181.451C114.244 182.011 114.164 182.515 114.006 182.963C113.852 183.411 113.628 183.794 113.334 184.111C113.04 184.428 112.685 184.673 112.27 184.846C111.854 185.014 111.388 185.098 110.87 185.098C110.347 185.098 109.876 185.014 109.456 184.846C109.04 184.673 108.686 184.428 108.392 184.111C108.098 183.794 107.871 183.411 107.713 182.963C107.559 182.515 107.482 182.011 107.482 181.451C107.482 180.896 107.559 180.394 107.713 179.946C107.871 179.493 108.098 179.108 108.392 178.791C108.686 178.474 109.04 178.229 109.456 178.056C109.876 177.883 110.347 177.797 110.87 177.797ZM110.87 184.125C111.57 184.125 112.092 183.892 112.438 183.425C112.783 182.954 112.956 182.298 112.956 181.458C112.956 180.613 112.783 179.955 112.438 179.484C112.092 179.013 111.57 178.777 110.87 178.777C110.515 178.777 110.205 178.838 109.939 178.959C109.677 179.08 109.458 179.255 109.281 179.484C109.108 179.713 108.977 179.995 108.889 180.331C108.805 180.662 108.763 181.038 108.763 181.458C108.763 182.298 108.935 182.954 109.281 183.425C109.631 183.892 110.16 184.125 110.87 184.125ZM117.007 179.33C117.231 178.845 117.506 178.467 117.833 178.196C118.16 177.921 118.559 177.783 119.03 177.783C119.179 177.783 119.322 177.799 119.457 177.832C119.597 177.865 119.721 177.916 119.828 177.986L119.737 178.917C119.709 179.034 119.639 179.092 119.527 179.092C119.462 179.092 119.366 179.078 119.24 179.05C119.114 179.022 118.972 179.008 118.813 179.008C118.589 179.008 118.388 179.041 118.211 179.106C118.038 179.171 117.882 179.269 117.742 179.4C117.607 179.526 117.483 179.685 117.371 179.876C117.264 180.063 117.166 180.277 117.077 180.52V185H115.824V177.909H116.538C116.673 177.909 116.767 177.935 116.818 177.986C116.869 178.037 116.904 178.126 116.923 178.252L117.007 179.33ZM120.924 185V177.909H121.673C121.85 177.909 121.96 177.995 122.002 178.168L122.093 178.896C122.354 178.574 122.648 178.31 122.975 178.105C123.301 177.9 123.679 177.797 124.109 177.797C124.585 177.797 124.97 177.93 125.264 178.196C125.562 178.462 125.777 178.821 125.908 179.274C126.01 179.017 126.141 178.796 126.3 178.609C126.463 178.422 126.645 178.268 126.846 178.147C127.046 178.026 127.259 177.937 127.483 177.881C127.711 177.825 127.942 177.797 128.176 177.797C128.549 177.797 128.88 177.858 129.17 177.979C129.464 178.096 129.711 178.268 129.912 178.497C130.117 178.726 130.273 179.008 130.381 179.344C130.488 179.675 130.542 180.056 130.542 180.485V185H129.289V180.485C129.289 179.93 129.167 179.51 128.925 179.225C128.682 178.936 128.332 178.791 127.875 178.791C127.669 178.791 127.473 178.828 127.287 178.903C127.105 178.973 126.944 179.078 126.804 179.218C126.664 179.358 126.552 179.535 126.468 179.75C126.388 179.96 126.349 180.205 126.349 180.485V185H125.096V180.485C125.096 179.916 124.981 179.491 124.753 179.211C124.524 178.931 124.19 178.791 123.752 178.791C123.444 178.791 123.159 178.875 122.898 179.043C122.636 179.206 122.396 179.43 122.177 179.715V185H120.924ZM136.278 181.808C135.704 181.827 135.214 181.873 134.808 181.948C134.407 182.018 134.078 182.111 133.821 182.228C133.569 182.345 133.385 182.482 133.268 182.641C133.156 182.8 133.1 182.977 133.1 183.173C133.1 183.36 133.131 183.521 133.191 183.656C133.252 183.791 133.334 183.903 133.436 183.992C133.544 184.076 133.667 184.139 133.807 184.181C133.952 184.218 134.106 184.237 134.269 184.237C134.489 184.237 134.689 184.216 134.871 184.174C135.053 184.127 135.224 184.062 135.382 183.978C135.546 183.894 135.7 183.794 135.844 183.677C135.994 183.56 136.138 183.427 136.278 183.278V181.808ZM132.253 178.91C132.645 178.532 133.068 178.25 133.52 178.063C133.973 177.876 134.475 177.783 135.025 177.783C135.422 177.783 135.774 177.848 136.082 177.979C136.39 178.11 136.649 178.292 136.859 178.525C137.069 178.758 137.228 179.041 137.335 179.372C137.443 179.703 137.496 180.067 137.496 180.464V185H136.943C136.822 185 136.729 184.981 136.663 184.944C136.598 184.902 136.547 184.823 136.509 184.706L136.369 184.034C136.183 184.207 136.001 184.361 135.823 184.496C135.646 184.627 135.459 184.739 135.263 184.832C135.067 184.921 134.857 184.988 134.633 185.035C134.414 185.086 134.169 185.112 133.898 185.112C133.623 185.112 133.364 185.075 133.121 185C132.879 184.921 132.666 184.804 132.484 184.65C132.307 184.496 132.165 184.302 132.057 184.069C131.955 183.831 131.903 183.551 131.903 183.229C131.903 182.949 131.98 182.681 132.134 182.424C132.288 182.163 132.538 181.932 132.883 181.731C133.229 181.53 133.679 181.367 134.234 181.241C134.79 181.11 135.471 181.036 136.278 181.017V180.464C136.278 179.913 136.159 179.498 135.921 179.218C135.683 178.933 135.336 178.791 134.878 178.791C134.57 178.791 134.311 178.831 134.101 178.91C133.896 178.985 133.716 179.071 133.562 179.169C133.413 179.262 133.282 179.349 133.17 179.428C133.063 179.503 132.956 179.54 132.848 179.54C132.764 179.54 132.692 179.519 132.631 179.477C132.571 179.43 132.519 179.374 132.477 179.309L132.253 178.91ZM145.879 185H144.633V178.952H140.979V183.208C140.979 183.507 141.051 183.728 141.196 183.873C141.34 184.018 141.527 184.09 141.756 184.09C141.886 184.09 141.998 184.074 142.092 184.041C142.19 184.004 142.274 183.964 142.344 183.922C142.414 183.88 142.472 183.843 142.519 183.81C142.57 183.773 142.614 183.754 142.652 183.754C142.717 183.754 142.775 183.794 142.827 183.873L143.191 184.468C142.976 184.669 142.717 184.827 142.414 184.944C142.11 185.056 141.798 185.112 141.476 185.112C140.916 185.112 140.484 184.956 140.181 184.643C139.882 184.33 139.733 183.88 139.733 183.292V178.952H138.879C138.804 178.952 138.741 178.931 138.69 178.889C138.638 178.842 138.613 178.772 138.613 178.679V178.182L139.775 178.028L140.062 175.844C140.076 175.774 140.106 175.718 140.153 175.676C140.204 175.629 140.269 175.606 140.349 175.606H140.979V178.049H145.879V185ZM146.187 175.634C146.187 175.755 146.161 175.87 146.11 175.977C146.063 176.08 145.998 176.171 145.914 176.25C145.834 176.329 145.741 176.392 145.634 176.439C145.526 176.486 145.412 176.509 145.291 176.509C145.169 176.509 145.055 176.486 144.948 176.439C144.845 176.392 144.754 176.329 144.675 176.25C144.595 176.171 144.532 176.08 144.486 175.977C144.439 175.87 144.416 175.755 144.416 175.634C144.416 175.513 144.439 175.398 144.486 175.291C144.532 175.179 144.595 175.083 144.675 175.004C144.754 174.92 144.845 174.855 144.948 174.808C145.055 174.761 145.169 174.738 145.291 174.738C145.412 174.738 145.526 174.761 145.634 174.808C145.741 174.855 145.834 174.92 145.914 175.004C145.998 175.083 146.063 175.179 146.11 175.291C146.161 175.398 146.187 175.513 146.187 175.634ZM150.914 177.797C151.432 177.797 151.899 177.883 152.314 178.056C152.73 178.229 153.084 178.474 153.378 178.791C153.672 179.108 153.896 179.493 154.05 179.946C154.209 180.394 154.288 180.896 154.288 181.451C154.288 182.011 154.209 182.515 154.05 182.963C153.896 183.411 153.672 183.794 153.378 184.111C153.084 184.428 152.73 184.673 152.314 184.846C151.899 185.014 151.432 185.098 150.914 185.098C150.392 185.098 149.92 185.014 149.5 184.846C149.085 184.673 148.73 184.428 148.436 184.111C148.142 183.794 147.916 183.411 147.757 182.963C147.603 182.515 147.526 182.011 147.526 181.451C147.526 180.896 147.603 180.394 147.757 179.946C147.916 179.493 148.142 179.108 148.436 178.791C148.73 178.474 149.085 178.229 149.5 178.056C149.92 177.883 150.392 177.797 150.914 177.797ZM150.914 184.125C151.614 184.125 152.137 183.892 152.482 183.425C152.828 182.954 153 182.298 153 181.458C153 180.613 152.828 179.955 152.482 179.484C152.137 179.013 151.614 178.777 150.914 178.777C150.56 178.777 150.249 178.838 149.983 178.959C149.722 179.08 149.503 179.255 149.325 179.484C149.153 179.713 149.022 179.995 148.933 180.331C148.849 180.662 148.807 181.038 148.807 181.458C148.807 182.298 148.98 182.954 149.325 183.425C149.675 183.892 150.205 184.125 150.914 184.125ZM157.045 178.938C157.199 178.765 157.362 178.609 157.535 178.469C157.708 178.329 157.89 178.21 158.081 178.112C158.277 178.009 158.482 177.932 158.697 177.881C158.916 177.825 159.152 177.797 159.404 177.797C159.791 177.797 160.132 177.862 160.426 177.993C160.725 178.119 160.972 178.301 161.168 178.539C161.369 178.772 161.52 179.055 161.623 179.386C161.726 179.717 161.777 180.084 161.777 180.485V185H160.524V180.485C160.524 179.948 160.4 179.533 160.153 179.239C159.91 178.94 159.539 178.791 159.04 178.791C158.671 178.791 158.326 178.88 158.004 179.057C157.687 179.234 157.393 179.475 157.122 179.778V185H155.869V177.909H156.618C156.795 177.909 156.905 177.995 156.947 178.168L157.045 178.938ZM168.574 177.909V185H167.328V177.909H168.574ZM168.84 175.683C168.84 175.804 168.814 175.919 168.763 176.026C168.716 176.129 168.651 176.222 168.567 176.306C168.487 176.385 168.392 176.448 168.28 176.495C168.172 176.542 168.058 176.565 167.937 176.565C167.815 176.565 167.701 176.542 167.594 176.495C167.491 176.448 167.4 176.385 167.321 176.306C167.241 176.222 167.178 176.129 167.132 176.026C167.085 175.919 167.062 175.804 167.062 175.683C167.062 175.562 167.085 175.447 167.132 175.34C167.178 175.228 167.241 175.132 167.321 175.053C167.4 174.969 167.491 174.904 167.594 174.857C167.701 174.81 167.815 174.787 167.937 174.787C168.058 174.787 168.172 174.81 168.28 174.857C168.392 174.904 168.487 174.969 168.567 175.053C168.651 175.132 168.716 175.228 168.763 175.34C168.814 175.447 168.84 175.562 168.84 175.683ZM174.751 179.078C174.695 179.181 174.608 179.232 174.492 179.232C174.422 179.232 174.342 179.206 174.254 179.155C174.165 179.104 174.055 179.048 173.925 178.987C173.799 178.922 173.647 178.863 173.47 178.812C173.292 178.756 173.082 178.728 172.84 178.728C172.63 178.728 172.441 178.756 172.273 178.812C172.105 178.863 171.96 178.936 171.839 179.029C171.722 179.122 171.631 179.232 171.566 179.358C171.505 179.479 171.475 179.612 171.475 179.757C171.475 179.939 171.526 180.091 171.629 180.212C171.736 180.333 171.876 180.438 172.049 180.527C172.221 180.616 172.417 180.695 172.637 180.765C172.856 180.83 173.08 180.903 173.309 180.982C173.542 181.057 173.768 181.141 173.988 181.234C174.207 181.327 174.403 181.444 174.576 181.584C174.748 181.724 174.886 181.897 174.989 182.102C175.096 182.303 175.15 182.545 175.15 182.83C175.15 183.157 175.091 183.46 174.975 183.74C174.858 184.015 174.685 184.256 174.457 184.461C174.228 184.662 173.948 184.82 173.617 184.937C173.285 185.054 172.903 185.112 172.469 185.112C171.974 185.112 171.526 185.033 171.125 184.874C170.723 184.711 170.383 184.503 170.103 184.251L170.397 183.775C170.434 183.714 170.478 183.668 170.53 183.635C170.581 183.602 170.646 183.586 170.726 183.586C170.81 183.586 170.898 183.619 170.992 183.684C171.085 183.749 171.197 183.822 171.328 183.901C171.463 183.98 171.626 184.053 171.818 184.118C172.009 184.183 172.247 184.216 172.532 184.216C172.774 184.216 172.987 184.186 173.169 184.125C173.351 184.06 173.502 183.973 173.624 183.866C173.745 183.759 173.834 183.635 173.89 183.495C173.95 183.355 173.981 183.206 173.981 183.047C173.981 182.851 173.927 182.69 173.82 182.564C173.717 182.433 173.579 182.324 173.407 182.235C173.234 182.142 173.036 182.062 172.812 181.997C172.592 181.927 172.366 181.855 172.133 181.78C171.904 181.705 171.678 181.621 171.454 181.528C171.234 181.43 171.038 181.309 170.866 181.164C170.693 181.019 170.553 180.842 170.446 180.632C170.343 180.417 170.292 180.158 170.292 179.855C170.292 179.584 170.348 179.325 170.46 179.078C170.572 178.826 170.735 178.607 170.95 178.42C171.164 178.229 171.428 178.077 171.741 177.965C172.053 177.853 172.41 177.797 172.812 177.797C173.278 177.797 173.696 177.872 174.065 178.021C174.438 178.166 174.76 178.366 175.031 178.623L174.751 179.078ZM184.389 179.078C184.333 179.181 184.247 179.232 184.13 179.232C184.06 179.232 183.981 179.206 183.892 179.155C183.804 179.104 183.694 179.048 183.563 178.987C183.437 178.922 183.286 178.863 183.108 178.812C182.931 178.756 182.721 178.728 182.478 178.728C182.268 178.728 182.079 178.756 181.911 178.812C181.743 178.863 181.599 178.936 181.477 179.029C181.361 179.122 181.27 179.232 181.204 179.358C181.144 179.479 181.113 179.612 181.113 179.757C181.113 179.939 181.165 180.091 181.267 180.212C181.375 180.333 181.515 180.438 181.687 180.527C181.86 180.616 182.056 180.695 182.275 180.765C182.495 180.83 182.719 180.903 182.947 180.982C183.181 181.057 183.407 181.141 183.626 181.234C183.846 181.327 184.042 181.444 184.214 181.584C184.387 181.724 184.525 181.897 184.627 182.102C184.735 182.303 184.788 182.545 184.788 182.83C184.788 183.157 184.73 183.46 184.613 183.74C184.497 184.015 184.324 184.256 184.095 184.461C183.867 184.662 183.587 184.82 183.255 184.937C182.924 185.054 182.541 185.112 182.107 185.112C181.613 185.112 181.165 185.033 180.763 184.874C180.362 184.711 180.021 184.503 179.741 184.251L180.035 183.775C180.073 183.714 180.117 183.668 180.168 183.635C180.22 183.602 180.285 183.586 180.364 183.586C180.448 183.586 180.537 183.619 180.63 183.684C180.724 183.749 180.836 183.822 180.966 183.901C181.102 183.98 181.265 184.053 181.456 184.118C181.648 184.183 181.886 184.216 182.17 184.216C182.413 184.216 182.625 184.186 182.807 184.125C182.989 184.06 183.141 183.973 183.262 183.866C183.384 183.759 183.472 183.635 183.528 183.495C183.589 183.355 183.619 183.206 183.619 183.047C183.619 182.851 183.566 182.69 183.458 182.564C183.356 182.433 183.218 182.324 183.045 182.235C182.873 182.142 182.674 182.062 182.45 181.997C182.231 181.927 182.005 181.855 181.771 181.78C181.543 181.705 181.316 181.621 181.092 181.528C180.873 181.43 180.677 181.309 180.504 181.164C180.332 181.019 180.192 180.842 180.084 180.632C179.982 180.417 179.93 180.158 179.93 179.855C179.93 179.584 179.986 179.325 180.098 179.078C180.21 178.826 180.374 178.607 180.588 178.42C180.803 178.229 181.067 178.077 181.379 177.965C181.692 177.853 182.049 177.797 182.45 177.797C182.917 177.797 183.335 177.872 183.703 178.021C184.077 178.166 184.399 178.366 184.669 178.623L184.389 179.078ZM188.493 185.112C187.933 185.112 187.501 184.956 187.198 184.643C186.899 184.33 186.75 183.88 186.75 183.292V178.952H185.896C185.821 178.952 185.758 178.931 185.707 178.889C185.656 178.842 185.63 178.772 185.63 178.679V178.182L186.792 178.035L187.079 175.844C187.093 175.774 187.123 175.718 187.17 175.676C187.221 175.629 187.287 175.606 187.366 175.606H187.996V178.049H190.047V178.952H187.996V183.208C187.996 183.507 188.068 183.728 188.213 183.873C188.358 184.018 188.544 184.09 188.773 184.09C188.904 184.09 189.016 184.074 189.109 184.041C189.207 184.004 189.291 183.964 189.361 183.922C189.431 183.88 189.489 183.843 189.536 183.81C189.587 183.773 189.632 183.754 189.669 183.754C189.734 183.754 189.793 183.794 189.844 183.873L190.208 184.468C189.993 184.669 189.734 184.827 189.431 184.944C189.128 185.056 188.815 185.112 188.493 185.112ZM194.282 177.797C194.8 177.797 195.266 177.883 195.682 178.056C196.097 178.229 196.452 178.474 196.746 178.791C197.04 179.108 197.264 179.493 197.418 179.946C197.576 180.394 197.656 180.896 197.656 181.451C197.656 182.011 197.576 182.515 197.418 182.963C197.264 183.411 197.04 183.794 196.746 184.111C196.452 184.428 196.097 184.673 195.682 184.846C195.266 185.014 194.8 185.098 194.282 185.098C193.759 185.098 193.288 185.014 192.868 184.846C192.452 184.673 192.098 184.428 191.804 184.111C191.51 183.794 191.283 183.411 191.125 182.963C190.971 182.515 190.894 182.011 190.894 181.451C190.894 180.896 190.971 180.394 191.125 179.946C191.283 179.493 191.51 179.108 191.804 178.791C192.098 178.474 192.452 178.229 192.868 178.056C193.288 177.883 193.759 177.797 194.282 177.797ZM194.282 184.125C194.982 184.125 195.504 183.892 195.85 183.425C196.195 182.954 196.368 182.298 196.368 181.458C196.368 180.613 196.195 179.955 195.85 179.484C195.504 179.013 194.982 178.777 194.282 178.777C193.927 178.777 193.617 178.838 193.351 178.959C193.089 179.08 192.87 179.255 192.693 179.484C192.52 179.713 192.389 179.995 192.301 180.331C192.217 180.662 192.175 181.038 192.175 181.458C192.175 182.298 192.347 182.954 192.693 183.425C193.043 183.892 193.572 184.125 194.282 184.125ZM200.419 179.33C200.643 178.845 200.918 178.467 201.245 178.196C201.572 177.921 201.971 177.783 202.442 177.783C202.591 177.783 202.734 177.799 202.869 177.832C203.009 177.865 203.133 177.916 203.24 177.986L203.149 178.917C203.121 179.034 203.051 179.092 202.939 179.092C202.874 179.092 202.778 179.078 202.652 179.05C202.526 179.022 202.384 179.008 202.225 179.008C202.001 179.008 201.8 179.041 201.623 179.106C201.45 179.171 201.294 179.269 201.154 179.4C201.019 179.526 200.895 179.685 200.783 179.876C200.676 180.063 200.578 180.277 200.489 180.52V185H199.236V177.909H199.95C200.085 177.909 200.179 177.935 200.23 177.986C200.281 178.037 200.316 178.126 200.335 178.252L200.419 179.33ZM208.795 180.681C208.795 180.392 208.753 180.128 208.669 179.89C208.589 179.647 208.47 179.44 208.312 179.267C208.158 179.09 207.969 178.954 207.745 178.861C207.521 178.763 207.266 178.714 206.982 178.714C206.384 178.714 205.911 178.889 205.561 179.239C205.215 179.584 205.001 180.065 204.917 180.681H208.795ZM209.803 184.006C209.649 184.193 209.464 184.356 209.25 184.496C209.035 184.631 208.804 184.743 208.557 184.832C208.314 184.921 208.062 184.986 207.801 185.028C207.539 185.075 207.28 185.098 207.024 185.098C206.534 185.098 206.081 185.016 205.666 184.853C205.255 184.685 204.898 184.442 204.595 184.125C204.296 183.803 204.063 183.406 203.895 182.935C203.727 182.464 203.643 181.922 203.643 181.311C203.643 180.816 203.717 180.354 203.867 179.925C204.021 179.496 204.24 179.125 204.525 178.812C204.809 178.495 205.157 178.247 205.568 178.07C205.978 177.888 206.44 177.797 206.954 177.797C207.378 177.797 207.77 177.869 208.13 178.014C208.494 178.154 208.806 178.359 209.068 178.63C209.334 178.896 209.541 179.227 209.691 179.624C209.84 180.016 209.915 180.464 209.915 180.968C209.915 181.164 209.894 181.295 209.852 181.36C209.81 181.425 209.73 181.458 209.614 181.458H204.875C204.889 181.906 204.949 182.296 205.057 182.627C205.169 182.958 205.323 183.236 205.519 183.46C205.715 183.679 205.948 183.845 206.219 183.957C206.489 184.064 206.793 184.118 207.129 184.118C207.441 184.118 207.71 184.083 207.934 184.013C208.162 183.938 208.358 183.859 208.522 183.775C208.685 183.691 208.82 183.614 208.928 183.544C209.04 183.469 209.135 183.432 209.215 183.432C209.317 183.432 209.397 183.472 209.453 183.551L209.803 184.006ZM216.065 179.596C215.832 179.283 215.58 179.066 215.309 178.945C215.038 178.819 214.735 178.756 214.399 178.756C213.741 178.756 213.235 178.992 212.88 179.463C212.525 179.934 212.348 180.606 212.348 181.479C212.348 181.941 212.388 182.338 212.467 182.669C212.546 182.996 212.663 183.266 212.817 183.481C212.971 183.691 213.16 183.845 213.384 183.943C213.608 184.041 213.862 184.09 214.147 184.09C214.558 184.09 214.915 183.997 215.218 183.81C215.526 183.623 215.808 183.36 216.065 183.019V179.596ZM217.311 174.689V185H216.569C216.392 185 216.28 184.914 216.233 184.741L216.121 183.88C215.818 184.244 215.472 184.538 215.085 184.762C214.698 184.986 214.25 185.098 213.741 185.098C213.335 185.098 212.966 185.021 212.635 184.867C212.304 184.708 212.021 184.477 211.788 184.174C211.555 183.871 211.375 183.493 211.249 183.04C211.123 182.587 211.06 182.067 211.06 181.479C211.06 180.956 211.13 180.471 211.27 180.023C211.41 179.57 211.611 179.178 211.872 178.847C212.133 178.516 212.453 178.257 212.831 178.07C213.214 177.879 213.643 177.783 214.119 177.783C214.553 177.783 214.924 177.858 215.232 178.007C215.545 178.152 215.822 178.355 216.065 178.616V174.689H217.311ZM61.3158 194.797C61.8338 194.797 62.3005 194.883 62.7158 195.056C63.1312 195.229 63.4858 195.474 63.7798 195.791C64.0738 196.108 64.2978 196.493 64.4518 196.946C64.6105 197.394 64.6898 197.896 64.6898 198.451C64.6898 199.011 64.6105 199.515 64.4518 199.963C64.2978 200.411 64.0738 200.794 63.7798 201.111C63.4858 201.428 63.1312 201.673 62.7158 201.846C62.3005 202.014 61.8338 202.098 61.3158 202.098C60.7932 202.098 60.3218 202.014 59.9018 201.846C59.4865 201.673 59.1318 201.428 58.8378 201.111C58.5438 200.794 58.3175 200.411 58.1588 199.963C58.0048 199.515 57.9278 199.011 57.9278 198.451C57.9278 197.896 58.0048 197.394 58.1588 196.946C58.3175 196.493 58.5438 196.108 58.8378 195.791C59.1318 195.474 59.4865 195.229 59.9018 195.056C60.3218 194.883 60.7932 194.797 61.3158 194.797ZM61.3158 201.125C62.0158 201.125 62.5385 200.892 62.8838 200.425C63.2292 199.954 63.4018 199.298 63.4018 198.458C63.4018 197.613 63.2292 196.955 62.8838 196.484C62.5385 196.013 62.0158 195.777 61.3158 195.777C60.9612 195.777 60.6508 195.838 60.3848 195.959C60.1235 196.08 59.9042 196.255 59.7268 196.484C59.5542 196.713 59.4235 196.995 59.3348 197.331C59.2508 197.662 59.2088 198.038 59.2088 198.458C59.2088 199.298 59.3815 199.954 59.7268 200.425C60.0768 200.892 60.6065 201.125 61.3158 201.125ZM67.4462 195.938C67.6002 195.765 67.7635 195.609 67.9362 195.469C68.1089 195.329 68.2909 195.21 68.4822 195.112C68.6782 195.009 68.8835 194.932 69.0982 194.881C69.3175 194.825 69.5532 194.797 69.8052 194.797C70.1925 194.797 70.5332 194.862 70.8272 194.993C71.1259 195.119 71.3732 195.301 71.5692 195.539C71.7699 195.772 71.9215 196.055 72.0242 196.386C72.1269 196.717 72.1782 197.084 72.1782 197.485V202H70.9252V197.485C70.9252 196.948 70.8015 196.533 70.5542 196.239C70.3115 195.94 69.9405 195.791 69.4412 195.791C69.0725 195.791 68.7272 195.88 68.4052 196.057C68.0879 196.234 67.7939 196.475 67.5232 196.778V202H66.2702V194.909H67.0192C67.1965 194.909 67.3062 194.995 67.3482 195.168L67.4462 195.938ZM81.7889 196.078C81.7329 196.181 81.6465 196.232 81.5299 196.232C81.4599 196.232 81.3805 196.206 81.2919 196.155C81.2032 196.104 81.0935 196.048 80.9629 195.987C80.8369 195.922 80.6852 195.863 80.5079 195.812C80.3305 195.756 80.1205 195.728 79.8779 195.728C79.6679 195.728 79.4789 195.756 79.3109 195.812C79.1429 195.863 78.9982 195.936 78.8769 196.029C78.7602 196.122 78.6692 196.232 78.6039 196.358C78.5432 196.479 78.5129 196.612 78.5129 196.757C78.5129 196.939 78.5642 197.091 78.6669 197.212C78.7742 197.333 78.9142 197.438 79.0869 197.527C79.2595 197.616 79.4555 197.695 79.6749 197.765C79.8942 197.83 80.1182 197.903 80.3469 197.982C80.5802 198.057 80.8065 198.141 81.0259 198.234C81.2452 198.327 81.4412 198.444 81.6139 198.584C81.7865 198.724 81.9242 198.897 82.0269 199.102C82.1342 199.303 82.1879 199.545 82.1879 199.83C82.1879 200.157 82.1295 200.46 82.0129 200.74C81.8962 201.015 81.7235 201.256 81.4949 201.461C81.2662 201.662 80.9862 201.82 80.6549 201.937C80.3235 202.054 79.9409 202.112 79.5069 202.112C79.0122 202.112 78.5642 202.033 78.1629 201.874C77.7615 201.711 77.4209 201.503 77.1409 201.251L77.4349 200.775C77.4722 200.714 77.5165 200.668 77.5679 200.635C77.6192 200.602 77.6845 200.586 77.7639 200.586C77.8479 200.586 77.9365 200.619 78.0299 200.684C78.1232 200.749 78.2352 200.822 78.3659 200.901C78.5012 200.98 78.6645 201.053 78.8559 201.118C79.0472 201.183 79.2852 201.216 79.5699 201.216C79.8125 201.216 80.0249 201.186 80.2069 201.125C80.3889 201.06 80.5405 200.973 80.6619 200.866C80.7832 200.759 80.8719 200.635 80.9279 200.495C80.9885 200.355 81.0189 200.206 81.0189 200.047C81.0189 199.851 80.9652 199.69 80.8579 199.564C80.7552 199.433 80.6175 199.324 80.4449 199.235C80.2722 199.142 80.0739 199.062 79.8499 198.997C79.6305 198.927 79.4042 198.855 79.1709 198.78C78.9422 198.705 78.7159 198.621 78.4919 198.528C78.2725 198.43 78.0765 198.309 77.9039 198.164C77.7312 198.019 77.5912 197.842 77.4839 197.632C77.3812 197.417 77.3299 197.158 77.3299 196.855C77.3299 196.584 77.3859 196.325 77.4979 196.078C77.6099 195.826 77.7732 195.607 77.9879 195.42C78.2025 195.229 78.4662 195.077 78.7789 194.965C79.0915 194.853 79.4485 194.797 79.8499 194.797C80.3165 194.797 80.7342 194.872 81.1029 195.021C81.4762 195.166 81.7982 195.366 82.0689 195.623L81.7889 196.078ZM88.4615 197.681C88.4615 197.392 88.4195 197.128 88.3355 196.89C88.2562 196.647 88.1372 196.44 87.9785 196.267C87.8245 196.09 87.6355 195.954 87.4115 195.861C87.1875 195.763 86.9332 195.714 86.6485 195.714C86.0512 195.714 85.5775 195.889 85.2275 196.239C84.8822 196.584 84.6675 197.065 84.5835 197.681H88.4615ZM89.4695 201.006C89.3155 201.193 89.1312 201.356 88.9165 201.496C88.7018 201.631 88.4708 201.743 88.2235 201.832C87.9808 201.921 87.7288 201.986 87.4675 202.028C87.2062 202.075 86.9472 202.098 86.6905 202.098C86.2005 202.098 85.7478 202.016 85.3325 201.853C84.9218 201.685 84.5648 201.442 84.2615 201.125C83.9628 200.803 83.7295 200.406 83.5615 199.935C83.3935 199.464 83.3095 198.922 83.3095 198.311C83.3095 197.816 83.3842 197.354 83.5335 196.925C83.6875 196.496 83.9068 196.125 84.1915 195.812C84.4762 195.495 84.8238 195.247 85.2345 195.07C85.6452 194.888 86.1072 194.797 86.6205 194.797C87.0452 194.797 87.4372 194.869 87.7965 195.014C88.1605 195.154 88.4732 195.359 88.7345 195.63C89.0005 195.896 89.2082 196.227 89.3575 196.624C89.5068 197.016 89.5815 197.464 89.5815 197.968C89.5815 198.164 89.5605 198.295 89.5185 198.36C89.4765 198.425 89.3972 198.458 89.2805 198.458H84.5415C84.5555 198.906 84.6162 199.296 84.7235 199.627C84.8355 199.958 84.9895 200.236 85.1855 200.46C85.3815 200.679 85.6148 200.845 85.8855 200.957C86.1562 201.064 86.4595 201.118 86.7955 201.118C87.1082 201.118 87.3765 201.083 87.6005 201.013C87.8292 200.938 88.0252 200.859 88.1885 200.775C88.3518 200.691 88.4872 200.614 88.5945 200.544C88.7065 200.469 88.8022 200.432 88.8815 200.432C88.9842 200.432 89.0635 200.472 89.1195 200.551L89.4695 201.006ZM96.047 196.169C96.0097 196.22 95.9723 196.26 95.935 196.288C95.8977 196.316 95.8463 196.33 95.781 196.33C95.711 196.33 95.634 196.302 95.55 196.246C95.466 196.185 95.361 196.12 95.235 196.05C95.1137 195.98 94.962 195.917 94.78 195.861C94.6027 195.8 94.3833 195.77 94.122 195.77C93.772 195.77 93.464 195.833 93.198 195.959C92.932 196.08 92.708 196.258 92.526 196.491C92.3487 196.724 92.2133 197.007 92.12 197.338C92.0313 197.669 91.987 198.04 91.987 198.451C91.987 198.88 92.036 199.263 92.134 199.599C92.232 199.93 92.3697 200.21 92.547 200.439C92.729 200.663 92.946 200.836 93.198 200.957C93.4547 201.074 93.7417 201.132 94.059 201.132C94.3623 201.132 94.612 201.097 94.808 201.027C95.004 200.952 95.165 200.871 95.291 200.782C95.4217 200.693 95.529 200.614 95.613 200.544C95.7017 200.469 95.788 200.432 95.872 200.432C95.9747 200.432 96.054 200.472 96.11 200.551L96.46 201.006C96.306 201.197 96.131 201.361 95.935 201.496C95.739 201.631 95.5267 201.746 95.298 201.839C95.074 201.928 94.8383 201.993 94.591 202.035C94.3437 202.077 94.0917 202.098 93.835 202.098C93.3917 202.098 92.9787 202.016 92.596 201.853C92.218 201.69 91.889 201.454 91.609 201.146C91.329 200.833 91.1097 200.451 90.951 199.998C90.7923 199.545 90.713 199.03 90.713 198.451C90.713 197.924 90.7853 197.436 90.93 196.988C91.0793 196.54 91.294 196.155 91.574 195.833C91.8587 195.506 92.2063 195.252 92.617 195.07C93.0323 194.888 93.5083 194.797 94.045 194.797C94.5443 194.797 94.983 194.879 95.361 195.042C95.7437 195.201 96.082 195.427 96.376 195.721L96.047 196.169ZM103.629 194.909V202H102.887C102.709 202 102.597 201.914 102.551 201.741L102.453 200.978C102.145 201.319 101.799 201.594 101.417 201.804C101.034 202.009 100.595 202.112 100.101 202.112C99.7132 202.112 99.3702 202.049 99.0715 201.923C98.7775 201.792 98.5302 201.61 98.3295 201.377C98.1289 201.144 97.9772 200.861 97.8745 200.53C97.7765 200.199 97.7275 199.832 97.7275 199.431V194.909H98.9735V199.431C98.9735 199.968 99.0949 200.383 99.3375 200.677C99.5849 200.971 99.9605 201.118 100.465 201.118C100.833 201.118 101.176 201.032 101.494 200.859C101.816 200.682 102.112 200.439 102.383 200.131V194.909H103.629ZM106.787 196.33C107.011 195.845 107.287 195.467 107.613 195.196C107.94 194.921 108.339 194.783 108.81 194.783C108.96 194.783 109.102 194.799 109.237 194.832C109.377 194.865 109.501 194.916 109.608 194.986L109.517 195.917C109.489 196.034 109.419 196.092 109.307 196.092C109.242 196.092 109.146 196.078 109.02 196.05C108.894 196.022 108.752 196.008 108.593 196.008C108.369 196.008 108.169 196.041 107.991 196.106C107.819 196.171 107.662 196.269 107.522 196.4C107.387 196.526 107.263 196.685 107.151 196.876C107.044 197.063 106.946 197.277 106.857 197.52V202H105.604V194.909H106.318C106.454 194.909 106.547 194.935 106.598 194.986C106.65 195.037 106.685 195.126 106.703 195.252L106.787 196.33ZM115.163 197.681C115.163 197.392 115.121 197.128 115.037 196.89C114.957 196.647 114.838 196.44 114.68 196.267C114.526 196.09 114.337 195.954 114.113 195.861C113.889 195.763 113.634 195.714 113.35 195.714C112.752 195.714 112.279 195.889 111.929 196.239C111.583 196.584 111.369 197.065 111.285 197.681H115.163ZM116.171 201.006C116.017 201.193 115.832 201.356 115.618 201.496C115.403 201.631 115.172 201.743 114.925 201.832C114.682 201.921 114.43 201.986 114.169 202.028C113.907 202.075 113.648 202.098 113.392 202.098C112.902 202.098 112.449 202.016 112.034 201.853C111.623 201.685 111.266 201.442 110.963 201.125C110.664 200.803 110.431 200.406 110.263 199.935C110.095 199.464 110.011 198.922 110.011 198.311C110.011 197.816 110.085 197.354 110.235 196.925C110.389 196.496 110.608 196.125 110.893 195.812C111.177 195.495 111.525 195.247 111.936 195.07C112.346 194.888 112.808 194.797 113.322 194.797C113.746 194.797 114.138 194.869 114.498 195.014C114.862 195.154 115.174 195.359 115.436 195.63C115.702 195.896 115.909 196.227 116.059 196.624C116.208 197.016 116.283 197.464 116.283 197.968C116.283 198.164 116.262 198.295 116.22 198.36C116.178 198.425 116.098 198.458 115.982 198.458H111.243C111.257 198.906 111.317 199.296 111.425 199.627C111.537 199.958 111.691 200.236 111.887 200.46C112.083 200.679 112.316 200.845 112.587 200.957C112.857 201.064 113.161 201.118 113.497 201.118C113.809 201.118 114.078 201.083 114.302 201.013C114.53 200.938 114.726 200.859 114.89 200.775C115.053 200.691 115.188 200.614 115.296 200.544C115.408 200.469 115.503 200.432 115.583 200.432C115.685 200.432 115.765 200.472 115.821 200.551L116.171 201.006ZM126.33 196.169C126.293 196.22 126.256 196.26 126.218 196.288C126.181 196.316 126.13 196.33 126.064 196.33C125.994 196.33 125.917 196.302 125.833 196.246C125.749 196.185 125.644 196.12 125.518 196.05C125.397 195.98 125.245 195.917 125.063 195.861C124.886 195.8 124.667 195.77 124.405 195.77C124.055 195.77 123.747 195.833 123.481 195.959C123.215 196.08 122.991 196.258 122.809 196.491C122.632 196.724 122.497 197.007 122.403 197.338C122.315 197.669 122.27 198.04 122.27 198.451C122.27 198.88 122.319 199.263 122.417 199.599C122.515 199.93 122.653 200.21 122.83 200.439C123.012 200.663 123.229 200.836 123.481 200.957C123.738 201.074 124.025 201.132 124.342 201.132C124.646 201.132 124.895 201.097 125.091 201.027C125.287 200.952 125.448 200.871 125.574 200.782C125.705 200.693 125.812 200.614 125.896 200.544C125.985 200.469 126.071 200.432 126.155 200.432C126.258 200.432 126.337 200.472 126.393 200.551L126.743 201.006C126.589 201.197 126.414 201.361 126.218 201.496C126.022 201.631 125.81 201.746 125.581 201.839C125.357 201.928 125.122 201.993 124.874 202.035C124.627 202.077 124.375 202.098 124.118 202.098C123.675 202.098 123.262 202.016 122.879 201.853C122.501 201.69 122.172 201.454 121.892 201.146C121.612 200.833 121.393 200.451 121.234 199.998C121.076 199.545 120.996 199.03 120.996 198.451C120.996 197.924 121.069 197.436 121.213 196.988C121.363 196.54 121.577 196.155 121.857 195.833C122.142 195.506 122.49 195.252 122.9 195.07C123.316 194.888 123.792 194.797 124.328 194.797C124.828 194.797 125.266 194.879 125.644 195.042C126.027 195.201 126.365 195.427 126.659 195.721L126.33 196.169ZM129.369 191.689V202H128.123V191.689H129.369ZM134.378 194.797C134.896 194.797 135.363 194.883 135.778 195.056C136.194 195.229 136.548 195.474 136.842 195.791C137.136 196.108 137.36 196.493 137.514 196.946C137.673 197.394 137.752 197.896 137.752 198.451C137.752 199.011 137.673 199.515 137.514 199.963C137.36 200.411 137.136 200.794 136.842 201.111C136.548 201.428 136.194 201.673 135.778 201.846C135.363 202.014 134.896 202.098 134.378 202.098C133.856 202.098 133.384 202.014 132.964 201.846C132.549 201.673 132.194 201.428 131.9 201.111C131.606 200.794 131.38 200.411 131.221 199.963C131.067 199.515 130.99 199.011 130.99 198.451C130.99 197.896 131.067 197.394 131.221 196.946C131.38 196.493 131.606 196.108 131.9 195.791C132.194 195.474 132.549 195.229 132.964 195.056C133.384 194.883 133.856 194.797 134.378 194.797ZM134.378 201.125C135.078 201.125 135.601 200.892 135.946 200.425C136.292 199.954 136.464 199.298 136.464 198.458C136.464 197.613 136.292 196.955 135.946 196.484C135.601 196.013 135.078 195.777 134.378 195.777C134.024 195.777 133.713 195.838 133.447 195.959C133.186 196.08 132.967 196.255 132.789 196.484C132.617 196.713 132.486 196.995 132.397 197.331C132.313 197.662 132.271 198.038 132.271 198.458C132.271 199.298 132.444 199.954 132.789 200.425C133.139 200.892 133.669 201.125 134.378 201.125ZM145.164 194.909V202H144.422C144.244 202 144.132 201.914 144.086 201.741L143.988 200.978C143.68 201.319 143.334 201.594 142.952 201.804C142.569 202.009 142.13 202.112 141.636 202.112C141.248 202.112 140.905 202.049 140.607 201.923C140.313 201.792 140.065 201.61 139.865 201.377C139.664 201.144 139.512 200.861 139.41 200.53C139.312 200.199 139.263 199.832 139.263 199.431V194.909H140.509V199.431C140.509 199.968 140.63 200.383 140.873 200.677C141.12 200.971 141.496 201.118 142 201.118C142.368 201.118 142.711 201.032 143.029 200.859C143.351 200.682 143.647 200.439 143.918 200.131V194.909H145.164ZM151.759 196.596C151.526 196.283 151.274 196.066 151.003 195.945C150.733 195.819 150.429 195.756 150.093 195.756C149.435 195.756 148.929 195.992 148.574 196.463C148.22 196.934 148.042 197.606 148.042 198.479C148.042 198.941 148.082 199.338 148.161 199.669C148.241 199.996 148.357 200.266 148.511 200.481C148.665 200.691 148.854 200.845 149.078 200.943C149.302 201.041 149.557 201.09 149.841 201.09C150.252 201.09 150.609 200.997 150.912 200.81C151.22 200.623 151.503 200.36 151.759 200.019V196.596ZM153.005 191.689V202H152.263C152.086 202 151.974 201.914 151.927 201.741L151.815 200.88C151.512 201.244 151.167 201.538 150.779 201.762C150.392 201.986 149.944 202.098 149.435 202.098C149.029 202.098 148.661 202.021 148.329 201.867C147.998 201.708 147.716 201.477 147.482 201.174C147.249 200.871 147.069 200.493 146.943 200.04C146.817 199.587 146.754 199.067 146.754 198.479C146.754 197.956 146.824 197.471 146.964 197.023C147.104 196.57 147.305 196.178 147.566 195.847C147.828 195.516 148.147 195.257 148.525 195.07C148.908 194.879 149.337 194.783 149.813 194.783C150.247 194.783 150.618 194.858 150.926 195.007C151.239 195.152 151.517 195.355 151.759 195.616V191.689H153.005ZM162.685 196.078C162.629 196.181 162.543 196.232 162.426 196.232C162.356 196.232 162.277 196.206 162.188 196.155C162.1 196.104 161.99 196.048 161.859 195.987C161.733 195.922 161.582 195.863 161.404 195.812C161.227 195.756 161.017 195.728 160.774 195.728C160.564 195.728 160.375 195.756 160.207 195.812C160.039 195.863 159.895 195.936 159.773 196.029C159.657 196.122 159.566 196.232 159.5 196.358C159.44 196.479 159.409 196.612 159.409 196.757C159.409 196.939 159.461 197.091 159.563 197.212C159.671 197.333 159.811 197.438 159.983 197.527C160.156 197.616 160.352 197.695 160.571 197.765C160.791 197.83 161.015 197.903 161.243 197.982C161.477 198.057 161.703 198.141 161.922 198.234C162.142 198.327 162.338 198.444 162.51 198.584C162.683 198.724 162.821 198.897 162.923 199.102C163.031 199.303 163.084 199.545 163.084 199.83C163.084 200.157 163.026 200.46 162.909 200.74C162.793 201.015 162.62 201.256 162.391 201.461C162.163 201.662 161.883 201.82 161.551 201.937C161.22 202.054 160.837 202.112 160.403 202.112C159.909 202.112 159.461 202.033 159.059 201.874C158.658 201.711 158.317 201.503 158.037 201.251L158.331 200.775C158.369 200.714 158.413 200.668 158.464 200.635C158.516 200.602 158.581 200.586 158.66 200.586C158.744 200.586 158.833 200.619 158.926 200.684C159.02 200.749 159.132 200.822 159.262 200.901C159.398 200.98 159.561 201.053 159.752 201.118C159.944 201.183 160.182 201.216 160.466 201.216C160.709 201.216 160.921 201.186 161.103 201.125C161.285 201.06 161.437 200.973 161.558 200.866C161.68 200.759 161.768 200.635 161.824 200.495C161.885 200.355 161.915 200.206 161.915 200.047C161.915 199.851 161.862 199.69 161.754 199.564C161.652 199.433 161.514 199.324 161.341 199.235C161.169 199.142 160.97 199.062 160.746 198.997C160.527 198.927 160.301 198.855 160.067 198.78C159.839 198.705 159.612 198.621 159.388 198.528C159.169 198.43 158.973 198.309 158.8 198.164C158.628 198.019 158.488 197.842 158.38 197.632C158.278 197.417 158.226 197.158 158.226 196.855C158.226 196.584 158.282 196.325 158.394 196.078C158.506 195.826 158.67 195.607 158.884 195.42C159.099 195.229 159.363 195.077 159.675 194.965C159.988 194.853 160.345 194.797 160.746 194.797C161.213 194.797 161.631 194.872 161.999 195.021C162.373 195.166 162.695 195.366 162.965 195.623L162.685 196.078ZM169.358 197.681C169.358 197.392 169.316 197.128 169.232 196.89C169.153 196.647 169.034 196.44 168.875 196.267C168.721 196.09 168.532 195.954 168.308 195.861C168.084 195.763 167.83 195.714 167.545 195.714C166.948 195.714 166.474 195.889 166.124 196.239C165.779 196.584 165.564 197.065 165.48 197.681H169.358ZM170.366 201.006C170.212 201.193 170.028 201.356 169.813 201.496C169.598 201.631 169.367 201.743 169.12 201.832C168.877 201.921 168.625 201.986 168.364 202.028C168.103 202.075 167.844 202.098 167.587 202.098C167.097 202.098 166.644 202.016 166.229 201.853C165.818 201.685 165.461 201.442 165.158 201.125C164.859 200.803 164.626 200.406 164.458 199.935C164.29 199.464 164.206 198.922 164.206 198.311C164.206 197.816 164.281 197.354 164.43 196.925C164.584 196.496 164.803 196.125 165.088 195.812C165.373 195.495 165.72 195.247 166.131 195.07C166.542 194.888 167.004 194.797 167.517 194.797C167.942 194.797 168.334 194.869 168.693 195.014C169.057 195.154 169.37 195.359 169.631 195.63C169.897 195.896 170.105 196.227 170.254 196.624C170.403 197.016 170.478 197.464 170.478 197.968C170.478 198.164 170.457 198.295 170.415 198.36C170.373 198.425 170.294 198.458 170.177 198.458H165.438C165.452 198.906 165.513 199.296 165.62 199.627C165.732 199.958 165.886 200.236 166.082 200.46C166.278 200.679 166.511 200.845 166.782 200.957C167.053 201.064 167.356 201.118 167.692 201.118C168.005 201.118 168.273 201.083 168.497 201.013C168.726 200.938 168.922 200.859 169.085 200.775C169.248 200.691 169.384 200.614 169.491 200.544C169.603 200.469 169.699 200.432 169.778 200.432C169.881 200.432 169.96 200.472 170.016 200.551L170.366 201.006ZM173.191 196.33C173.415 195.845 173.691 195.467 174.017 195.196C174.344 194.921 174.743 194.783 175.214 194.783C175.364 194.783 175.506 194.799 175.641 194.832C175.781 194.865 175.905 194.916 176.012 194.986L175.921 195.917C175.893 196.034 175.823 196.092 175.711 196.092C175.646 196.092 175.55 196.078 175.424 196.05C175.298 196.022 175.156 196.008 174.997 196.008C174.773 196.008 174.573 196.041 174.395 196.106C174.223 196.171 174.066 196.269 173.926 196.4C173.791 196.526 173.667 196.685 173.555 196.876C173.448 197.063 173.35 197.277 173.261 197.52V202H172.008V194.909H172.722C172.858 194.909 172.951 194.935 173.002 194.986C173.054 195.037 173.089 195.126 173.107 195.252L173.191 196.33ZM183.184 194.909L180.293 202H179.173L176.282 194.909H177.297C177.4 194.909 177.484 194.935 177.549 194.986C177.614 195.037 177.659 195.098 177.682 195.168L179.481 199.732C179.537 199.905 179.586 200.073 179.628 200.236C179.67 200.399 179.71 200.563 179.747 200.726C179.784 200.563 179.824 200.399 179.866 200.236C179.908 200.073 179.959 199.905 180.02 199.732L181.84 195.168C181.868 195.093 181.915 195.033 181.98 194.986C182.045 194.935 182.122 194.909 182.211 194.909H183.184ZM188.881 197.681C188.881 197.392 188.839 197.128 188.755 196.89C188.676 196.647 188.557 196.44 188.398 196.267C188.244 196.09 188.055 195.954 187.831 195.861C187.607 195.763 187.353 195.714 187.068 195.714C186.471 195.714 185.997 195.889 185.647 196.239C185.302 196.584 185.087 197.065 185.003 197.681H188.881ZM189.889 201.006C189.735 201.193 189.551 201.356 189.336 201.496C189.122 201.631 188.891 201.743 188.643 201.832C188.401 201.921 188.149 201.986 187.887 202.028C187.626 202.075 187.367 202.098 187.11 202.098C186.62 202.098 186.168 202.016 185.752 201.853C185.342 201.685 184.985 201.442 184.681 201.125C184.383 200.803 184.149 200.406 183.981 199.935C183.813 199.464 183.729 198.922 183.729 198.311C183.729 197.816 183.804 197.354 183.953 196.925C184.107 196.496 184.327 196.125 184.611 195.812C184.896 195.495 185.244 195.247 185.654 195.07C186.065 194.888 186.527 194.797 187.04 194.797C187.465 194.797 187.857 194.869 188.216 195.014C188.58 195.154 188.893 195.359 189.154 195.63C189.42 195.896 189.628 196.227 189.777 196.624C189.927 197.016 190.001 197.464 190.001 197.968C190.001 198.164 189.98 198.295 189.938 198.36C189.896 198.425 189.817 198.458 189.7 198.458H184.961C184.975 198.906 185.036 199.296 185.143 199.627C185.255 199.958 185.409 200.236 185.605 200.46C185.801 200.679 186.035 200.845 186.305 200.957C186.576 201.064 186.879 201.118 187.215 201.118C187.528 201.118 187.796 201.083 188.02 201.013C188.249 200.938 188.445 200.859 188.608 200.775C188.772 200.691 188.907 200.614 189.014 200.544C189.126 200.469 189.222 200.432 189.301 200.432C189.404 200.432 189.483 200.472 189.539 200.551L189.889 201.006ZM192.715 196.33C192.939 195.845 193.214 195.467 193.541 195.196C193.868 194.921 194.267 194.783 194.738 194.783C194.887 194.783 195.03 194.799 195.165 194.832C195.305 194.865 195.429 194.916 195.536 194.986L195.445 195.917C195.417 196.034 195.347 196.092 195.235 196.092C195.17 196.092 195.074 196.078 194.948 196.05C194.822 196.022 194.68 196.008 194.521 196.008C194.297 196.008 194.096 196.041 193.919 196.106C193.746 196.171 193.59 196.269 193.45 196.4C193.315 196.526 193.191 196.685 193.079 196.876C192.972 197.063 192.874 197.277 192.785 197.52V202H191.532V194.909H192.246C192.381 194.909 192.475 194.935 192.526 194.986C192.577 195.037 192.612 195.126 192.631 195.252L192.715 196.33ZM200.721 196.078C200.665 196.181 200.578 196.232 200.462 196.232C200.392 196.232 200.312 196.206 200.224 196.155C200.135 196.104 200.025 196.048 199.895 195.987C199.769 195.922 199.617 195.863 199.44 195.812C199.262 195.756 199.052 195.728 198.81 195.728C198.6 195.728 198.411 195.756 198.243 195.812C198.075 195.863 197.93 195.936 197.809 196.029C197.692 196.122 197.601 196.232 197.536 196.358C197.475 196.479 197.445 196.612 197.445 196.757C197.445 196.939 197.496 197.091 197.599 197.212C197.706 197.333 197.846 197.438 198.019 197.527C198.191 197.616 198.387 197.695 198.607 197.765C198.826 197.83 199.05 197.903 199.279 197.982C199.512 198.057 199.738 198.141 199.958 198.234C200.177 198.327 200.373 198.444 200.546 198.584C200.718 198.724 200.856 198.897 200.959 199.102C201.066 199.303 201.12 199.545 201.12 199.83C201.12 200.157 201.061 200.46 200.945 200.74C200.828 201.015 200.655 201.256 200.427 201.461C200.198 201.662 199.918 201.82 199.587 201.937C199.255 202.054 198.873 202.112 198.439 202.112C197.944 202.112 197.496 202.033 197.095 201.874C196.693 201.711 196.353 201.503 196.073 201.251L196.367 200.775C196.404 200.714 196.448 200.668 196.5 200.635C196.551 200.602 196.616 200.586 196.696 200.586C196.78 200.586 196.868 200.619 196.962 200.684C197.055 200.749 197.167 200.822 197.298 200.901C197.433 200.98 197.596 201.053 197.788 201.118C197.979 201.183 198.217 201.216 198.502 201.216C198.744 201.216 198.957 201.186 199.139 201.125C199.321 201.06 199.472 200.973 199.594 200.866C199.715 200.759 199.804 200.635 199.86 200.495C199.92 200.355 199.951 200.206 199.951 200.047C199.951 199.851 199.897 199.69 199.79 199.564C199.687 199.433 199.549 199.324 199.377 199.235C199.204 199.142 199.006 199.062 198.782 198.997C198.562 198.927 198.336 198.855 198.103 198.78C197.874 198.705 197.648 198.621 197.424 198.528C197.204 198.43 197.008 198.309 196.836 198.164C196.663 198.019 196.523 197.842 196.416 197.632C196.313 197.417 196.262 197.158 196.262 196.855C196.262 196.584 196.318 196.325 196.43 196.078C196.542 195.826 196.705 195.607 196.92 195.42C197.134 195.229 197.398 195.077 197.711 194.965C198.023 194.853 198.38 194.797 198.782 194.797C199.248 194.797 199.666 194.872 200.035 195.021C200.408 195.166 200.73 195.366 201.001 195.623L200.721 196.078Z" fill="black"/>
<path d="M108.694 146.353C108.622 146.479 108.544 146.572 108.46 146.632C108.382 146.686 108.283 146.713 108.163 146.713C108.037 146.713 107.899 146.668 107.749 146.578C107.605 146.482 107.431 146.377 107.227 146.263C107.023 146.149 106.783 146.047 106.507 145.957C106.237 145.861 105.916 145.813 105.544 145.813C105.208 145.813 104.914 145.855 104.662 145.939C104.41 146.017 104.197 146.128 104.023 146.272C103.855 146.416 103.729 146.59 103.645 146.794C103.561 146.992 103.519 147.211 103.519 147.451C103.519 147.757 103.603 148.012 103.771 148.216C103.945 148.42 104.173 148.594 104.455 148.738C104.737 148.882 105.058 149.011 105.418 149.125C105.778 149.239 106.147 149.362 106.525 149.494C106.903 149.62 107.272 149.77 107.632 149.944C107.992 150.112 108.313 150.328 108.595 150.592C108.877 150.85 109.102 151.168 109.27 151.546C109.444 151.924 109.531 152.383 109.531 152.923C109.531 153.511 109.429 154.063 109.225 154.579C109.027 155.089 108.733 155.536 108.343 155.92C107.959 156.298 107.488 156.598 106.93 156.82C106.372 157.036 105.733 157.144 105.013 157.144C104.599 157.144 104.191 157.102 103.789 157.018C103.387 156.94 103 156.826 102.628 156.676C102.262 156.526 101.917 156.346 101.593 156.136C101.269 155.926 100.981 155.692 100.729 155.434L101.44 154.273C101.5 154.189 101.578 154.12 101.674 154.066C101.77 154.006 101.872 153.976 101.98 153.976C102.13 153.976 102.292 154.039 102.466 154.165C102.64 154.285 102.847 154.42 103.087 154.57C103.327 154.72 103.606 154.858 103.924 154.984C104.248 155.104 104.635 155.164 105.085 155.164C105.775 155.164 106.309 155.002 106.687 154.678C107.065 154.348 107.254 153.877 107.254 153.265C107.254 152.923 107.167 152.644 106.993 152.428C106.825 152.212 106.6 152.032 106.318 151.888C106.036 151.738 105.715 151.612 105.355 151.51C104.995 151.408 104.629 151.297 104.257 151.177C103.885 151.057 103.519 150.913 103.159 150.745C102.799 150.577 102.478 150.358 102.196 150.088C101.914 149.818 101.686 149.482 101.512 149.08C101.344 148.672 101.26 148.171 101.26 147.577C101.26 147.103 101.353 146.641 101.539 146.191C101.731 145.741 102.007 145.342 102.367 144.994C102.727 144.646 103.171 144.367 103.699 144.157C104.227 143.947 104.833 143.842 105.517 143.842C106.285 143.842 106.993 143.962 107.641 144.202C108.289 144.442 108.841 144.778 109.297 145.21L108.694 146.353ZM117.206 151.321C117.206 151.033 117.164 150.763 117.08 150.511C117.002 150.253 116.882 150.028 116.72 149.836C116.558 149.644 116.351 149.494 116.099 149.386C115.853 149.272 115.565 149.215 115.235 149.215C114.593 149.215 114.086 149.398 113.714 149.764C113.348 150.13 113.114 150.649 113.012 151.321H117.206ZM112.967 152.662C113.003 153.136 113.087 153.547 113.219 153.895C113.351 154.237 113.525 154.522 113.741 154.75C113.957 154.972 114.212 155.14 114.506 155.254C114.806 155.362 115.136 155.416 115.496 155.416C115.856 155.416 116.165 155.374 116.423 155.29C116.687 155.206 116.915 155.113 117.107 155.011C117.305 154.909 117.476 154.816 117.62 154.732C117.77 154.648 117.914 154.606 118.052 154.606C118.238 154.606 118.376 154.675 118.466 154.813L119.105 155.623C118.859 155.911 118.583 156.154 118.277 156.352C117.971 156.544 117.65 156.7 117.314 156.82C116.984 156.934 116.645 157.015 116.297 157.063C115.955 157.111 115.622 157.135 115.298 157.135C114.656 157.135 114.059 157.03 113.507 156.82C112.955 156.604 112.475 156.289 112.067 155.875C111.659 155.455 111.338 154.939 111.104 154.327C110.87 153.709 110.753 152.995 110.753 152.185C110.753 151.555 110.855 150.964 111.059 150.412C111.263 149.854 111.554 149.371 111.932 148.963C112.316 148.549 112.781 148.222 113.327 147.982C113.879 147.742 114.5 147.622 115.19 147.622C115.772 147.622 116.309 147.715 116.801 147.901C117.293 148.087 117.716 148.36 118.07 148.72C118.424 149.074 118.7 149.512 118.898 150.034C119.102 150.55 119.204 151.141 119.204 151.807C119.204 152.143 119.168 152.371 119.096 152.491C119.024 152.605 118.886 152.662 118.682 152.662H112.967ZM127.487 149.719C127.421 149.803 127.355 149.869 127.289 149.917C127.229 149.965 127.139 149.989 127.019 149.989C126.905 149.989 126.794 149.956 126.686 149.89C126.578 149.818 126.449 149.74 126.299 149.656C126.149 149.566 125.969 149.488 125.759 149.422C125.555 149.35 125.3 149.314 124.994 149.314C124.604 149.314 124.262 149.386 123.968 149.53C123.674 149.668 123.428 149.869 123.23 150.133C123.038 150.397 122.894 150.718 122.798 151.096C122.702 151.468 122.654 151.891 122.654 152.365C122.654 152.857 122.705 153.295 122.807 153.679C122.915 154.063 123.068 154.387 123.266 154.651C123.464 154.909 123.704 155.107 123.986 155.245C124.268 155.377 124.586 155.443 124.94 155.443C125.294 155.443 125.579 155.401 125.795 155.317C126.017 155.227 126.203 155.131 126.353 155.029C126.503 154.921 126.632 154.825 126.74 154.741C126.854 154.651 126.98 154.606 127.118 154.606C127.298 154.606 127.433 154.675 127.523 154.813L128.162 155.623C127.916 155.911 127.649 156.154 127.361 156.352C127.073 156.544 126.773 156.7 126.461 156.82C126.155 156.934 125.837 157.015 125.507 157.063C125.183 157.111 124.859 157.135 124.535 157.135C123.965 157.135 123.428 157.03 122.924 156.82C122.42 156.604 121.979 156.292 121.601 155.884C121.223 155.476 120.923 154.978 120.701 154.39C120.485 153.796 120.377 153.121 120.377 152.365C120.377 151.687 120.473 151.06 120.665 150.484C120.863 149.902 121.151 149.401 121.529 148.981C121.907 148.555 122.375 148.222 122.933 147.982C123.491 147.742 124.133 147.622 124.859 147.622C125.549 147.622 126.152 147.733 126.668 147.955C127.19 148.177 127.658 148.495 128.072 148.909L127.487 149.719ZM137.512 147.766V157H136.153C135.859 157 135.673 156.865 135.595 156.595L135.442 155.857C135.064 156.241 134.647 156.553 134.191 156.793C133.735 157.027 133.198 157.144 132.58 157.144C132.076 157.144 131.629 157.06 131.239 156.892C130.855 156.718 130.531 156.475 130.267 156.163C130.003 155.851 129.802 155.482 129.664 155.056C129.532 154.624 129.466 154.15 129.466 153.634V147.766H131.689V153.634C131.689 154.198 131.818 154.636 132.076 154.948C132.34 155.254 132.733 155.407 133.255 155.407C133.639 155.407 133.999 155.323 134.335 155.155C134.671 154.981 134.989 154.744 135.289 154.444V147.766H137.512ZM141.813 149.368C142.101 148.816 142.443 148.384 142.839 148.072C143.235 147.754 143.703 147.595 144.243 147.595C144.669 147.595 145.011 147.688 145.269 147.874L145.125 149.539C145.095 149.647 145.05 149.725 144.99 149.773C144.936 149.815 144.861 149.836 144.765 149.836C144.675 149.836 144.54 149.821 144.36 149.791C144.186 149.761 144.015 149.746 143.847 149.746C143.601 149.746 143.382 149.782 143.19 149.854C142.998 149.926 142.824 150.031 142.668 150.169C142.518 150.301 142.383 150.463 142.263 150.655C142.149 150.847 142.041 151.066 141.939 151.312V157H139.716V147.766H141.021C141.249 147.766 141.408 147.808 141.498 147.892C141.588 147.97 141.648 148.114 141.678 148.324L141.813 149.368ZM152.116 151.321C152.116 151.033 152.074 150.763 151.99 150.511C151.912 150.253 151.792 150.028 151.63 149.836C151.468 149.644 151.261 149.494 151.009 149.386C150.763 149.272 150.475 149.215 150.145 149.215C149.503 149.215 148.996 149.398 148.624 149.764C148.258 150.13 148.024 150.649 147.922 151.321H152.116ZM147.877 152.662C147.913 153.136 147.997 153.547 148.129 153.895C148.261 154.237 148.435 154.522 148.651 154.75C148.867 154.972 149.122 155.14 149.416 155.254C149.716 155.362 150.046 155.416 150.406 155.416C150.766 155.416 151.075 155.374 151.333 155.29C151.597 155.206 151.825 155.113 152.017 155.011C152.215 154.909 152.386 154.816 152.53 154.732C152.68 154.648 152.824 154.606 152.962 154.606C153.148 154.606 153.286 154.675 153.376 154.813L154.015 155.623C153.769 155.911 153.493 156.154 153.187 156.352C152.881 156.544 152.56 156.7 152.224 156.82C151.894 156.934 151.555 157.015 151.207 157.063C150.865 157.111 150.532 157.135 150.208 157.135C149.566 157.135 148.969 157.03 148.417 156.82C147.865 156.604 147.385 156.289 146.977 155.875C146.569 155.455 146.248 154.939 146.014 154.327C145.78 153.709 145.663 152.995 145.663 152.185C145.663 151.555 145.765 150.964 145.969 150.412C146.173 149.854 146.464 149.371 146.842 148.963C147.226 148.549 147.691 148.222 148.237 147.982C148.789 147.742 149.41 147.622 150.1 147.622C150.682 147.622 151.219 147.715 151.711 147.901C152.203 148.087 152.626 148.36 152.98 148.72C153.334 149.074 153.61 149.512 153.808 150.034C154.012 150.55 154.114 151.141 154.114 151.807C154.114 152.143 154.078 152.371 154.006 152.491C153.934 152.605 153.796 152.662 153.592 152.662H147.877Z" fill="#101010"/>
<path fill-rule="evenodd" clip-rule="evenodd" d="M127.973 68.4869L149.874 75.9506C150.409 76.1375 150.848 76.7498 150.835 77.317V108.409C150.835 108.983 150.467 109.73 150.023 110.079L127.806 127.391C127.587 127.565 127.29 127.655 126.994 127.655C126.697 127.655 126.407 127.565 126.181 127.391L103.964 110.079C103.52 109.724 103.152 108.976 103.152 108.409V77.317C103.152 76.7498 103.591 76.1311 104.126 75.9506L126.027 68.4869C126.291 68.3967 126.646 68.3516 127 68.3516C127.354 68.3516 127.709 68.3967 127.973 68.4869ZM127 122.138L146.207 107.172V79.6115L127 73.0631L107.793 79.6115V107.172L127 122.138Z" fill="#ED4C5C"/>
<path fill-rule="evenodd" clip-rule="evenodd" d="M119.968 99.0828L114.973 104.078C114.877 104.175 114.823 104.306 114.823 104.442C114.823 104.578 114.877 104.709 114.973 104.806L117.164 106.998C117.364 107.197 117.693 107.197 117.893 106.998L122.888 102.003C126.478 104.265 131.273 103.833 134.399 100.707C138.028 97.0783 138.028 91.2002 134.399 87.5715C130.771 83.9428 124.892 83.9428 121.264 87.5715C118.138 90.6975 117.706 95.4992 119.968 99.0828ZM131.479 90.4912C129.469 88.4738 126.201 88.4738 124.183 90.4912C122.166 92.5086 122.172 95.7699 124.183 97.7873C126.194 99.8047 129.462 99.8047 131.479 97.7873C133.497 95.7764 133.497 92.5086 131.479 90.4912Z" fill="#ED4C5C"/>
<path d="M124.992 62.85C124.992 69.15 124.309 74.6333 122.942 79.3C121.609 83.9333 119.742 87.7667 117.342 90.8C114.976 93.8333 112.159 96.1 108.892 97.6C105.659 99.0667 102.159 99.8 98.3922 99.8C94.6255 99.8 91.1255 99.0667 87.8922 97.6C84.6922 96.1 81.9089 93.8333 79.5422 90.8C77.1755 87.7667 75.3255 83.9333 73.9922 79.3C72.6589 74.6333 71.9922 69.15 71.9922 62.85C71.9922 56.5167 72.6589 51.0333 73.9922 46.4C75.3255 41.7667 77.1755 37.9333 79.5422 34.9C81.9089 31.8667 84.6922 29.6167 87.8922 28.15C91.1255 26.65 94.6255 25.9 98.3922 25.9C102.159 25.9 105.659 26.65 108.892 28.15C112.159 29.6167 114.976 31.8667 117.342 34.9C119.742 37.9333 121.609 41.7667 122.942 46.4C124.309 51.0333 124.992 56.5167 124.992 62.85ZM112.242 62.85C112.242 57.6167 111.859 53.2833 111.092 49.85C110.326 46.4167 109.292 43.6833 107.992 41.65C106.726 39.6167 105.259 38.2 103.592 37.4C101.926 36.5667 100.192 36.15 98.3922 36.15C96.6255 36.15 94.9089 36.5667 93.2422 37.4C91.6089 38.2 90.1589 39.6167 88.8922 41.65C87.6255 43.6833 86.6089 46.4167 85.8422 49.85C85.1089 53.2833 84.7422 57.6167 84.7422 62.85C84.7422 68.0833 85.1089 72.4167 85.8422 75.85C86.6089 79.2833 87.6255 82.0167 88.8922 84.05C90.1589 86.0833 91.6089 87.5167 93.2422 88.35C94.9089 89.15 96.6255 89.55 98.3922 89.55C100.192 89.55 101.926 89.15 103.592 88.35C105.259 87.5167 106.726 86.0833 107.992 84.05C109.292 82.0167 110.326 79.2833 111.092 75.85C111.859 72.4167 112.242 68.0833 112.242 62.85ZM176.55 87.5C177.883 87.5 178.933 87.8833 179.7 88.65C180.5 89.3833 180.9 90.3667 180.9 91.6V99H131.3V94.9C131.3 94.0667 131.467 93.2 131.8 92.3C132.167 91.3667 132.733 90.5333 133.5 89.8L155.45 67.8C157.283 65.9333 158.917 64.15 160.35 62.45C161.817 60.75 163.033 59.0667 164 57.4C164.967 55.7333 165.7 54.05 166.2 52.35C166.733 50.6167 167 48.8 167 46.9C167 45.1667 166.75 43.65 166.25 42.35C165.75 41.0167 165.033 39.9 164.1 39C163.2 38.1 162.1 37.4333 160.8 37C159.533 36.5333 158.1 36.3 156.5 36.3C155.033 36.3 153.667 36.5167 152.4 36.95C151.167 37.35 150.067 37.9333 149.1 38.7C148.133 39.4333 147.317 40.3 146.65 41.3C145.983 42.3 145.483 43.4 145.15 44.6C144.583 46.1333 143.85 47.15 142.95 47.65C142.05 48.15 140.75 48.2667 139.05 48L132.55 46.85C133.05 43.3833 134.017 40.35 135.45 37.75C136.883 35.1167 138.667 32.9333 140.8 31.2C142.967 29.4333 145.433 28.1167 148.2 27.25C151 26.35 154 25.9 157.2 25.9C160.533 25.9 163.583 26.4 166.35 27.4C169.117 28.3667 171.483 29.75 173.45 31.55C175.417 33.35 176.95 35.5167 178.05 38.05C179.15 40.5833 179.7 43.4 179.7 46.5C179.7 49.1667 179.3 51.6333 178.5 53.9C177.733 56.1667 176.683 58.3333 175.35 60.4C174.05 62.4667 172.517 64.4667 170.75 66.4C168.983 68.3333 167.133 70.3 165.2 72.3L148.9 88.95C150.467 88.4833 152.017 88.1333 153.55 87.9C155.117 87.6333 156.6 87.5 158 87.5H176.55Z" fill="#101010" fill-opacity="0.08"/>
</svg>
