<svg width="160" height="60" viewBox="0 0 160 60" fill="none" xmlns="http://www.w3.org/2000/svg">
<rect x="0.75" y="0.75" width="158.5" height="58.5" rx="5.25" fill="#ED4C5C" stroke="#ED4C5C" stroke-width="1.5"/>
<path d="M40.412 25.537C40.37 25.607 40.3233 25.6607 40.272 25.698C40.2253 25.7307 40.167 25.747 40.097 25.747C40.0177 25.747 39.9243 25.7073 39.817 25.628C39.7097 25.5487 39.5743 25.4623 39.411 25.369C39.2523 25.271 39.0587 25.1823 38.83 25.103C38.606 25.0237 38.333 24.984 38.011 24.984C37.7077 24.984 37.4393 25.026 37.206 25.11C36.9773 25.1893 36.7837 25.299 36.625 25.439C36.471 25.579 36.3543 25.7447 36.275 25.936C36.1957 26.1227 36.156 26.3257 36.156 26.545C36.156 26.825 36.2237 27.0583 36.359 27.245C36.499 27.427 36.681 27.5833 36.905 27.714C37.1337 27.8447 37.3903 27.959 37.675 28.057C37.9643 28.1503 38.2583 28.2483 38.557 28.351C38.8603 28.4537 39.1543 28.5703 39.439 28.701C39.7283 28.827 39.985 28.988 40.209 29.184C40.4377 29.38 40.6197 29.6203 40.755 29.905C40.895 30.1897 40.965 30.5397 40.965 30.955C40.965 31.3937 40.8903 31.8067 40.741 32.194C40.5917 32.5767 40.3723 32.9103 40.083 33.195C39.7983 33.4797 39.446 33.7037 39.026 33.867C38.6107 34.0303 38.137 34.112 37.605 34.112C36.9517 34.112 36.359 33.9953 35.827 33.762C35.295 33.524 34.84 33.2043 34.462 32.803L34.854 32.159C34.8913 32.1077 34.9357 32.0657 34.987 32.033C35.043 31.9957 35.1037 31.977 35.169 31.977C35.2297 31.977 35.2973 32.0027 35.372 32.054C35.4513 32.1007 35.54 32.1613 35.638 32.236C35.736 32.3107 35.848 32.3923 35.974 32.481C36.1 32.5697 36.2423 32.6513 36.401 32.726C36.5643 32.8007 36.7487 32.8637 36.954 32.915C37.1593 32.9617 37.3903 32.985 37.647 32.985C37.969 32.985 38.256 32.9407 38.508 32.852C38.76 32.7633 38.9723 32.6397 39.145 32.481C39.3223 32.3177 39.4577 32.124 39.551 31.9C39.6443 31.676 39.691 31.4263 39.691 31.151C39.691 30.8477 39.621 30.6003 39.481 30.409C39.3457 30.213 39.166 30.0497 38.942 29.919C38.718 29.7883 38.4613 29.6787 38.172 29.59C37.8827 29.4967 37.5887 29.4033 37.29 29.31C36.9913 29.212 36.6973 29.1 36.408 28.974C36.1187 28.848 35.862 28.6847 35.638 28.484C35.414 28.2833 35.232 28.0337 35.092 27.735C34.9567 27.4317 34.889 27.0583 34.889 26.615C34.889 26.2603 34.9567 25.9173 35.092 25.586C35.232 25.2547 35.4327 24.9607 35.694 24.704C35.96 24.4473 36.2843 24.242 36.667 24.088C37.0543 23.934 37.4977 23.857 37.997 23.857C38.557 23.857 39.0657 23.9457 39.523 24.123C39.985 24.3003 40.391 24.557 40.741 24.893L40.412 25.537ZM46.7536 32.922C47.1689 32.922 47.5399 32.852 47.8666 32.712C48.1932 32.572 48.4686 32.376 48.6926 32.124C48.9212 31.872 49.0939 31.571 49.2106 31.221C49.3319 30.871 49.3926 30.486 49.3926 30.066V23.969H50.7436V30.066C50.7436 30.6447 50.6502 31.1813 50.4636 31.676C50.2816 32.1707 50.0179 32.6 49.6726 32.964C49.3319 33.3233 48.9142 33.6057 48.4196 33.811C47.9249 34.0163 47.3696 34.119 46.7536 34.119C46.1376 34.119 45.5822 34.0163 45.0876 33.811C44.5929 33.6057 44.1729 33.3233 43.8276 32.964C43.4822 32.6 43.2162 32.1707 43.0296 31.676C42.8476 31.1813 42.7566 30.6447 42.7566 30.066V23.969H44.1076V30.059C44.1076 30.479 44.1659 30.864 44.2826 31.214C44.4039 31.564 44.5766 31.865 44.8006 32.117C45.0292 32.369 45.3069 32.5673 45.6336 32.712C45.9649 32.852 46.3382 32.922 46.7536 32.922ZM53.1775 34V23.969H56.3765C56.9925 23.969 57.5222 24.0297 57.9655 24.151C58.4135 24.2723 58.7798 24.445 59.0645 24.669C59.3538 24.893 59.5662 25.1683 59.7015 25.495C59.8368 25.817 59.9045 26.181 59.9045 26.587C59.9045 26.8343 59.8648 27.0723 59.7855 27.301C59.7108 27.5297 59.5965 27.742 59.4425 27.938C59.2885 28.134 59.0925 28.309 58.8545 28.463C58.6212 28.617 58.3458 28.743 58.0285 28.841C58.7612 28.9857 59.3142 29.2493 59.6875 29.632C60.0608 30.0147 60.2475 30.5187 60.2475 31.144C60.2475 31.5687 60.1682 31.956 60.0095 32.306C59.8555 32.656 59.6268 32.957 59.3235 33.209C59.0248 33.461 58.6562 33.657 58.2175 33.797C57.7788 33.9323 57.2795 34 56.7195 34H53.1775ZM54.5285 29.429V32.922H56.6985C57.0858 32.922 57.4195 32.8777 57.6995 32.789C57.9795 32.7003 58.2082 32.5767 58.3855 32.418C58.5675 32.2547 58.7005 32.0633 58.7845 31.844C58.8685 31.62 58.9105 31.375 58.9105 31.109C58.9105 30.591 58.7262 30.1827 58.3575 29.884C57.9888 29.5807 57.4358 29.429 56.6985 29.429H54.5285ZM54.5285 28.463H56.3205C56.7032 28.463 57.0345 28.421 57.3145 28.337C57.5992 28.253 57.8325 28.1363 58.0145 27.987C58.2012 27.8377 58.3388 27.658 58.4275 27.448C58.5162 27.2333 58.5605 27 58.5605 26.748C58.5605 26.1553 58.3832 25.7237 58.0285 25.453C57.6738 25.1777 57.1232 25.04 56.3765 25.04H54.5285V28.463ZM67.1633 30.374C67.2193 30.486 67.2729 30.605 67.3243 30.731C67.3756 30.8523 67.4269 30.9737 67.4783 31.095C67.5249 30.969 67.5739 30.8453 67.6253 30.724C67.6766 30.598 67.7326 30.479 67.7933 30.367L71.1953 24.2C71.2513 24.0927 71.3119 24.0273 71.3773 24.004C71.4473 23.9807 71.5429 23.969 71.6643 23.969H72.6653V34H71.4753V26.629C71.4753 26.531 71.4776 26.426 71.4823 26.314C71.4869 26.202 71.4939 26.0877 71.5033 25.971L68.0663 32.243C67.9589 32.453 67.7956 32.558 67.5763 32.558H67.3803C67.1609 32.558 66.9976 32.453 66.8903 32.243L63.3763 25.95C63.3903 26.0713 63.3996 26.1903 63.4043 26.307C63.4136 26.4237 63.4183 26.531 63.4183 26.629V34H62.2283V23.969H63.2293C63.3506 23.969 63.4439 23.9807 63.5093 24.004C63.5746 24.0273 63.6376 24.0927 63.6983 24.2L67.1633 30.374ZM76.5882 34H75.2302V23.969H76.5882V34ZM85.937 23.969V25.11H82.689V34H81.338V25.11H78.083V23.969H85.937ZM91.2837 23.969C91.3444 23.969 91.3957 23.9737 91.4377 23.983C91.4797 23.9877 91.5171 23.9993 91.5497 24.018C91.5824 24.032 91.6151 24.0553 91.6477 24.088C91.6804 24.116 91.7154 24.1533 91.7527 24.2L97.5557 31.753C97.5464 31.6317 97.5371 31.515 97.5277 31.403C97.5231 31.2863 97.5207 31.1767 97.5207 31.074V23.969H98.7107V34H98.0317C97.9244 34 97.8334 33.9813 97.7587 33.944C97.6887 33.9067 97.6187 33.8437 97.5487 33.755L91.7457 26.202C91.7551 26.3187 91.7621 26.433 91.7667 26.545C91.7714 26.657 91.7737 26.7597 91.7737 26.853V34H90.5837V23.969H91.2837ZM110.543 28.988C110.543 29.7393 110.424 30.43 110.186 31.06C109.948 31.6853 109.612 32.2243 109.178 32.677C108.744 33.1297 108.221 33.482 107.61 33.734C107.003 33.9813 106.331 34.105 105.594 34.105C104.857 34.105 104.185 33.9813 103.578 33.734C102.971 33.482 102.451 33.1297 102.017 32.677C101.583 32.2243 101.247 31.6853 101.009 31.06C100.771 30.43 100.652 29.7393 100.652 28.988C100.652 28.2367 100.771 27.5483 101.009 26.923C101.247 26.293 101.583 25.7517 102.017 25.299C102.451 24.8417 102.971 24.487 103.578 24.235C104.185 23.983 104.857 23.857 105.594 23.857C106.331 23.857 107.003 23.983 107.61 24.235C108.221 24.487 108.744 24.8417 109.178 25.299C109.612 25.7517 109.948 26.293 110.186 26.923C110.424 27.5483 110.543 28.2367 110.543 28.988ZM109.15 28.988C109.15 28.372 109.066 27.819 108.898 27.329C108.73 26.839 108.492 26.426 108.184 26.09C107.876 25.7493 107.503 25.488 107.064 25.306C106.625 25.124 106.135 25.033 105.594 25.033C105.057 25.033 104.57 25.124 104.131 25.306C103.692 25.488 103.317 25.7493 103.004 26.09C102.696 26.426 102.458 26.839 102.29 27.329C102.122 27.819 102.038 28.372 102.038 28.988C102.038 29.604 102.122 30.157 102.29 30.647C102.458 31.1323 102.696 31.5453 103.004 31.886C103.317 32.222 103.692 32.481 104.131 32.663C104.57 32.8403 105.057 32.929 105.594 32.929C106.135 32.929 106.625 32.8403 107.064 32.663C107.503 32.481 107.876 32.222 108.184 31.886C108.492 31.5453 108.73 31.1323 108.898 30.647C109.066 30.157 109.15 29.604 109.15 28.988ZM111.258 23.969H112.385C112.506 23.969 112.607 23.9993 112.686 24.06C112.77 24.1207 112.824 24.1977 112.847 24.291L114.919 31.263C114.952 31.389 114.982 31.5243 115.01 31.669C115.043 31.8137 115.073 31.9653 115.101 32.124C115.134 31.9653 115.166 31.8137 115.199 31.669C115.236 31.5197 115.276 31.3843 115.318 31.263L117.677 24.291C117.705 24.2117 117.759 24.1393 117.838 24.074C117.922 24.004 118.022 23.969 118.139 23.969H118.531C118.652 23.969 118.75 23.9993 118.825 24.06C118.9 24.1207 118.956 24.1977 118.993 24.291L121.345 31.263C121.387 31.3843 121.424 31.515 121.457 31.655C121.494 31.795 121.527 31.9397 121.555 32.089C121.583 31.9397 121.611 31.795 121.639 31.655C121.667 31.515 121.697 31.3843 121.73 31.263L123.809 24.291C123.832 24.207 123.884 24.1323 123.963 24.067C124.047 24.0017 124.147 23.969 124.264 23.969H125.321L122.192 34H120.974L118.433 26.349C118.382 26.2043 118.335 26.0363 118.293 25.845C118.27 25.9383 118.246 26.0293 118.223 26.118C118.204 26.202 118.183 26.279 118.16 26.349L115.605 34H114.387L111.258 23.969Z" fill="white"/>
</svg>
